<svg width="289" height="157" viewBox="0 0 289 157" fill="none" xmlns="http://www.w3.org/2000/svg">
<path d="M157.169 116.281C156.937 113.967 154.872 112.279 152.557 112.512C150.243 112.744 148.555 114.809 148.788 117.124C149.02 119.438 151.085 121.126 153.4 120.893C155.714 120.661 157.402 118.596 157.169 116.281Z" fill="#262C35"/>
<path d="M155.155 117.977C155.851 116.771 155.438 115.23 154.232 114.534C153.027 113.838 151.485 114.251 150.789 115.456C150.093 116.662 150.507 118.203 151.712 118.899C152.917 119.595 154.459 119.182 155.155 117.977Z" fill="#262C35"/>
<path d="M151.715 117.052C151.528 116.356 151.941 115.641 152.637 115.454C153.333 115.268 154.048 115.681 154.235 116.377C154.421 117.073 154.008 117.788 153.312 117.974C152.616 118.161 151.901 117.748 151.715 117.052Z" fill="#262C35"/>
<path d="M154.129 103.968L151.685 109.712C151.429 110.284 151.378 110.927 151.541 111.532L152.948 116.769L149.951 116.787L148.698 112.215C148.552 111.685 148.253 111.209 147.838 110.849L143.005 106.643L146.907 104.688L154.129 103.968Z" fill="#3C5F96"/>
<path d="M146.795 118.37C146.302 116.529 147.109 114.648 148.652 113.697L148.606 113.525L149.773 113.212C152.02 112.61 154.33 113.943 154.932 116.19C155.534 118.437 154.201 120.747 151.954 121.349L150.786 121.662L150.74 121.49C148.928 121.437 147.288 120.211 146.795 118.37Z" fill="#2A3646"/>
<path d="M153.878 117.24C153.692 114.921 151.661 113.192 149.342 113.379C147.023 113.566 145.295 115.597 145.481 117.915C145.668 120.234 147.699 121.962 150.018 121.776C152.336 121.589 154.065 119.558 153.878 117.24Z" fill="#374A60"/>
<path d="M152.214 117.539C152.174 116.147 151.013 115.052 149.622 115.093C148.23 115.133 147.135 116.294 147.176 117.685C147.216 119.077 148.377 120.172 149.768 120.131C151.16 120.091 152.255 118.93 152.214 117.539Z" fill="#ACCEE4"/>
<path d="M148.437 117.93C148.251 117.234 148.664 116.519 149.36 116.332C150.056 116.146 150.771 116.559 150.957 117.255C151.144 117.951 150.731 118.666 150.035 118.853C149.339 119.039 148.624 118.626 148.437 117.93Z" fill="#293C56"/>
<path d="M255.151 91.4667C255.104 89.9015 253.797 88.6706 252.232 88.7174C250.667 88.7643 249.436 90.0711 249.483 91.6363C249.529 93.2015 250.836 94.4324 252.401 94.3855C253.967 94.3387 255.197 93.0319 255.151 91.4667Z" fill="#262C35"/>
<path d="M252.735 93.165C253.64 92.9225 254.177 91.9921 253.935 91.0869C253.692 90.1818 252.762 89.6446 251.857 89.8871C250.952 90.1297 250.414 91.0601 250.657 91.9652C250.899 92.8704 251.83 93.4076 252.735 93.165Z" fill="#262C35"/>
<path d="M251.45 91.7529C251.324 91.2844 251.602 90.8029 252.071 90.6774C252.539 90.5518 253.021 90.8298 253.146 91.2983C253.272 91.7668 252.994 92.2483 252.525 92.3738C252.057 92.4994 251.575 92.2214 251.45 91.7529Z" fill="#262C35"/>
<path d="M253.138 76.9697L250.843 82.7758C250.601 83.3539 250.566 83.9974 250.745 84.5979L252.287 89.7977L249.291 89.8924L247.92 85.3544C247.761 84.8281 247.45 84.3604 247.026 84.0107L242.086 79.931L245.936 77.8763L253.138 76.9697Z" fill="#3C5F96"/>
<path d="M248.139 92.6402C247.807 91.4008 248.35 90.1344 249.389 89.4939L249.358 89.3781L250.144 89.1675C251.657 88.7622 253.211 89.6599 253.617 91.1724C254.022 92.685 253.124 94.2398 251.612 94.6451L250.826 94.8557L250.795 94.7398C249.575 94.7046 248.471 93.8795 248.139 92.6402Z" fill="#2A3646"/>
<path d="M252.921 91.8263C252.763 90.2683 251.372 89.1332 249.814 89.2909C248.256 89.4487 247.121 90.8396 247.279 92.3976C247.437 93.9556 248.827 95.0907 250.385 94.933C251.944 94.7752 253.079 93.3843 252.921 91.8263Z" fill="#374A60"/>
<path d="M250.531 93.7562C251.436 93.5137 251.973 92.5833 251.731 91.6781C251.488 90.773 250.558 90.2358 249.653 90.4783C248.747 90.7209 248.21 91.6513 248.453 92.5564C248.695 93.4616 249.626 93.9988 250.531 93.7562Z" fill="#ACCEE4"/>
<path d="M249.243 92.345C249.117 91.8765 249.395 91.3951 249.864 91.2695C250.332 91.144 250.814 91.422 250.939 91.8905C251.065 92.359 250.787 92.8404 250.318 92.966C249.85 93.0915 249.368 92.8136 249.243 92.345Z" fill="#293C56"/>
<path d="M182.798 109.743C182.732 107.418 180.793 105.587 178.468 105.653C176.143 105.719 174.312 107.658 174.378 109.983C174.444 112.308 176.383 114.14 178.708 114.073C181.033 114.007 182.865 112.068 182.798 109.743Z" fill="#262C35"/>
<path d="M181.093 109.803C181.053 108.412 179.892 107.317 178.501 107.358C177.109 107.398 176.014 108.559 176.055 109.95C176.095 111.341 177.256 112.436 178.647 112.396C180.038 112.355 181.134 111.195 181.093 109.803Z" fill="#262C35"/>
<path d="M177.316 110.193C177.13 109.497 177.543 108.782 178.239 108.595C178.935 108.409 179.65 108.822 179.836 109.518C180.023 110.214 179.61 110.929 178.914 111.116C178.218 111.302 177.503 110.889 177.316 110.193Z" fill="#262C35"/>
<path d="M172.27 111.545C171.776 109.704 172.584 107.823 174.127 106.872L174.08 106.7L175.248 106.387C177.495 105.785 179.804 107.118 180.407 109.365C181.009 111.612 179.675 113.922 177.428 114.524L176.261 114.836L176.215 114.665C174.403 114.612 172.763 113.386 172.27 111.545Z" fill="#2A3646"/>
<path d="M179.366 110.334C179.133 108.02 177.068 106.332 174.753 106.565C172.439 106.797 170.751 108.862 170.984 111.177C171.217 113.491 173.282 115.179 175.596 114.946C177.911 114.714 179.598 112.649 179.366 110.334Z" fill="#374A60"/>
<path d="M177.674 110.521C177.534 109.137 176.298 108.127 174.913 108.267C173.528 108.406 172.519 109.642 172.658 111.027C172.798 112.412 174.034 113.422 175.419 113.282C176.804 113.142 177.813 111.906 177.674 110.521Z" fill="#ACCEE4"/>
<path d="M173.912 111.105C173.725 110.409 174.138 109.694 174.834 109.508C175.53 109.321 176.246 109.734 176.432 110.43C176.619 111.126 176.206 111.841 175.51 112.028C174.814 112.214 174.098 111.801 173.912 111.105Z" fill="#293C56"/>
<path d="M197.498 92.6833C198.351 95.8661 200.096 98.2238 201.6 98.3616L202.129 98.4386C206.548 99.0762 220.523 95.769 224.952 93.9709L223.436 88.0698L220.886 78.1461C216.583 79.2154 201.792 83.9898 198.636 85.4018L198.408 85.5338C198.385 85.5462 198.363 85.5586 198.34 85.5711C196.992 86.3051 196.613 89.3803 197.498 92.6833Z" fill="#EA5A47"/>
<path d="M197.498 92.6834C198.351 95.8662 200.096 98.2239 201.6 98.3617L202.13 98.4386C206.548 99.0763 220.524 95.7691 224.953 93.971L223.436 88.0699C222.399 87.6847 221.8 87.4655 221.8 87.4655L201.366 92.9408C199.593 93.4159 196.734 88.9429 198.341 85.5708C196.993 86.3052 196.613 89.3804 197.498 92.6834Z" fill="#D34744"/>
<path d="M224.938 93.9882C226.431 93.588 226.694 89.7269 225.525 85.3641C224.356 81.0013 222.198 77.7889 220.705 78.189C219.212 78.5891 218.949 82.4502 220.118 86.813C221.287 91.1759 223.445 94.3883 224.938 93.9882Z" fill="#D2ECFB"/>
<path d="M224.825 92.8532C225.946 92.5528 226.02 89.1938 224.99 85.3507C223.96 81.5075 222.217 78.6356 221.096 78.936C219.974 79.2364 219.9 82.5954 220.93 86.4386C221.96 90.2817 223.703 93.1536 224.825 92.8532Z" fill="#262C35"/>
<path d="M224.115 89.8872C224.611 89.7544 224.549 87.9152 223.976 85.7791C223.404 83.643 222.538 82.019 222.043 82.1518C221.547 82.2846 221.609 84.1238 222.182 86.2599C222.754 88.3959 223.62 90.0199 224.115 89.8872Z" fill="#374A60"/>
<path d="M223.756 88.5553C223.821 88.538 223.992 88.4921 223.881 87.5811L223.726 87.6C223.815 88.3216 223.714 88.4059 223.713 88.4068C223.596 88.3896 223.172 87.6075 222.769 86.1029C222.366 84.5991 222.342 83.7103 222.442 83.6337C222.441 83.637 222.565 83.6703 222.828 84.2776L222.97 84.2157C222.663 83.5062 222.496 83.459 222.398 83.4853C221.945 83.6068 222.591 86.0398 222.619 86.1434C222.646 86.2465 223.303 88.6767 223.756 88.5553Z" fill="#262C35"/>
<path d="M21.02 65.6289C19.3674 66.0717 19.9877 66.8302 20.1752 67.2009C26.1153 78.9371 39.4818 102.63 42.1518 107.833C42.2569 108.039 42.3465 108.214 42.4195 108.356C42.5535 108.619 42.8606 108.735 43.1365 108.632L84.0194 93.9733C83.7394 92.9283 83.867 92.8978 81.8847 93.004C75.572 92.9196 68.564 89.6801 65.2346 87.5175C52.8106 79.448 37.7779 66.4808 35.7404 65.1216C33.6845 63.7416 33.1938 62.3669 28.4617 63.6349L21.02 65.6289Z" fill="#FF9E80"/>
<path d="M19.8983 66.9482C26.0934 78.5148 38.724 103.122 41.3916 108.322C41.4976 108.525 41.5834 108.702 41.6614 108.848C41.7954 109.108 42.1035 109.225 42.3778 109.119L75.203 96.8934L81.3251 94.6157C81.2883 94.4068 81.2619 94.2592 81.2421 94.1617C81.2421 94.1617 81.2465 94.1541 81.2384 94.124C81.2352 94.112 81.2304 94.0941 81.2331 94.0802C81.2267 94.0563 81.2218 94.0381 81.223 94.0186L81.2186 94.0261C81.2182 94.0006 81.2117 93.9764 81.2097 93.945C81.19 93.8474 81.1633 93.6999 81.1268 93.4909C74.8097 93.4071 67.8016 90.1682 64.4746 88.0089C52.0528 79.9388 37.018 66.9692 34.9805 65.6099C32.9246 64.23 32.4339 62.8553 27.7017 64.1233L20.2616 66.1169C20.0694 66.1684 19.927 66.3096 19.8634 66.4811C19.813 66.63 19.8128 66.7976 19.8983 66.9482Z" fill="#EA5A47"/>
<path opacity="0.51" d="M19.8993 66.9484C26.0945 78.5149 38.725 103.122 41.3927 108.322C41.4987 108.525 41.5845 108.702 41.6624 108.848C41.7965 109.108 42.1045 109.225 42.3789 109.12L79.1484 94.0962C48.5571 105.527 33.9643 90.249 19.8642 66.4813C19.8141 66.6301 19.8138 66.7977 19.8993 66.9484Z" fill="#D34744"/>
<path d="M28.9901 113.706C29.4422 115.393 30.2564 118.432 30.2564 118.432C35.0292 119.142 84.3927 124.561 122.561 114.334C160.73 104.106 243.26 80.8469 254.904 77.006C264.246 73.9171 277.23 69.2409 280.866 63.2591C280.917 63.1873 280.963 63.1172 281.005 63.035C281.069 62.9147 281.13 62.8022 281.188 62.6835C281.219 62.6301 281.243 62.5786 281.267 62.5208C281.852 61.2697 282.018 59.97 281.655 58.6128C281.363 57.5258 280.632 56.5956 279.595 55.8246C279.069 55.4247 278.458 55.067 277.794 54.7493C275.736 53.7691 273.112 53.1782 270.492 52.9599C270.328 52.946 270.157 52.9338 269.994 52.9259C265.711 49.7932 262.663 48.3125 257.007 47.4786C251.349 46.6387 240.605 48.1917 229.628 51.1331C219.767 53.7752 128.703 79.534 91.0758 90.5559C91.0655 90.565 91.0475 90.5698 91.0277 90.5688C90.1077 90.8345 89.2196 91.0984 88.3656 91.3464C86.8801 91.7832 85.5027 92.1907 84.2392 92.568C82.8618 92.9758 81.6161 93.3481 80.5209 93.6803C70.5114 96.7034 62.2284 99.5149 55.6571 101.893C49.1609 104.239 44.3451 106.18 41.1778 107.498C39.0647 108.38 37.6907 108.993 37.0438 109.269C34.4461 110.384 30.3889 112.584 28.9901 113.706Z" fill="#D7F3FF"/>
<path opacity="0.63" d="M55.6585 101.893L80.754 95.1688C116.977 85.4629 218.614 57.7272 229.171 54.8984C240.496 51.8638 245.283 57.9315 251.841 59.7785C257.424 61.3526 270.307 58.293 279.596 55.8235C279.071 55.4237 278.46 55.066 277.795 54.7483C275.737 53.768 273.114 53.1771 270.494 52.9588C270.329 52.9449 270.158 52.9327 269.995 52.9248C265.713 49.7922 262.664 48.3115 257.008 47.4776C251.351 46.6377 240.607 48.1907 229.629 51.1321C219.769 53.7742 128.705 79.533 91.0773 90.5548C91.067 90.564 91.049 90.5688 91.0292 90.5677C90.1092 90.8334 89.2211 91.0973 88.3671 91.3454C86.8816 91.7822 85.5042 92.1897 84.2407 92.567C82.8633 92.9748 81.6176 93.347 80.5224 93.6792C70.5128 96.703 62.2298 99.5146 55.6585 101.893Z" fill="white"/>
<path d="M48.0293 119.971C66.911 121.019 97.2096 121.127 122.563 114.333C160.732 104.106 243.262 80.8466 254.906 77.0058C266.548 73.159 283.86 66.8341 281.657 58.6132C281.414 57.7063 280.865 56.9073 280.083 56.2221C236.273 68.5016 79.5645 111.747 48.0293 119.971Z" fill="#74A4C6"/>
<path d="M242.685 66.285C241.541 62.6134 240.502 57.7243 240.437 53.9147C240.424 53.14 239.675 52.5932 238.929 52.8026C237.094 53.3172 235.496 53.7284 234.557 53.9638C234.021 54.0982 233.659 54.5828 233.666 55.1349C233.717 58.9752 234.648 63.8017 235.901 68.1804C236.079 68.8001 236.726 69.1576 237.348 68.9908L241.859 67.7821C242.512 67.6072 242.886 66.9293 242.685 66.285Z" fill="#D7F3FF" stroke="#74A4C6" stroke-width="0.25" stroke-miterlimit="10"/>
<path d="M78.4847 111.643C77.4975 108.47 76.6023 104.254 76.5426 100.961C76.5302 100.28 75.8641 99.8009 75.2074 99.9848C73.6405 100.424 72.2746 100.776 71.4639 100.979C70.9896 101.098 70.6682 101.527 70.6753 102.015C70.722 105.334 71.5246 109.5 72.6062 113.283C72.7629 113.831 73.3359 114.148 73.8867 114L77.7532 112.964C78.3291 112.81 78.6617 112.213 78.4847 111.643Z" fill="#D7F3FF" stroke="#74A4C6" stroke-width="0.25" stroke-miterlimit="10"/>
<path d="M260.153 51.6749L260.751 52.1265L262.241 53.2461L263.546 54.2225L264.175 54.6975L266.001 54.0664L268.117 53.3387L268.913 53.0674L264.771 50.4375L260.153 51.6749Z" fill="#3C5F96"/>
<path d="M256.902 56.9552C257.966 56.6509 259.015 56.3376 260.031 56.0205C260.787 55.7923 261.523 55.5625 262.234 55.3336C262.531 55.2412 262.822 55.1504 263.112 55.0534L262.322 54.4605L259.627 52.4277L259.03 51.9763L256.496 52.6554L256.537 53.0951L256.581 53.5725L256.779 55.6307L256.902 56.9552Z" fill="#3C5F96"/>
<path d="M260.75 52.1268L262.241 53.2464L263.545 54.2227C264.546 53.9225 265.509 53.6257 266.415 53.3314L263.753 51.3223L260.75 52.1268Z" fill="#5276AA"/>
<path d="M257.237 53.0682L258.728 54.1878L260.032 55.1642C260.824 54.9263 261.585 54.6901 262.322 54.4607L259.627 52.4279L257.237 53.0682Z" fill="#5276AA"/>
<path d="M252.191 58.2365C252.389 58.1834 252.583 58.1379 252.781 58.0848C252.931 58.0446 253.077 58.0119 253.226 57.9657C253.738 57.835 254.254 57.6965 254.763 57.5538C255.021 57.4846 255.272 57.411 255.524 57.3435L255.704 57.2952L255.628 55.3525L255.534 52.9127L254.099 53.2972C253.882 53.3552 253.686 53.4398 253.51 53.5513C253.506 53.5589 253.506 53.5589 253.5 53.5605C253.042 53.844 252.699 54.2963 252.462 54.8296C252.182 55.4646 252.056 56.2193 252.064 56.9703C252.064 57.4017 252.109 57.8338 252.191 58.2365Z" fill="#3C5F96"/>
<path opacity="0.14" d="M261.825 51.2267C263.377 52.1649 264.325 52.8901 265.998 54.067L268.113 53.3394C267.102 52.5676 265.547 51.4717 264.095 50.6184L261.825 51.2267Z" fill="#E3E9F6"/>
<path opacity="0.14" d="M256.535 53.095C257.721 54.0131 258.635 54.8302 260.029 56.0205C260.785 55.7923 261.522 55.5625 262.233 55.3336C261.237 54.4288 259.778 53.1854 258.374 52.1517L256.495 52.6553L256.535 53.095Z" fill="#E3E9F6"/>
<path d="M226.306 65.43C226.799 65.2916 227.056 64.7853 226.903 64.2952C226.772 63.8776 226.654 63.4564 226.55 63.0314C226.427 62.5336 225.945 62.2327 225.451 62.3706C224.958 62.5088 224.631 63.0347 224.753 63.5334C224.858 63.9585 224.975 64.3797 225.107 64.7972C225.26 65.2867 225.812 65.568 226.306 65.43Z" fill="#3C5F96"/>
<path d="M226.302 63.286C226.403 63.7096 226.523 64.1344 226.654 64.55C226.74 64.8232 226.698 65.0984 226.555 65.3102C226.885 65.0995 227.027 64.6946 226.902 64.297C226.769 63.8754 226.651 63.4566 226.55 63.0329C226.429 62.5313 225.942 62.2302 225.452 62.3681C225.217 62.4309 225.027 62.585 224.897 62.7741C224.988 62.7046 225.091 62.6578 225.2 62.6288C225.696 62.4895 226.175 62.786 226.302 63.286Z" fill="#2D4E7F"/>
<path d="M222.571 66.4741C223.065 66.3357 223.322 65.8293 223.169 65.3393C223.038 64.9217 222.92 64.5005 222.815 64.0754C222.693 63.5777 222.211 63.2768 221.716 63.4147C221.223 63.5529 220.897 64.0787 221.019 64.5775C221.123 65.0026 221.241 65.4238 221.372 65.8413C221.526 66.3307 222.078 66.6121 222.571 66.4741Z" fill="#3C5F96"/>
<path d="M222.568 64.3298C222.669 64.7535 222.789 65.1782 222.92 65.5938C223.006 65.8667 222.963 66.1422 222.821 66.3541C223.15 66.1434 223.293 65.7385 223.167 65.3408C223.035 64.9192 222.916 64.5005 222.816 64.0768C222.694 63.5752 222.208 63.274 221.717 63.412C221.483 63.4747 221.293 63.6288 221.163 63.8179C221.254 63.7484 221.357 63.7016 221.465 63.6726C221.962 63.5333 222.441 63.8298 222.568 64.3298Z" fill="#2D4E7F"/>
<path d="M218.84 67.5179C219.334 67.3795 219.59 66.8732 219.437 66.3831C219.306 65.9655 219.188 65.5443 219.084 65.1192C218.961 64.6216 218.479 64.3206 217.985 64.4585C217.492 64.5967 217.166 65.1226 217.288 65.6213C217.392 66.0464 217.509 66.4676 217.641 66.8851C217.794 67.3746 218.346 67.6559 218.84 67.5179Z" fill="#3C5F96"/>
<path d="M218.837 65.3737C218.937 65.7974 219.057 66.2221 219.188 66.6378C219.274 66.9106 219.232 67.1858 219.089 67.398C219.419 67.1873 219.561 66.7824 219.436 66.3847C219.303 65.9631 219.185 65.5444 219.084 65.121C218.963 64.6194 218.477 64.3182 217.986 64.4562C217.751 64.5189 217.561 64.673 217.432 64.8621C217.522 64.7926 217.626 64.7458 217.734 64.7168C218.231 64.5772 218.709 64.8737 218.837 65.3737Z" fill="#2D4E7F"/>
<path d="M215.107 68.5614C215.601 68.423 215.858 67.9167 215.704 67.4266C215.573 67.009 215.456 66.5878 215.351 66.1628C215.229 65.665 214.746 65.3641 214.252 65.502C213.759 65.6402 213.433 66.1661 213.555 66.6648C213.659 67.0899 213.777 67.5111 213.908 67.9287C214.062 68.4181 214.614 68.6994 215.107 68.5614Z" fill="#3C5F96"/>
<path d="M215.105 66.4171C215.206 66.8407 215.326 67.2655 215.457 67.6811C215.543 67.954 215.5 68.2292 215.358 68.4413C215.688 68.2307 215.83 67.8257 215.704 67.4281C215.572 67.0065 215.454 66.5877 215.353 66.1641C215.231 65.6625 214.745 65.3613 214.254 65.4993C214.02 65.562 213.83 65.7161 213.7 65.9052C213.791 65.8357 213.894 65.7889 214.002 65.7599C214.499 65.6207 214.978 65.917 215.105 66.4171Z" fill="#2D4E7F"/>
<path d="M211.374 69.6051C211.867 69.4667 212.124 68.9604 211.971 68.4703C211.84 68.0527 211.722 67.6315 211.618 67.2065C211.495 66.7087 211.013 66.4079 210.519 66.5458C210.026 66.6839 209.699 67.2098 209.822 67.7085C209.926 68.1336 210.044 68.5548 210.175 68.9724C210.328 69.4618 210.88 69.7431 211.374 69.6051Z" fill="#3C5F96"/>
<path d="M211.372 67.461C211.473 67.8846 211.593 68.3094 211.723 68.7247C211.809 68.9979 211.767 69.2731 211.624 69.4849C211.954 69.2742 212.097 68.8693 211.971 68.4716C211.839 68.0501 211.72 67.6312 211.619 67.2076C211.498 66.706 211.012 66.4049 210.521 66.5428C210.287 66.6056 210.096 66.7597 209.967 66.9488C210.058 66.8793 210.161 66.8324 210.269 66.8035C210.766 66.6645 211.244 66.961 211.372 67.461Z" fill="#2D4E7F"/>
<path d="M207.64 70.6482C208.134 70.5098 208.391 70.0035 208.238 69.5134C208.106 69.0959 207.989 68.6746 207.884 68.2496C207.762 67.7518 207.28 67.4509 206.785 67.5889C206.293 67.727 205.966 68.2529 206.088 68.7516C206.193 69.1767 206.31 69.5979 206.441 70.0155C206.595 70.5049 207.147 70.7863 207.64 70.6482Z" fill="#3C5F96"/>
<path d="M207.639 68.5044C207.74 68.928 207.86 69.3528 207.991 69.7682C208.077 70.0413 208.035 70.3165 207.892 70.5284C208.222 70.3177 208.364 69.9128 208.239 69.5151C208.106 69.0935 207.988 68.6747 207.887 68.2511C207.765 67.7495 207.279 67.4484 206.788 67.5863C206.554 67.6491 206.364 67.8032 206.234 67.9923C206.325 67.9227 206.428 67.8759 206.536 67.8469C207.033 67.708 207.512 68.0044 207.639 68.5044Z" fill="#2D4E7F"/>
<path d="M203.91 71.6926C204.404 71.5542 204.661 71.0479 204.507 70.5578C204.376 70.1402 204.258 69.7191 204.154 69.294C204.032 68.7963 203.549 68.4954 203.055 68.6333C202.562 68.7715 202.236 69.2973 202.358 69.796C202.462 70.2211 202.58 70.6423 202.711 71.0598C202.864 71.5494 203.416 71.8307 203.91 71.6926Z" fill="#3C5F96"/>
<path d="M203.907 69.5486C204.008 69.9723 204.128 70.397 204.259 70.8126C204.345 71.0855 204.302 71.3607 204.16 71.5729C204.49 71.3622 204.632 70.9573 204.506 70.5597C204.374 70.1381 204.255 69.7193 204.155 69.2957C204.033 68.794 203.547 68.4929 203.056 68.6308C202.822 68.6936 202.632 68.8477 202.502 69.0368C202.593 68.9673 202.696 68.9205 202.804 68.8915C203.301 68.7522 203.78 69.0486 203.907 69.5486Z" fill="#2D4E7F"/>
<path d="M200.177 72.7369C200.671 72.5985 200.928 72.0922 200.775 71.6022C200.644 71.1846 200.526 70.7634 200.422 70.3383C200.299 69.8407 199.817 69.5397 199.323 69.6776C198.83 69.8158 198.503 70.3416 198.626 70.8403C198.73 71.2654 198.847 71.6866 198.979 72.1041C199.132 72.5937 199.684 72.875 200.177 72.7369Z" fill="#3C5F96"/>
<path d="M200.175 70.5925C200.275 71.0162 200.396 71.4409 200.526 71.8565C200.612 72.1294 200.57 72.4046 200.427 72.6168C200.757 72.4061 200.9 72.0012 200.774 71.6036C200.641 71.182 200.523 70.7632 200.422 70.3398C200.301 69.8382 199.814 69.5371 199.324 69.675C199.089 69.7378 198.899 69.8919 198.769 70.081C198.86 70.0115 198.963 69.9647 199.072 69.9357C199.569 69.7961 200.047 70.0925 200.175 70.5925Z" fill="#2D4E7F"/>
<path d="M196.445 73.7805C196.939 73.6421 197.196 73.1358 197.042 72.6457C196.911 72.2281 196.794 71.8069 196.689 71.3819C196.567 70.8842 196.084 70.5833 195.59 70.7212C195.097 70.8593 194.771 71.3852 194.893 71.8839C194.997 72.309 195.115 72.7302 195.246 73.1477C195.399 73.6372 195.952 73.9185 196.445 73.7805Z" fill="#3C5F96"/>
<path d="M196.442 71.6362C196.543 72.0599 196.663 72.4846 196.794 72.9002C196.88 73.1731 196.838 73.4483 196.695 73.6605C197.025 73.4498 197.167 73.0449 197.041 72.6473C196.909 72.2257 196.79 71.8069 196.69 71.3835C196.568 70.8819 196.082 70.5808 195.591 70.7187C195.357 70.7815 195.167 70.9356 195.037 71.1247C195.128 71.0552 195.231 71.0084 195.339 70.9794C195.836 70.8398 196.315 71.1362 196.442 71.6362Z" fill="#2D4E7F"/>
<path d="M192.71 74.8244C193.203 74.686 193.46 74.1796 193.307 73.6895C193.176 73.272 193.058 72.8508 192.954 72.4257C192.831 71.928 192.349 71.6271 191.855 71.765C191.362 71.9032 191.035 72.429 191.158 72.9277C191.262 73.3528 191.38 73.774 191.511 74.1915C191.664 74.681 192.216 74.9623 192.71 74.8244Z" fill="#3C5F96"/>
<path d="M192.707 72.6802C192.808 73.1038 192.928 73.5286 193.059 73.9442C193.145 74.2171 193.102 74.4923 192.96 74.7044C193.289 74.4938 193.432 74.0888 193.306 73.6912C193.174 73.2697 193.055 72.8509 192.954 72.4272C192.833 71.9256 192.347 71.6245 191.856 71.7624C191.622 71.8252 191.431 71.9793 191.302 72.1684C191.393 72.0989 191.496 72.0521 191.604 72.0231C192.101 71.8838 192.579 72.1802 192.707 72.6802Z" fill="#2D4E7F"/>
<path d="M188.978 75.8677C189.472 75.7293 189.729 75.2229 189.576 74.7329C189.444 74.3153 189.327 73.8941 189.222 73.469C189.1 72.9713 188.618 72.6704 188.123 72.8083C187.63 72.9465 187.304 73.4724 187.426 73.971C187.53 74.3962 187.648 74.8173 187.78 75.2349C187.933 75.7244 188.485 76.0057 188.978 75.8677Z" fill="#3C5F96"/>
<path d="M188.976 73.7238C189.076 74.1475 189.197 74.5722 189.327 74.9876C189.413 75.2608 189.371 75.5357 189.228 75.7478C189.558 75.5371 189.701 75.1322 189.574 74.7346C189.442 74.313 189.324 73.8942 189.223 73.4706C189.101 72.969 188.615 72.6678 188.124 72.8058C187.89 72.8685 187.7 73.0226 187.57 73.2117C187.661 73.1422 187.764 73.0954 187.872 73.0664C188.37 72.9274 188.848 73.2238 188.976 73.7238Z" fill="#2D4E7F"/>
<path d="M185.244 76.9119C185.738 76.7735 185.994 76.2673 185.841 75.7771C185.71 75.3596 185.593 74.9383 185.488 74.5133C185.366 74.0156 184.883 73.7147 184.389 73.8526C183.896 73.9907 183.57 74.5166 183.692 75.0153C183.796 75.4405 183.914 75.8617 184.045 76.2792C184.199 76.7686 184.751 77.05 185.244 76.9119Z" fill="#3C5F96"/>
<path d="M185.241 74.7679C185.342 75.1916 185.462 75.6163 185.592 76.0319C185.678 76.3051 185.636 76.58 185.494 76.7922C185.823 76.5815 185.966 76.1766 185.84 75.7789C185.708 75.3573 185.589 74.9385 185.489 74.5149C185.367 74.0133 184.881 73.7122 184.39 73.8501C184.156 73.9129 183.966 74.0669 183.836 74.256C183.927 74.1865 184.03 74.1397 184.138 74.1107C184.635 73.9715 185.113 74.2679 185.241 74.7679Z" fill="#2D4E7F"/>
<path d="M181.509 77.9555C182.002 77.8171 182.259 77.3109 182.106 76.8207C181.975 76.4031 181.857 75.9819 181.753 75.5569C181.63 75.0592 181.148 74.7582 180.654 74.8961C180.161 75.0343 179.835 75.5602 179.957 76.0589C180.061 76.4841 180.178 76.9052 180.31 77.3228C180.463 77.8122 181.015 78.0935 181.509 77.9555Z" fill="#3C5F96"/>
<path d="M181.508 75.8116C181.608 76.2353 181.728 76.6601 181.859 77.0757C181.945 77.3486 181.903 77.6237 181.76 77.8359C182.09 77.6252 182.232 77.2203 182.107 76.8226C181.975 76.401 181.856 75.9822 181.755 75.5586C181.634 75.057 181.147 74.7559 180.657 74.8938C180.422 74.9566 180.232 75.1107 180.102 75.2998C180.193 75.2302 180.296 75.1834 180.405 75.1544C180.902 75.0152 181.38 75.3116 181.508 75.8116Z" fill="#2D4E7F"/>
<path d="M177.779 78.9997C178.273 78.8613 178.53 78.355 178.377 77.8649C178.246 77.4473 178.128 77.0261 178.023 76.6011C177.901 76.1034 177.419 75.8024 176.924 75.9403C176.431 76.0785 176.105 76.6044 176.227 77.1031C176.331 77.5282 176.449 77.9494 176.58 78.367C176.734 78.8564 177.286 79.1377 177.779 78.9997Z" fill="#3C5F96"/>
<path d="M177.776 76.8556C177.877 77.2792 177.997 77.704 178.128 78.1196C178.213 78.3925 178.171 78.6677 178.029 78.8798C178.358 78.6691 178.501 78.2642 178.375 77.8665C178.243 77.4449 178.124 77.0261 178.024 76.6028C177.902 76.1012 177.416 75.8001 176.925 75.938C176.691 76.0007 176.501 76.1548 176.371 76.3439C176.462 76.2744 176.565 76.2276 176.673 76.1986C177.17 76.059 177.649 76.3555 177.776 76.8556Z" fill="#2D4E7F"/>
<path d="M174.048 80.0427C174.542 79.9043 174.799 79.398 174.646 78.9079C174.514 78.4903 174.397 78.0691 174.293 77.644C174.17 77.1463 173.688 76.8453 173.194 76.9833C172.701 77.1214 172.374 77.6473 172.497 78.146C172.601 78.5711 172.718 78.9923 172.85 79.4098C173.003 79.8994 173.555 80.1807 174.048 80.0427Z" fill="#3C5F96"/>
<path d="M174.046 77.8989C174.146 78.3225 174.267 78.7473 174.397 79.1629C174.483 79.4358 174.441 79.711 174.298 79.9232C174.628 79.7125 174.771 79.3075 174.645 78.9099C174.513 78.4883 174.394 78.0695 174.293 77.6459C174.172 77.1443 173.686 76.8431 173.195 76.9811C172.96 77.0438 172.77 77.1979 172.641 77.387C172.731 77.3175 172.835 77.2707 172.943 77.2417C173.44 77.1025 173.918 77.3988 174.046 77.8989Z" fill="#2D4E7F"/>
<path d="M170.313 81.0871C170.807 80.9486 171.064 80.4423 170.911 79.9522C170.779 79.5346 170.662 79.1135 170.557 78.6884C170.435 78.1907 169.952 77.8898 169.458 78.0277C168.965 78.1659 168.639 78.6917 168.761 79.1904C168.865 79.6155 168.983 80.0367 169.115 80.4542C169.268 80.9437 169.82 81.2251 170.313 81.0871Z" fill="#3C5F96"/>
<path d="M170.31 78.943C170.411 79.3666 170.531 79.7914 170.662 80.207C170.748 80.4799 170.706 80.7551 170.563 80.9672C170.893 80.7565 171.035 80.3516 170.909 79.9539C170.777 79.5324 170.659 79.1135 170.558 78.6899C170.436 78.1883 169.95 77.8872 169.459 78.0251C169.225 78.0879 169.035 78.242 168.905 78.4311C168.996 78.3616 169.099 78.3147 169.207 78.2858C169.704 78.1465 170.183 78.443 170.31 78.943Z" fill="#2D4E7F"/>
<path d="M166.581 82.131C167.075 81.9926 167.332 81.4863 167.178 80.9962C167.047 80.5786 166.93 80.1575 166.825 79.7324C166.703 79.2347 166.22 78.9338 165.726 79.0717C165.233 79.2099 164.907 79.7357 165.029 80.2345C165.133 80.6596 165.251 81.0808 165.382 81.4983C165.536 81.9877 166.087 82.2691 166.581 82.131Z" fill="#3C5F96"/>
<path d="M166.578 79.9871C166.679 80.4107 166.799 80.8355 166.929 81.2508C167.015 81.524 166.973 81.7989 166.83 82.011C167.16 81.8003 167.303 81.3954 167.177 80.9978C167.045 80.5762 166.926 80.1574 166.826 79.7338C166.704 79.2321 166.218 78.931 165.727 79.069C165.493 79.1317 165.302 79.2858 165.173 79.4749C165.264 79.4054 165.367 79.3586 165.475 79.3296C165.972 79.1906 166.45 79.4871 166.578 79.9871Z" fill="#2D4E7F"/>
<path d="M162.848 83.1755C163.341 83.0371 163.598 82.5307 163.445 82.0407C163.314 81.6232 163.196 81.2019 163.092 80.7768C162.969 80.2791 162.487 79.9782 161.993 80.1161C161.5 80.2543 161.173 80.7802 161.295 81.2789C161.4 81.704 161.517 82.1252 161.649 82.5427C161.802 83.0322 162.354 83.3135 162.848 83.1755Z" fill="#3C5F96"/>
<path d="M162.843 81.0312C162.944 81.4549 163.064 81.8796 163.195 82.2953C163.281 82.5684 163.239 82.8434 163.096 83.0555C163.426 82.8448 163.568 82.4399 163.443 82.0422C163.31 81.6206 163.192 81.2018 163.091 80.7782C162.969 80.2766 162.483 79.9755 161.993 80.1134C161.758 80.1762 161.568 80.3303 161.438 80.5194C161.529 80.4498 161.632 80.403 161.741 80.374C162.237 80.2348 162.716 80.5312 162.843 81.0312Z" fill="#2D4E7F"/>
<path d="M159.116 84.2184C159.61 84.08 159.867 83.5737 159.714 83.0836C159.582 82.666 159.465 82.2446 159.36 81.8198C159.238 81.3221 158.755 81.0212 158.261 81.1591C157.768 81.2973 157.442 81.8231 157.564 82.3219C157.668 82.747 157.786 83.1682 157.917 83.5857C158.07 84.0752 158.623 84.3565 159.116 84.2184Z" fill="#3C5F96"/>
<path d="M159.114 82.0745C159.215 82.4981 159.335 82.9229 159.465 83.3385C159.551 83.6114 159.509 83.8866 159.367 84.0987C159.696 83.888 159.839 83.4831 159.713 83.0854C159.581 82.6638 159.462 82.245 159.362 81.8214C159.24 81.3198 158.754 81.0187 158.263 81.1566C158.029 81.2194 157.839 81.3735 157.709 81.5626C157.8 81.4931 157.903 81.4462 158.011 81.4173C158.508 81.278 158.986 81.5745 159.114 82.0745Z" fill="#2D4E7F"/>
<path d="M155.38 85.2624C155.874 85.124 156.131 84.6177 155.977 84.1276C155.846 83.71 155.728 83.2885 155.624 82.8637C155.501 82.3661 155.019 82.0651 154.525 82.203C154.032 82.3412 153.706 82.8671 153.828 83.3658C153.932 83.7909 154.05 84.2121 154.181 84.6296C154.334 85.1191 154.887 85.4003 155.38 85.2624Z" fill="#3C5F96"/>
<path d="M155.378 83.1186C155.478 83.5422 155.598 83.967 155.729 84.3826C155.815 84.6555 155.773 84.9307 155.63 85.1428C155.96 84.9321 156.103 84.5272 155.977 84.1296C155.845 83.708 155.726 83.2892 155.625 82.8658C155.504 82.3642 155.018 82.0631 154.527 82.201C154.293 82.2638 154.102 82.4179 153.973 82.607C154.063 82.5375 154.167 82.4907 154.275 82.4617C154.772 82.3221 155.25 82.6186 155.378 83.1186Z" fill="#2D4E7F"/>
<path d="M151.651 86.3065C152.145 86.1681 152.402 85.6618 152.248 85.1717C152.117 84.7541 152 84.3327 151.895 83.9079C151.773 83.4102 151.29 83.1093 150.796 83.2472C150.303 83.3853 149.977 83.9112 150.099 84.4099C150.203 84.835 150.321 85.2565 150.452 85.6737C150.606 86.1632 151.158 86.4445 151.651 86.3065Z" fill="#3C5F96"/>
<path d="M151.647 84.1625C151.748 84.5861 151.868 85.0109 151.999 85.4265C152.085 85.6994 152.042 85.9746 151.9 86.1867C152.23 85.976 152.372 85.5711 152.246 85.1734C152.114 84.7518 151.996 84.333 151.895 83.9094C151.773 83.4078 151.287 83.1067 150.796 83.2446C150.562 83.3074 150.372 83.4615 150.242 83.6506C150.333 83.5811 150.436 83.5342 150.544 83.5052C151.041 83.366 151.52 83.6625 151.647 84.1625Z" fill="#2D4E7F"/>
<path d="M147.918 87.3499C148.411 87.2115 148.668 86.7051 148.515 86.2151C148.384 85.7975 148.266 85.376 148.162 84.9512C148.039 84.4535 147.557 84.1526 147.063 84.2905C146.57 84.4287 146.243 84.9545 146.366 85.4532C146.47 85.8783 146.588 86.2998 146.719 86.717C146.872 87.2065 147.424 87.4878 147.918 87.3499Z" fill="#3C5F96"/>
<path d="M147.915 85.2062C148.016 85.6298 148.136 86.0546 148.266 86.4699C148.352 86.7431 148.31 87.018 148.167 87.2302C148.497 87.0195 148.64 86.6146 148.514 86.2169C148.382 85.7953 148.263 85.3765 148.162 84.9529C148.041 84.4513 147.555 84.1501 147.064 84.2881C146.83 84.3508 146.639 84.5049 146.51 84.694C146.601 84.6245 146.704 84.5777 146.812 84.5487C147.309 84.4097 147.787 84.7062 147.915 85.2062Z" fill="#2D4E7F"/>
<path d="M144.184 88.394C144.678 88.2556 144.935 87.7493 144.782 87.2592C144.651 86.8417 144.533 86.4201 144.429 85.9953C144.306 85.4976 143.824 85.1967 143.33 85.3346C142.837 85.4728 142.51 85.9987 142.632 86.4974C142.736 86.9225 142.854 87.3437 142.986 87.7612C143.139 88.2507 143.691 88.532 144.184 88.394Z" fill="#3C5F96"/>
<path d="M144.182 86.2499C144.283 86.6735 144.403 87.0983 144.534 87.5136C144.62 87.7868 144.578 88.0617 144.435 88.2739C144.765 88.0632 144.907 87.6583 144.781 87.2606C144.649 86.839 144.53 86.4203 144.43 85.9966C144.308 85.495 143.822 85.1938 143.331 85.3318C143.097 85.3945 142.907 85.5486 142.777 85.7377C142.868 85.6682 142.971 85.6214 143.079 85.5924C143.576 85.4535 144.055 85.7499 144.182 86.2499Z" fill="#2D4E7F"/>
<path d="M140.452 89.438C140.946 89.2996 141.203 88.7933 141.049 88.3033C140.918 87.8857 140.801 87.4645 140.696 87.0394C140.574 86.5417 140.091 86.2408 139.597 86.3787C139.104 86.5169 138.778 87.0427 138.9 87.5415C139.004 87.9666 139.122 88.3878 139.253 88.8053C139.407 89.2947 139.959 89.5761 140.452 89.438Z" fill="#3C5F96"/>
<path d="M140.45 87.2937C140.551 87.7173 140.671 88.1421 140.801 88.5577C140.887 88.8306 140.845 89.1058 140.702 89.3179C141.032 89.1072 141.175 88.7023 141.049 88.3047C140.917 87.8831 140.798 87.4643 140.698 87.0406C140.576 86.539 140.09 86.2379 139.599 86.3758C139.365 86.4386 139.174 86.5927 139.045 86.7818C139.136 86.7123 139.239 86.6655 139.347 86.6365C139.844 86.4973 140.322 86.7937 140.45 87.2937Z" fill="#2D4E7F"/>
<path d="M136.717 90.4821C137.21 90.3437 137.467 89.8374 137.314 89.3473C137.183 88.9297 137.065 88.5082 136.961 88.0835C136.839 87.5857 136.356 87.2848 135.862 87.4228C135.369 87.5609 135.043 88.0868 135.165 88.5855C135.269 89.0107 135.387 89.4321 135.518 89.8494C135.671 90.3388 136.223 90.6201 136.717 90.4821Z" fill="#3C5F96"/>
<path d="M136.714 88.3375C136.815 88.7611 136.935 89.1859 137.066 89.6015C137.152 89.8744 137.11 90.1496 136.967 90.3617C137.297 90.151 137.439 89.7461 137.314 89.3484C137.181 88.9269 137.063 88.5081 136.962 88.0847C136.841 87.5831 136.354 87.282 135.864 87.4199C135.629 87.4827 135.439 87.6368 135.31 87.8259C135.4 87.7564 135.503 87.7095 135.612 87.6805C136.108 87.541 136.587 87.8375 136.714 88.3375Z" fill="#2D4E7F"/>
<path d="M132.984 91.5261C133.478 91.3877 133.735 90.8813 133.582 90.3913C133.451 89.9737 133.333 89.5522 133.228 89.1274C133.106 88.6298 132.624 88.3288 132.129 88.4667C131.637 88.6049 131.31 89.1307 131.432 89.6295C131.536 90.0546 131.654 90.4761 131.785 90.8933C131.939 91.3827 132.491 91.6641 132.984 91.5261Z" fill="#3C5F96"/>
<path d="M132.982 89.3814C133.083 89.805 133.203 90.2298 133.334 90.6454C133.42 90.9183 133.377 91.1935 133.235 91.4057C133.564 91.195 133.707 90.7901 133.581 90.3924C133.449 89.9708 133.33 89.552 133.23 89.1286C133.108 88.627 132.622 88.3259 132.131 88.4639C131.897 88.5266 131.707 88.6807 131.577 88.8698C131.668 88.8003 131.771 88.7535 131.879 88.7245C132.376 88.5849 132.855 88.8813 132.982 89.3814Z" fill="#2D4E7F"/>
<path d="M129.254 92.5692C129.747 92.4308 130.004 91.9245 129.851 91.4344C129.72 91.0168 129.602 90.5954 129.498 90.1706C129.375 89.6729 128.893 89.372 128.399 89.5099C127.906 89.648 127.579 90.1739 127.702 90.6726C127.806 91.0977 127.924 91.5192 128.055 91.9364C128.208 92.4259 128.76 92.7073 129.254 92.5692Z" fill="#3C5F96"/>
<path d="M129.251 90.4252C129.351 90.8488 129.472 91.2736 129.602 91.6892C129.688 91.9621 129.646 92.2373 129.503 92.4494C129.833 92.2387 129.976 91.8338 129.85 91.4361C129.718 91.0145 129.599 90.5957 129.498 90.1721C129.377 89.6705 128.891 89.3694 128.4 89.5073C128.166 89.5701 127.975 89.7242 127.846 89.9133C127.937 89.8438 128.04 89.7969 128.148 89.7679C128.645 89.6286 129.123 89.9251 129.251 90.4252Z" fill="#2D4E7F"/>
<path d="M125.519 93.6132C126.013 93.4748 126.27 92.9684 126.117 92.4784C125.985 92.0608 125.868 91.6393 125.763 91.2145C125.641 90.7168 125.159 90.4159 124.664 90.5538C124.171 90.692 123.845 91.2178 123.967 91.7165C124.071 92.1416 124.189 92.5628 124.321 92.9804C124.474 93.4698 125.026 93.7512 125.519 93.6132Z" fill="#3C5F96"/>
<path d="M125.517 91.4688C125.618 91.8924 125.738 92.3172 125.869 92.7325C125.955 93.0057 125.913 93.2806 125.77 93.4927C126.1 93.282 126.242 92.8771 126.116 92.4795C125.984 92.0579 125.866 91.6391 125.765 91.2155C125.643 90.7138 125.157 90.4127 124.666 90.5506C124.432 90.6134 124.242 90.7675 124.112 90.9566C124.203 90.8871 124.306 90.8403 124.414 90.8113C124.912 90.6723 125.39 90.9687 125.517 91.4688Z" fill="#2D4E7F"/>
<path d="M121.788 94.657C122.281 94.5186 122.538 94.0123 122.385 93.5222C122.254 93.1047 122.136 92.6831 122.032 92.2584C121.909 91.7606 121.427 91.4597 120.933 91.5976C120.44 91.7358 120.114 92.2617 120.236 92.7603C120.34 93.1855 120.458 93.6067 120.589 94.0242C120.742 94.5137 121.294 94.795 121.788 94.657Z" fill="#3C5F96"/>
<path d="M121.786 92.5126C121.887 92.9362 122.007 93.361 122.137 93.7766C122.223 94.0498 122.181 94.3247 122.038 94.5368C122.368 94.3261 122.511 93.9212 122.385 93.5235C122.253 93.1019 122.134 92.6831 122.033 92.2595C121.912 91.7579 121.426 91.4568 120.935 91.5947C120.701 91.6575 120.51 91.8116 120.381 92.0007C120.472 91.9312 120.575 91.8843 120.683 91.8554C121.18 91.7161 121.658 92.0126 121.786 92.5126Z" fill="#2D4E7F"/>
<path d="M118.054 95.7008C118.548 95.5624 118.805 95.0561 118.652 94.566C118.521 94.1484 118.403 93.7272 118.298 93.3022C118.176 92.8044 117.694 92.5035 117.2 92.6415C116.707 92.7796 116.38 93.3055 116.502 93.8042C116.607 94.2293 116.724 94.6505 116.856 95.068C117.009 95.5575 117.561 95.8389 118.054 95.7008Z" fill="#3C5F96"/>
<path d="M118.053 93.5563C118.153 93.9799 118.274 94.4047 118.404 94.8203C118.49 95.0932 118.448 95.3684 118.305 95.5805C118.635 95.3699 118.778 94.9649 118.652 94.5673C118.519 94.1458 118.401 93.7269 118.3 93.3033C118.179 92.8017 117.692 92.5006 117.202 92.6385C116.967 92.7013 116.777 92.8554 116.647 93.0445C116.738 92.975 116.841 92.9282 116.95 92.8992C117.447 92.7599 117.925 93.0563 118.053 93.5563Z" fill="#2D4E7F"/>
<path d="M114.323 96.7446C114.817 96.6062 115.074 96.0999 114.92 95.6098C114.789 95.1922 114.671 94.7708 114.567 94.346C114.444 93.8483 113.962 93.5474 113.468 93.6853C112.975 93.8235 112.649 94.3493 112.771 94.848C112.875 95.2731 112.993 95.6946 113.124 96.1118C113.277 96.6014 113.829 96.8827 114.323 96.7446Z" fill="#3C5F96"/>
<path d="M114.321 94.6C114.422 95.0236 114.542 95.4484 114.673 95.864C114.759 96.1369 114.716 96.4121 114.574 96.6242C114.904 96.4135 115.046 96.0086 114.92 95.611C114.788 95.1894 114.669 94.7706 114.569 94.3473C114.447 93.8457 113.961 93.5446 113.47 93.6825C113.236 93.7452 113.046 93.8993 112.916 94.0884C113.007 94.0189 113.11 93.9721 113.218 93.9431C113.715 93.8035 114.194 94.1 114.321 94.6Z" fill="#2D4E7F"/>
<path d="M110.59 97.788C111.084 97.6496 111.341 97.1432 111.188 96.6532C111.057 96.2356 110.939 95.8141 110.835 95.3893C110.712 94.8916 110.23 94.5907 109.736 94.7286C109.243 94.8668 108.916 95.3927 109.039 95.8913C109.143 96.3165 109.261 96.7379 109.392 97.1552C109.545 97.6447 110.097 97.9259 110.59 97.788Z" fill="#3C5F96"/>
<path d="M110.589 95.6438C110.689 96.0674 110.81 96.4922 110.94 96.9078C111.026 97.1807 110.984 97.4559 110.841 97.668C111.171 97.4573 111.314 97.0524 111.188 96.6547C111.056 96.2332 110.937 95.8144 110.836 95.3907C110.715 94.8891 110.228 94.588 109.738 94.7259C109.503 94.7887 109.313 94.9428 109.184 95.1319C109.274 95.0624 109.378 95.0156 109.486 94.9866C109.983 94.8473 110.461 95.1438 110.589 95.6438Z" fill="#2D4E7F"/>
<path d="M106.858 98.8322C107.352 98.6938 107.609 98.1874 107.455 97.6974C107.324 97.2798 107.207 96.8583 107.102 96.4335C106.98 95.9358 106.497 95.6349 106.003 95.7728C105.51 95.911 105.184 96.4368 105.306 96.9355C105.41 97.3606 105.528 97.7821 105.659 98.1993C105.813 98.6888 106.365 98.9701 106.858 98.8322Z" fill="#3C5F96"/>
<path d="M106.857 96.6874C106.958 97.111 107.078 97.5358 107.209 97.9514C107.295 98.2243 107.253 98.4995 107.11 98.7117C107.44 98.501 107.582 98.0961 107.456 97.6985C107.324 97.2769 107.205 96.8581 107.105 96.4344C106.983 95.9328 106.497 95.6317 106.006 95.7696C105.772 95.8324 105.582 95.9865 105.452 96.1756C105.543 96.1061 105.646 96.0593 105.754 96.0303C106.251 95.891 106.73 96.1874 106.857 96.6874Z" fill="#2D4E7F"/>
<path d="M103.126 99.8754C103.62 99.737 103.877 99.2307 103.723 98.7406C103.592 98.323 103.474 97.9016 103.37 97.4768C103.248 96.979 102.765 96.6782 102.271 96.8161C101.778 96.9542 101.452 97.4801 101.574 97.9788C101.678 98.404 101.796 98.8252 101.927 99.2427C102.08 99.7321 102.633 100.013 103.126 99.8754Z" fill="#3C5F96"/>
<path d="M103.125 97.7309C103.226 98.1545 103.346 98.5793 103.477 98.9947C103.563 99.2678 103.52 99.5427 103.378 99.7549C103.707 99.5442 103.85 99.1393 103.724 98.7417C103.592 98.3201 103.473 97.9013 103.372 97.4777C103.251 96.9761 102.765 96.6749 102.274 96.8129C102.04 96.8756 101.849 97.0297 101.72 97.2188C101.811 97.1493 101.914 97.1025 102.022 97.0735C102.519 96.9345 102.998 97.2309 103.125 97.7309Z" fill="#2D4E7F"/>
<path d="M99.3935 100.919C99.8872 100.781 100.144 100.275 99.9909 99.7844C99.8595 99.3669 99.7421 98.9457 99.6376 98.5206C99.5153 98.0229 99.0328 97.722 98.5386 97.8599C98.0457 97.9981 97.7193 98.5239 97.8413 99.0227C97.9455 99.4478 98.0632 99.869 98.1946 100.287C98.348 100.776 98.9002 101.057 99.3935 100.919Z" fill="#3C5F96"/>
<path d="M99.3923 98.7748C99.493 99.1984 99.6133 99.6232 99.7438 100.039C99.8298 100.312 99.7876 100.587 99.6448 100.799C99.9746 100.588 100.117 100.183 99.9914 99.7855C99.8592 99.3639 99.7406 98.9451 99.6399 98.5215C99.5183 98.0199 99.0322 97.7188 98.5414 97.8567C98.3071 97.9194 98.1169 98.0735 97.9872 98.2626C98.0781 98.1931 98.1812 98.1463 98.2894 98.1173C98.7863 97.9784 99.2648 98.2748 99.3923 98.7748Z" fill="#2D4E7F"/>
<path d="M95.6611 101.963C96.1548 101.824 96.4118 101.318 96.2585 100.828C96.1274 100.41 96.0096 99.9888 95.9052 99.5641C95.7828 99.0663 95.3004 98.7654 94.8062 98.9033C94.3133 99.0415 93.9869 99.5674 94.1089 100.066C94.2131 100.491 94.3309 100.913 94.4622 101.33C94.6156 101.819 95.1675 102.101 95.6611 101.963Z" fill="#3C5F96"/>
<path d="M95.659 99.8184C95.7597 100.242 95.8799 100.667 96.0104 101.082C96.0964 101.355 96.0542 101.63 95.9115 101.842C96.2412 101.632 96.3838 101.227 96.2581 100.829C96.1259 100.407 96.0072 99.9887 95.9066 99.565C95.785 99.0634 95.2988 98.7623 94.808 98.9002C94.5738 98.963 94.3835 99.1171 94.2538 99.3062C94.3447 99.2367 94.4478 99.1899 94.556 99.1609C95.0529 99.0219 95.5314 99.3184 95.659 99.8184Z" fill="#2D4E7F"/>
<path d="M91.9277 103.007C92.4214 102.868 92.6784 102.362 92.5251 101.872C92.394 101.454 92.2762 101.033 92.1718 100.608C92.0491 100.11 91.567 99.8093 91.0728 99.9472C90.5799 100.085 90.2535 100.611 90.3755 101.11C90.4797 101.535 90.5975 101.957 90.7288 102.374C90.8822 102.863 91.4341 103.145 91.9277 103.007Z" fill="#3C5F96"/>
<path d="M91.9245 100.863C92.0252 101.286 92.1454 101.711 92.2759 102.126C92.362 102.4 92.3197 102.674 92.177 102.887C92.5068 102.676 92.6494 102.271 92.5236 101.873C92.3914 101.452 92.2728 101.033 92.1722 100.61C92.0506 100.108 91.5644 99.8069 91.0736 99.9448C90.8394 100.008 90.6491 100.162 90.5195 100.351C90.6104 100.281 90.7134 100.234 90.8216 100.205C91.3185 100.066 91.797 100.363 91.9245 100.863Z" fill="#2D4E7F"/>
<path d="M88.1959 104.051C88.6897 103.912 88.9466 103.406 88.7934 102.916C88.6622 102.498 88.5444 102.077 88.4401 101.652C88.3177 101.154 87.8353 100.853 87.3411 100.991C86.8482 101.129 86.5217 101.655 86.6441 102.154C86.7482 102.579 86.866 103 86.9973 103.418C87.1505 103.907 87.7024 104.189 88.1959 104.051Z" fill="#3C5F96"/>
<path d="M88.1944 101.906C88.2951 102.329 88.4153 102.754 88.5458 103.169C88.6318 103.443 88.5897 103.718 88.4469 103.93C88.7767 103.719 88.9192 103.314 88.7932 102.916C88.661 102.495 88.5424 102.076 88.4417 101.652C88.3201 101.151 87.834 100.85 87.3431 100.988C87.1089 101.05 86.9186 101.205 86.789 101.394C86.8799 101.324 86.9829 101.277 87.0911 101.248C87.5883 101.109 88.0668 101.406 88.1944 101.906Z" fill="#2D4E7F"/>
<path d="M84.4625 105.094C84.9563 104.956 85.2132 104.449 85.06 103.959C84.9288 103.542 84.811 103.12 84.7067 102.695C84.5843 102.198 84.1019 101.897 83.6077 102.035C83.1148 102.173 82.7883 102.699 82.9107 103.197C83.0148 103.623 83.1326 104.044 83.2639 104.461C83.4171 104.951 83.969 105.232 84.4625 105.094Z" fill="#3C5F96"/>
<path d="M84.4597 102.95C84.5604 103.374 84.6806 103.799 84.8112 104.214C84.8972 104.487 84.855 104.763 84.7122 104.974C85.042 104.764 85.1845 104.359 85.0588 103.961C84.9266 103.54 84.808 103.121 84.7073 102.697C84.5857 102.196 84.0996 101.894 83.6088 102.032C83.3745 102.095 83.1843 102.249 83.0546 102.438C83.1455 102.369 83.2486 102.322 83.3567 102.293C83.8536 102.154 84.3321 102.45 84.4597 102.95Z" fill="#2D4E7F"/>
<path d="M188.078 85.1732C191.495 83.3022 195.92 81.1633 196.113 82.5206C196.282 83.7092 196.473 86.4868 193.334 87.659L174.854 94.5578L88.8877 109.116L188.078 85.1732Z" fill="#3C5F96"/>
<path d="M89.4907 108.075L186.161 81.9425C194.967 79.5829 195.672 80.9217 196.09 82.3479C196.244 82.8722 195.732 83.3639 192.097 84.2034L88.8878 109.117L89.4907 108.075Z" fill="#EFF8FD"/>
<path d="M12.6932 118.632C12.6948 118.638 12.7282 118.642 12.7852 118.639C12.7852 118.639 12.7927 118.644 12.7987 118.642C14.757 118.6 43.6308 114.616 48.118 113.49C52.6232 112.361 58.5733 110.715 58.2129 108.385C58.2056 108.31 58.1922 108.236 58.1669 108.165C57.5696 106.272 29.5115 114.022 26.8503 114.684C24.1835 115.347 12.7327 118.371 12.6932 118.632Z" fill="#EA5A47"/>
<path opacity="0.61" d="M12.6932 118.632C12.6948 118.638 12.7282 118.642 12.7852 118.639C12.7852 118.639 12.7927 118.644 12.7987 118.642C27.6271 114.868 51.775 109.196 58.2129 108.385C58.2056 108.31 58.1922 108.236 58.1669 108.165C57.5696 106.272 29.5115 114.022 26.8503 114.684C24.1835 115.347 12.7327 118.371 12.6932 118.632Z" fill="#FF9E80"/>
<path d="M162.223 102.135C163.076 105.318 164.821 107.675 166.326 107.813L166.855 107.89C171.274 108.528 185.249 105.22 189.678 103.422L188.161 97.5213L185.612 87.5975C181.309 88.6669 166.517 93.4413 163.362 94.8532L163.133 94.9852C163.111 94.9976 163.088 95.0101 163.066 95.0224C161.718 95.7565 161.338 98.8318 162.223 102.135Z" fill="#EA5A47"/>
<path d="M162.224 102.135C163.076 105.318 164.822 107.675 166.326 107.813L166.855 107.89C171.274 108.528 185.249 105.22 189.678 103.422L188.161 97.5212C187.125 97.136 186.526 96.9168 186.526 96.9168L166.092 102.392C164.318 102.867 161.46 98.3942 163.066 95.0221C161.718 95.7565 161.339 98.8317 162.224 102.135Z" fill="#D34744"/>
<path d="M189.665 103.439C191.158 103.039 191.421 99.1782 190.252 94.8154C189.083 90.4526 186.925 87.2401 185.431 87.6403C183.938 88.0404 183.675 91.9015 184.844 96.2643C186.013 100.627 188.171 103.84 189.665 103.439Z" fill="#D2ECFB"/>
<path d="M189.552 102.304C190.673 102.004 190.747 98.6448 189.718 94.8017C188.688 90.9586 186.944 88.0867 185.823 88.3871C184.702 88.6875 184.628 92.0465 185.658 95.8896C186.687 99.7327 188.431 102.605 189.552 102.304Z" fill="#262C35"/>
<path d="M186.907 95.7116C187.48 97.8476 188.345 99.4717 188.841 99.3389C189.336 99.2061 189.274 97.3671 188.702 95.2308C188.129 93.0946 187.264 91.4711 186.768 91.6038C186.273 91.7366 186.335 93.5754 186.907 95.7116Z" fill="#374A60"/>
<path d="M188.485 98.006C188.549 97.9887 188.72 97.9429 188.609 97.0319L188.455 97.0507C188.543 97.7723 188.442 97.8566 188.441 97.8575C188.324 97.8404 187.9 97.0582 187.497 95.5536C187.094 94.0499 187.07 93.161 187.17 93.0845C187.169 93.0877 187.293 93.1211 187.557 93.7283L187.699 93.6664C187.391 92.9569 187.225 92.9097 187.127 92.936C186.673 93.0575 187.32 95.4905 187.347 95.5941C187.375 95.6972 188.031 98.1275 188.485 98.006Z" fill="#262C35"/>
</svg>
