<svg width="50" height="50" viewBox="0 0 50 50" fill="none" xmlns="http://www.w3.org/2000/svg">
<path d="M44.0366 24.5889L44.0406 25.9594L45.2805 26.6798L45.2765 25.3092L44.7429 24.9982L44.5823 24.9059L44.0366 24.5889Z" fill="#EFAC41"/>
<path d="M45.2749 25.3101L45.28 26.6789L46.5274 25.958L46.5233 24.5904V24.5884H46.5213L45.9801 24.9021L45.8571 24.9738L45.8202 24.9943L45.2749 25.3101Z" fill="#F9BB4A"/>
<path d="M44.0356 24.5901L45.2754 25.3105L45.8204 24.995L45.9782 24.9057L45.9814 24.9041L46.5232 24.5901L45.2834 23.8698L44.0356 24.5901Z" fill="#FED57A"/>
<path d="M44.5801 24.2746L45.8199 24.9949L45.9776 24.9057L45.9808 24.9041L44.7378 24.1837L44.7362 24.1853L44.5801 24.2746Z" fill="#E4E8F4"/>
<path d="M45.9818 25.2304L45.8213 25.3247L45.8193 24.9982V24.9942L45.8554 24.9742L45.9798 24.9039V24.9059L45.9818 25.2304Z" fill="#D4DAE8"/>
<path d="M45.4512 26.0974L45.4918 26.1747L45.4667 26.1893L45.4111 26.2211L45.4512 26.0974Z" fill="#3F434F"/>
<path d="M45.4664 26.1893L45.4668 26.3422L45.4365 26.3598L45.436 26.2068L45.4664 26.1893Z" fill="#3F434F"/>
<path d="M45.6173 26.269L45.6174 26.3018L45.4078 26.4228L45.4077 26.3901L45.6173 26.269Z" fill="#3F434F"/>
<path d="M46.0002 25.7894L46.0005 25.8983C46.0006 25.9328 45.9807 25.9727 45.9543 25.993L45.9546 26.0912C45.9731 26.0827 45.9871 26.0835 45.9871 26.0938L45.9054 26.1409C45.9054 26.1307 45.9193 26.1138 45.9378 26.1009L45.9375 26.0027C45.9254 26.0075 45.915 26.0064 45.9069 26.0013C45.8973 25.9941 45.891 25.9807 45.8909 25.9616L45.8906 25.8526L46.0002 25.7894Z" fill="#3F434F"/>
<path d="M45.588 26.1191L45.5884 26.2721L45.5581 26.2896L45.5576 26.1367L45.588 26.1191Z" fill="#3F434F"/>
<path d="M45.5728 26.0272L45.6132 26.1046L45.588 26.1191L45.5327 26.1508L45.5728 26.0272Z" fill="#3F434F"/>
<path d="M45.778 26.2458C45.7723 26.2426 45.7689 26.2362 45.7689 26.228L45.7681 25.9008C45.7679 25.8865 45.7781 25.8689 45.7906 25.8616L46.0749 25.6975C46.0818 25.6936 46.0887 25.6931 46.0943 25.6962C46.0999 25.6994 46.1031 25.706 46.1031 25.7142L46.1041 26.0415C46.1041 26.0558 46.0942 26.0733 46.082 26.0804L45.7978 26.2445C45.7938 26.2467 45.7898 26.2479 45.7861 26.2479C45.7832 26.2479 45.7804 26.2472 45.778 26.2458ZM46.081 25.7079L45.7967 25.872C45.7879 25.8771 45.78 25.8908 45.78 25.9008L45.7809 26.228C45.781 26.2317 45.7821 26.2343 45.7838 26.2354C45.7857 26.2362 45.7884 26.236 45.7917 26.2341L46.076 26.07C46.0846 26.065 46.0921 26.0517 46.0921 26.0415L46.0912 25.7142C46.0912 25.7105 46.0901 25.7077 46.0883 25.7066C46.0877 25.7063 46.087 25.7061 46.0863 25.7061C46.0848 25.7061 46.0829 25.7067 46.081 25.7079Z" fill="#3F434F"/>
<path d="M45.3543 26.49C45.3487 26.4868 45.3456 26.4803 45.3456 26.4724L45.3447 26.1451C45.3445 26.1307 45.3547 26.1131 45.3673 26.1059L45.6516 25.9417C45.6584 25.9377 45.6653 25.9372 45.671 25.9406C45.6766 25.9438 45.6798 25.9504 45.6798 25.9585L45.6807 26.2858C45.6807 26.3004 45.6711 26.3176 45.6586 26.3247L45.3743 26.4889C45.3705 26.4911 45.3665 26.4922 45.3628 26.4922C45.3597 26.4922 45.3569 26.4915 45.3543 26.49ZM45.6576 25.9521L45.3733 26.1163C45.3645 26.1214 45.3567 26.135 45.3567 26.1451L45.3576 26.4724C45.3576 26.4759 45.3586 26.4786 45.3604 26.4796C45.3623 26.4805 45.3652 26.4802 45.3683 26.4785L45.6525 26.3143C45.6612 26.3094 45.6688 26.296 45.6688 26.2858L45.6678 25.9585C45.6678 25.9548 45.6667 25.952 45.665 25.9509C45.6644 25.9507 45.6636 25.9505 45.6628 25.9505C45.6614 25.9505 45.6596 25.951 45.6576 25.9521Z" fill="#3F434F"/>
<path d="M42.5645 25.4402L42.5685 26.8107L43.8084 27.5311L43.8044 26.1606L43.2707 25.8495L43.1102 25.7572L42.5645 25.4402Z" fill="#EFAC41"/>
<path d="M43.8027 26.1614L43.8078 27.5302L45.0553 26.8093L45.0512 25.4417V25.4397H45.0491L44.5079 25.7534L44.3849 25.8252L44.348 25.8457L43.8027 26.1614Z" fill="#F9BB4A"/>
<path d="M42.5635 25.4415L43.8033 26.1619L44.3482 25.8463L44.506 25.757L44.5092 25.7554L45.051 25.4415L43.8112 24.7211L42.5635 25.4415Z" fill="#FED57A"/>
<path d="M43.1079 25.1259L44.3477 25.8463L44.5055 25.757L44.5086 25.7554L43.2657 25.035L43.2641 25.0366L43.1079 25.1259Z" fill="#E4E8F4"/>
<path d="M44.5097 26.0817L44.3492 26.176L44.3472 25.8496V25.8455L44.3833 25.8255L44.5077 25.7552V25.7573L44.5097 26.0817Z" fill="#D4DAE8"/>
<path d="M43.979 26.9487L44.0197 27.026L43.9945 27.0406L43.939 27.0724L43.979 26.9487Z" fill="#3F434F"/>
<path d="M43.9942 27.0406L43.9947 27.1935L43.9643 27.2111L43.9639 27.0581L43.9942 27.0406Z" fill="#3F434F"/>
<path d="M44.1452 27.1204L44.1453 27.1531L43.9356 27.2741L43.9355 27.2414L44.1452 27.1204Z" fill="#3F434F"/>
<path d="M44.528 26.6407L44.5284 26.7497C44.5285 26.7841 44.5086 26.824 44.4822 26.8443L44.4825 26.9425C44.501 26.934 44.5149 26.9348 44.515 26.9451L44.4332 26.9923C44.4332 26.982 44.4471 26.9651 44.4656 26.9523L44.4653 26.854C44.4533 26.8589 44.4428 26.8577 44.4347 26.8526C44.4251 26.8454 44.4188 26.8321 44.4188 26.8129L44.4185 26.704L44.528 26.6407Z" fill="#3F434F"/>
<path d="M44.1158 26.9705L44.1162 27.1234L44.0859 27.1409L44.0854 26.988L44.1158 26.9705Z" fill="#3F434F"/>
<path d="M44.1006 26.8785L44.141 26.9559L44.1159 26.9704L44.0605 27.0021L44.1006 26.8785Z" fill="#3F434F"/>
<path d="M44.3058 27.0971C44.3001 27.094 44.2968 27.0875 44.2968 27.0794L44.2959 26.7521C44.2957 26.7378 44.3059 26.7203 44.3184 26.7129L44.6027 26.5488C44.6096 26.5449 44.6165 26.5444 44.6221 26.5475C44.6277 26.5508 44.6309 26.5573 44.6309 26.5655L44.6319 26.8928C44.6319 26.9071 44.622 26.9246 44.6099 26.9317L44.3256 27.0958C44.3217 27.0981 44.3177 27.0992 44.3139 27.0992C44.311 27.0992 44.3082 27.0986 44.3058 27.0971ZM44.6088 26.5592L44.3245 26.7233C44.3157 26.7284 44.3079 26.7421 44.3079 26.7521L44.3087 27.0794C44.3088 27.083 44.3099 27.0856 44.3117 27.0867C44.3135 27.0875 44.3163 27.0873 44.3195 27.0854L44.6038 26.9213C44.6124 26.9163 44.62 26.903 44.62 26.8928L44.619 26.5655C44.619 26.5618 44.6179 26.559 44.6162 26.5579C44.6156 26.5576 44.6149 26.5574 44.6141 26.5574C44.6126 26.5574 44.6108 26.558 44.6088 26.5592Z" fill="#3F434F"/>
<path d="M43.8822 27.3413C43.8766 27.3381 43.8734 27.3316 43.8734 27.3237L43.8726 26.9965C43.8724 26.9821 43.8826 26.9644 43.8951 26.9573L44.1794 26.7931C44.1862 26.789 44.1931 26.7885 44.1988 26.7919C44.2045 26.7951 44.2076 26.8017 44.2076 26.8098L44.2086 27.1372C44.2086 27.1518 44.1989 27.1689 44.1864 27.1761L43.9021 27.3402C43.8983 27.3424 43.8943 27.3435 43.8906 27.3435C43.8876 27.3435 43.8847 27.3428 43.8822 27.3413ZM44.1855 26.8034L43.9012 26.9677C43.8923 26.9727 43.8845 26.9864 43.8845 26.9965L43.8854 27.3237C43.8854 27.3272 43.8865 27.3299 43.8882 27.331C43.8901 27.3318 43.893 27.3315 43.8962 27.3298L44.1804 27.1657C44.189 27.1607 44.1966 27.1473 44.1966 27.1372L44.1956 26.8098C44.1956 26.8061 44.1946 26.8033 44.1928 26.8023C44.1922 26.802 44.1914 26.8018 44.1907 26.8018C44.1892 26.8018 44.1874 26.8024 44.1855 26.8034Z" fill="#3F434F"/>
<path d="M1.71148 41.3878L1.3501 41.1778L2.83284 37.3124L3.19422 37.5224L1.71148 41.3878Z" fill="#3C3E4B"/>
<path d="M3.19439 37.5224L2.83301 37.3124L6.29637 35.3146L6.65776 35.5246L3.19439 37.5224Z" fill="#4E5161"/>
<path d="M6.65753 35.5246L8.02017 37.7122L1.71143 41.3878L3.19417 37.5224L6.65753 35.5246Z" fill="#464957"/>
<path d="M4.21924 41.0649L4.22015 41.3877L7.87196 39.2799L7.87104 38.957L4.21924 41.0649Z" fill="#3F434F"/>
<path d="M7.87158 38.9586V39.2794L17.4921 44.9009C17.8367 45.1029 18.3991 45.1029 18.7477 44.9009C18.9219 44.798 19.0091 44.6673 19.0091 44.5366V44.2158C19.0051 44.3465 18.9219 44.4772 18.7477 44.5762C18.3952 44.7782 17.8367 44.7782 17.4921 44.5762L7.87158 38.9586Z" fill="#525566"/>
<path d="M1.86412 40.9812L1.71143 41.3859L12.5796 47.7362C12.9281 47.9382 13.4865 47.9382 13.8351 47.7362C14.0093 47.6332 14.0965 47.5025 14.1004 47.3718V47.047C14.0965 47.1817 14.0093 47.3124 13.8351 47.4114C13.4865 47.6134 12.9281 47.6134 12.5796 47.4114L1.86412 40.9812Z" fill="#525566"/>
<path d="M1.86572 40.981L12.5796 47.4123C12.9263 47.6138 13.4858 47.6138 13.8348 47.4123C14.0093 47.3116 14.0957 47.1802 14.099 47.0473C14.0972 46.9174 14.0122 46.786 13.8389 46.6853L4.21946 41.0649L7.87126 38.957L17.4907 44.5774C17.8374 44.7789 18.3969 44.7789 18.7459 44.5774C18.9204 44.4767 19.0068 44.3453 19.0075 44.2139C19.0083 44.0825 18.9233 43.9511 18.75 43.8504L7.87945 37.5029L1.86572 40.981Z" fill="#5B5E71"/>
<path d="M13.7877 38.0389L13.7765 40.796L5.74512 45.5331L5.75627 42.776L13.7877 38.0389Z" fill="#EFAC41"/>
<path d="M7.43977 42.8895L7.4361 44.0485L6.38672 44.6583L6.39039 43.4993L7.43977 42.8895Z" fill="#E4E8F4"/>
<path d="M5.75635 42.776L5.74519 45.533L2.5332 43.6786L2.54436 40.9215L5.75635 42.776Z" fill="#F9BB4A"/>
<path d="M13.7885 38.0411L5.75636 42.7781L4.35325 41.9658L3.94706 41.736L3.93887 41.7319L2.54395 40.9237L10.5761 36.1867L11.9792 36.9949L11.9833 36.9991L12.3854 37.2288L13.7885 38.0411Z" fill="#FED57A"/>
<path d="M12.3855 37.2288L4.35334 41.9657L3.94715 41.736L3.93896 41.7319L11.9793 36.9949L11.9834 36.999L12.3855 37.2288Z" fill="#5B5E71"/>
<path d="M4.35334 41.9657L4.34956 43.2991L3.93896 43.0647L3.94275 41.7313L4.35334 41.9657Z" fill="#474B59"/>
<path d="M12.4689 40.3075L12.5794 40.5179L12.5109 40.5574L12.3599 40.644L12.4689 40.3075Z" fill="#3F434F"/>
<path d="M12.5108 40.5574L12.512 40.9735L12.4294 41.0212L12.4282 40.6051L12.5108 40.5574Z" fill="#3F434F"/>
<path d="M12.9215 40.7744L12.9217 40.8634L12.3513 41.1927L12.3511 41.1037L12.9215 40.7744Z" fill="#3F434F"/>
<path d="M13.5277 39.6962L13.5285 39.9927C13.5288 40.0864 13.4747 40.1951 13.4029 40.2502L13.4036 40.5175C13.454 40.4942 13.492 40.4964 13.4921 40.5244L13.2697 40.6528C13.2696 40.6248 13.3075 40.5789 13.3578 40.5439L13.357 40.2767C13.3242 40.2898 13.2959 40.2866 13.2737 40.2727C13.2476 40.2533 13.2305 40.2169 13.2303 40.1649L13.2295 39.8684L13.5277 39.6962Z" fill="#3F434F"/>
<path d="M12.8414 40.3666L12.8426 40.7827L12.76 40.8304L12.7588 40.4143L12.8414 40.3666Z" fill="#3F434F"/>
<path d="M12.7999 40.1163L12.9099 40.327L12.8414 40.3665L12.6909 40.4528L12.7999 40.1163Z" fill="#3F434F"/>
<path d="M3.72094 43.322L3.62256 43.5092L3.68349 43.5444L3.81794 43.6214L3.72094 43.322Z" fill="#4C7891"/>
<path d="M3.68318 43.5444L3.68213 43.9147L3.75565 43.9571L3.7567 43.5868L3.68318 43.5444Z" fill="#4C7891"/>
<path d="M3.3181 43.7375L3.31787 43.8168L3.82545 44.1098L3.82567 44.0305L3.3181 43.7375Z" fill="#4C7891"/>
<path d="M2.77858 42.7781L2.77783 43.0419C2.7776 43.1252 2.82574 43.222 2.88966 43.2711L2.88898 43.5089C2.84415 43.4882 2.81035 43.4902 2.81028 43.515L3.00818 43.6293C3.00825 43.6044 2.97457 43.5635 2.92977 43.5324L2.93045 43.2946C2.95967 43.3063 2.98489 43.3035 3.0046 43.2911C3.02785 43.2738 3.04307 43.2414 3.0432 43.1951L3.04395 42.9313L2.77858 42.7781Z" fill="#4C7891"/>
<path d="M3.38923 43.3746L3.38818 43.7449L3.4617 43.7874L3.46275 43.4171L3.38923 43.3746Z" fill="#4C7891"/>
<path d="M3.426 43.1519L3.32812 43.3394L3.38905 43.3746L3.523 43.4513L3.426 43.1519Z" fill="#4C7891"/>
<path d="M17.4293 40.1205L17.4181 42.8776L9.38672 47.6147L9.39787 44.8576L17.4293 40.1205Z" fill="#EFAC41"/>
<path d="M11.0814 44.9711L11.0777 46.1301L10.0283 46.7399L10.032 45.5809L11.0814 44.9711Z" fill="#E4E8F4"/>
<path d="M9.39795 44.8576L9.38679 47.6147L6.1748 45.7602L6.18596 43.0031L9.39795 44.8576Z" fill="#F9BB4A"/>
<path d="M17.4301 40.1227L9.39796 44.8597L7.99485 44.0474L7.58866 43.8176L7.58047 43.8135L6.18555 43.0053L14.2177 38.2683L15.6208 39.0766L15.6249 39.0807L16.027 39.3104L17.4301 40.1227Z" fill="#FED57A"/>
<path d="M16.0271 39.3104L7.99494 44.0473L7.58875 43.8176L7.58057 43.8135L15.6209 39.0765L15.625 39.0806L16.0271 39.3104Z" fill="#5B5E71"/>
<path d="M7.99494 44.0473L7.99116 45.3807L7.58057 45.1463L7.58435 43.8129L7.99494 44.0473Z" fill="#474B59"/>
<path d="M16.1105 42.3891L16.221 42.5995L16.1526 42.639L16.0015 42.7256L16.1105 42.3891Z" fill="#3F434F"/>
<path d="M16.1524 42.639L16.1536 43.0551L16.071 43.1028L16.0698 42.6867L16.1524 42.639Z" fill="#3F434F"/>
<path d="M16.5631 42.856L16.5633 42.945L15.9929 43.2743L15.9927 43.1853L16.5631 42.856Z" fill="#3F434F"/>
<path d="M17.1693 41.7778L17.1701 42.0743C17.1704 42.168 17.1163 42.2767 17.0445 42.3318L17.0452 42.5991C17.0956 42.5758 17.1336 42.578 17.1337 42.606L16.9113 42.7344C16.9112 42.7064 16.9491 42.6605 16.9994 42.6255L16.9986 42.3583C16.9658 42.3714 16.9375 42.3682 16.9153 42.3543C16.8892 42.3349 16.8721 42.2985 16.8719 42.2465L16.8711 41.95L17.1693 41.7778Z" fill="#3F434F"/>
<path d="M16.483 42.4482L16.4842 42.8643L16.4016 42.912L16.4004 42.4959L16.483 42.4482Z" fill="#3F434F"/>
<path d="M16.4415 42.1979L16.5515 42.4086L16.483 42.4482L16.3325 42.5344L16.4415 42.1979Z" fill="#3F434F"/>
<path d="M7.36254 45.4037L7.26416 45.5909L7.32509 45.6261L7.45954 45.7031L7.36254 45.4037Z" fill="#4C7891"/>
<path d="M7.32478 45.626L7.32373 45.9964L7.39725 46.0388L7.3983 45.6685L7.32478 45.626Z" fill="#4C7891"/>
<path d="M6.9597 45.8192L6.95947 45.8984L7.46705 46.1915L7.46727 46.1122L6.9597 45.8192Z" fill="#4C7891"/>
<path d="M6.42018 44.8597L6.41943 45.1236C6.4192 45.2069 6.46734 45.3037 6.53126 45.3527L6.53059 45.5906C6.48576 45.5699 6.45196 45.5718 6.45189 45.5967L6.64978 45.711C6.64985 45.6861 6.61617 45.6452 6.57137 45.6141L6.57205 45.3763C6.60127 45.3879 6.62649 45.3851 6.6462 45.3727C6.66945 45.3554 6.68467 45.3231 6.6848 45.2768L6.68555 45.013L6.42018 44.8597Z" fill="#4C7891"/>
<path d="M7.03083 45.4563L7.02979 45.8266L7.1033 45.8691L7.10435 45.4987L7.03083 45.4563Z" fill="#4C7891"/>
<path d="M7.0676 45.2336L6.96973 45.4211L7.03065 45.4562L7.1646 45.533L7.0676 45.2336Z" fill="#4C7891"/>
<path d="M14.2796 36.8909L14.2684 39.648L8.98877 42.7621L8.99992 40.005L14.2796 36.8909Z" fill="#EFAC41"/>
<path d="M10.6834 40.1185L10.6798 41.2775L9.63037 41.8874L9.63404 40.7284L10.6834 40.1185Z" fill="#E4E8F4"/>
<path d="M9 40.005L8.98884 42.7621L5.77686 40.9077L5.78801 38.1506L9 40.005Z" fill="#F9BB4A"/>
<path d="M14.2804 36.8931L9.00001 40.0072L7.5969 39.1948L7.19071 38.9651L7.18252 38.961L5.7876 38.1528L11.068 35.0386L12.4711 35.8469L12.4752 35.851L12.8773 36.0807L14.2804 36.8931Z" fill="#FED57A"/>
<path d="M12.8774 36.0807L7.59699 39.1948L7.19081 38.9651L7.18262 38.961L12.4712 35.8469L12.4753 35.851L12.8774 36.0807Z" fill="#5B5E71"/>
<path d="M7.59699 39.1948L7.59321 40.5282L7.18262 40.2937L7.1864 38.9603L7.59699 39.1948Z" fill="#474B59"/>
<path d="M12.9611 39.1594L13.0716 39.3698L13.0031 39.4093L12.8521 39.4959L12.9611 39.1594Z" fill="#3F434F"/>
<path d="M13.003 39.4093L13.0042 39.8254L12.9216 39.8731L12.9204 39.457L13.003 39.4093Z" fill="#3F434F"/>
<path d="M13.4136 39.6263L13.4139 39.7154L12.8435 40.0447L12.8433 39.9556L13.4136 39.6263Z" fill="#3F434F"/>
<path d="M14.0199 38.5482L14.0207 38.8447C14.021 38.9383 13.9669 39.047 13.8951 39.1022L13.8958 39.3694C13.9462 39.3462 13.9842 39.3483 13.9843 39.3763L13.7619 39.5047C13.7618 39.4767 13.7996 39.4308 13.85 39.3959L13.8492 39.1286C13.8164 39.1417 13.788 39.1386 13.7659 39.1246C13.7398 39.1052 13.7227 39.0688 13.7225 39.0168L13.7217 38.7203L14.0199 38.5482Z" fill="#3F434F"/>
<path d="M13.3336 39.2185L13.3348 39.6346L13.2522 39.6823L13.251 39.2662L13.3336 39.2185Z" fill="#3F434F"/>
<path d="M13.2921 38.9683L13.4021 39.1789L13.3336 39.2185L13.1831 39.3047L13.2921 38.9683Z" fill="#3F434F"/>
<path d="M6.96459 40.5511L6.86621 40.7383L6.92714 40.7735L7.06159 40.8506L6.96459 40.5511Z" fill="#4C7891"/>
<path d="M6.92683 40.7735L6.92578 41.1438L6.9993 41.1863L7.00035 40.8159L6.92683 40.7735Z" fill="#4C7891"/>
<path d="M6.56175 40.9666L6.56152 41.0459L7.0691 41.3389L7.06932 41.2597L6.56175 40.9666Z" fill="#4C7891"/>
<path d="M6.02223 40.0072L6.02149 40.2711C6.02125 40.3544 6.0694 40.4511 6.13331 40.5002L6.13264 40.738C6.08781 40.7174 6.05401 40.7193 6.05394 40.7442L6.25183 40.8584C6.2519 40.8335 6.21823 40.7926 6.17342 40.7616L6.1741 40.5238C6.20332 40.5354 6.22855 40.5326 6.24825 40.5202C6.2715 40.5029 6.28672 40.4705 6.28686 40.4243L6.2876 40.1604L6.02223 40.0072Z" fill="#4C7891"/>
<path d="M6.63289 40.6038L6.63184 40.9741L6.70536 41.0165L6.70641 40.6462L6.63289 40.6038Z" fill="#4C7891"/>
<path d="M6.66965 40.381L6.57178 40.5685L6.63271 40.6037L6.76665 40.6805L6.66965 40.381Z" fill="#4C7891"/>
<path d="M36.1324 21.7649L24.6064 15.0233L7.52783 11.9954L36.1518 28.6299L36.1324 21.7649Z" fill="#576CFB"/>
<path d="M48.5217 14.6119L28.4468 2.92389L22.2412 3.58787L42.3162 15.2759L48.5217 14.6119Z" fill="#2F873B"/>
<path d="M49.6155 13.7775L29.5405 2.08948L22.2393 2.87276L42.3142 14.5608L49.6155 13.7775Z" fill="#D4DAE8"/>
<path d="M42.3164 15.2759L22.2415 3.58789L16.0576 10.0769L36.1326 21.765L42.3164 15.2759Z" fill="#2F873B"/>
<path d="M42.3162 15.2759L36.1323 21.7649L36.1518 28.6298L48.5412 21.4768L48.5217 14.6119L42.3162 15.2759Z" fill="#748BFD"/>
<path d="M35.0378 22.1941L14.9629 10.506L15.1824 10.9941L35.2574 22.6821L35.0378 22.1941Z" fill="#AEB7C4"/>
<path d="M42.3145 14.5608L22.2395 2.87274L14.9629 10.506L35.0378 22.194L42.3145 14.5608Z" fill="#E4E8F4"/>
<path d="M21.5544 30.1815L1.47949 18.4935L1.49895 25.3584L21.5739 37.0464L21.5544 30.1815Z" fill="#576CFB"/>
<path d="M1.49902 25.3585L21.574 37.0465L1.49902 25.3585Z" fill="#CAD0DD"/>
<path d="M33.9438 23.0285L13.8688 11.3405L7.66846 12.0015L27.7434 23.6895L33.9438 23.0285Z" fill="#2F873B"/>
<path d="M35.0375 22.1941L14.9626 10.506L7.6665 11.2863L27.7415 22.9744L35.0375 22.1941Z" fill="#D4DAE8"/>
<path d="M27.7435 23.6894L7.66853 12.0014L1.47949 18.4934L21.5544 30.1815L27.7435 23.6894Z" fill="#2F873B"/>
<path d="M27.7437 23.6894L21.5547 30.1815L21.5741 37.0464L33.9636 29.8934L33.9441 23.0284L27.7437 23.6894Z" fill="#748BFD"/>
<path d="M20.4597 30.6106L0.384766 18.9226L0.604313 19.4106L20.6793 31.0987L20.4597 30.6106Z" fill="#BAC1CE"/>
<path d="M27.7416 22.9743L7.66659 11.2863L0.384766 18.9226L20.4597 30.6106L27.7416 22.9743Z" fill="#E4E8F4"/>
<path d="M42.3143 14.5608L35.0376 22.1941L35.2571 22.6821L42.3163 15.2759L49.3994 14.5171L49.6155 13.7775L42.3143 14.5608Z" fill="#CAD0DD"/>
<path d="M27.7418 22.9744L20.46 30.6106L20.6795 31.0987L27.7438 23.6895L34.8218 22.9336L35.0379 22.1941L27.7418 22.9744Z" fill="#CAD0DD"/>
<path d="M5.64885 23.9082L5.08936 23.5868V25.5464L5.64885 25.3254V23.9082Z" fill="#748BFD"/>
<path d="M5.64893 23.9083V25.3254L8.21567 26.8085L8.22827 25.3904L5.64893 23.9083Z" fill="#E4E8F4"/>
<path d="M16.4009 30.1166V31.5337L18.9802 33.0158V31.5986L16.4009 30.1166Z" fill="#E4E8F4"/>
<path d="M8.2156 26.8085L5.64885 25.3254L5.08936 25.5464L8.21084 27.35L8.2156 26.8085Z" fill="#4562EF"/>
<path d="M11.0249 27.0125V28.4297L13.6042 29.9117V28.4946L11.0249 27.0125Z" fill="#E4E8F4"/>
<path d="M11.0248 27.0125L10.4653 26.691V28.6506L11.0248 28.4297V27.0125Z" fill="#748BFD"/>
<path d="M11.0248 28.4296L10.4653 28.6505L13.6042 30.4541V29.9117L11.0248 28.4296Z" fill="#4562EF"/>
<path d="M16.4008 30.1166L15.8413 29.7952V31.7547L16.4008 31.5338V30.1166Z" fill="#748BFD"/>
<path d="M16.4008 31.5338L15.8413 31.7547L18.9801 33.5583V33.0158L16.4008 31.5338Z" fill="#4562EF"/>
<path d="M30.4908 31.9013L25.826 34.5958L25.8047 29.356L30.4694 26.6721L30.4908 31.9013Z" fill="#E4E8F4"/>
<path d="M45.7244 23.1029L45.7036 17.8762L41.0391 20.5625L45.6619 23.1237L45.7244 23.1029Z" fill="#37617B"/>
<path d="M41.0559 25.7881V25.2343L41.0453 23.8178V22.0925L41.0347 21.6239V20.5589L41.4074 20.7613L41.9719 21.0807L42.1316 21.166L42.6961 21.4855L42.8451 21.56V21.5707H42.8558L42.8665 21.5813L42.9197 21.6133H42.9304L42.941 21.6239L42.9836 21.6452H42.9943L43.0156 21.6558L43.0582 21.6771V21.6878H43.0688L43.0901 21.6985L43.1434 21.7304L43.4096 21.8795L43.6226 21.9966L43.7824 22.0819L43.8037 22.1032H43.8143L44.3468 22.4013L44.496 22.4759L44.5279 22.4972L44.5492 22.5079L44.6024 22.5398L44.6238 22.5505L44.677 22.5824L44.6983 22.593H44.7089L44.7409 22.625H44.7516L44.7729 22.6357L44.8154 22.6569H44.8261L45.4864 23.0297H45.4971L45.6568 23.1256L41.0559 25.7881Z" fill="#4C7891"/>
<path d="M43.9818 20.5835L43.9773 22.0022L42.6929 22.7486L42.6974 21.3299L43.9818 20.5835Z" fill="#EFAC41"/>
<path d="M43.8327 20.8545V21.0788L43.8314 21.1017V21.3209L42.8413 21.8968V21.814L42.8426 21.7554V21.5668L42.8439 21.5069V21.4305L43.8327 20.8545Z" fill="#E4E8F4"/>
<path d="M42.6973 21.3299L42.6928 22.7486L41.3999 22.0022L41.4044 20.5835L42.6973 21.3299Z" fill="#F9BB4A"/>
<path d="M43.9821 20.5844L42.6973 21.3308L42.1326 21.0038L41.9691 20.9114L41.9658 20.9097L41.4043 20.5844L42.6891 19.838L43.2539 20.1633L43.2555 20.1649L43.4173 20.2574L43.9821 20.5844Z" fill="#FED57A"/>
<path d="M43.4174 20.2574L42.1326 21.0038L41.9691 20.9113L41.9658 20.9097L43.2539 20.1633L43.2556 20.1649L43.4174 20.2574Z" fill="#EFAC41"/>
<path d="M42.1326 21.0038L42.1311 21.5405L41.9658 21.4461L41.9673 20.9094L42.1326 21.0038Z" fill="#EFAC41"/>
<path d="M42.9833 22.1229L43.0278 22.2076L43.0003 22.2235L42.9395 22.2584L42.9833 22.1229Z" fill="#3F434F"/>
<path d="M43.0005 22.2235L43.001 22.391L42.9678 22.4102L42.9673 22.2427L43.0005 22.2235Z" fill="#3F434F"/>
<path d="M43.1656 22.3109L43.1657 22.3467L42.9361 22.4793L42.936 22.4434L43.1656 22.3109Z" fill="#3F434F"/>
<path d="M43.4096 21.8769L43.4099 21.9962C43.41 22.0339 43.3883 22.0777 43.3593 22.0999L43.3596 22.2075C43.3799 22.1981 43.3952 22.199 43.3952 22.2102L43.3057 22.2619C43.3057 22.2507 43.3209 22.2322 43.3412 22.2181L43.3409 22.1105C43.3277 22.1158 43.3163 22.1145 43.3074 22.1089C43.2968 22.1011 43.2899 22.0865 43.2899 22.0655L43.2896 21.9462L43.4096 21.8769Z" fill="#3F434F"/>
<path d="M43.1334 22.1467L43.1338 22.3142L43.1006 22.3334L43.1001 22.1659L43.1334 22.1467Z" fill="#3F434F"/>
<path d="M43.1166 22.046L43.1609 22.1308L43.1333 22.1467L43.0728 22.1815L43.1166 22.046Z" fill="#3F434F"/>
<path d="M43.8329 21.0787L43.8316 21.1017L42.8428 21.6725V21.6509L43.8329 21.0787Z" fill="#A4A9B3"/>
<path d="M43.8316 21.1603V21.1845L42.8428 21.7554V21.7324L43.8316 21.1603Z" fill="#A4A9B3"/>
<path d="M43.8314 21.2431V21.2673L42.8413 21.8382V21.814L43.8314 21.2431Z" fill="#A4A9B3"/>
<path d="M43.8329 20.9959V21.0189L42.8428 21.591V21.5668L43.8329 20.9959Z" fill="#A4A9B3"/>
<path d="M43.8326 20.9131V20.936L42.8438 21.5069V21.484L43.8326 20.9131Z" fill="#A4A9B3"/>
<path d="M45.6317 21.5361L45.6272 22.9547L44.3428 23.7012L44.3473 22.2825L45.6317 21.5361Z" fill="#EFAC41"/>
<path d="M45.4826 21.8071V22.0313L45.4813 22.0543V22.2735L44.4912 22.8494V22.7666L44.4925 22.708V22.5194L44.4938 22.4595V22.383L45.4826 21.8071Z" fill="#E4E8F4"/>
<path d="M44.3472 22.2825L44.3427 23.7012L43.0498 22.9547L43.0543 21.5361L44.3472 22.2825Z" fill="#F9BB4A"/>
<path d="M45.632 21.537L44.3472 22.2834L43.7825 21.9564L43.619 21.8639L43.6157 21.8623L43.0542 21.537L44.339 20.7905L44.9038 21.1159L44.9054 21.1175L45.0673 21.21L45.632 21.537Z" fill="#FED57A"/>
<path d="M45.0673 21.21L43.7825 21.9564L43.619 21.8639L43.6157 21.8623L44.9038 21.1158L44.9055 21.1175L45.0673 21.21Z" fill="#EFAC41"/>
<path d="M43.7825 21.9564L43.781 22.4931L43.6157 22.3987L43.6172 21.862L43.7825 21.9564Z" fill="#EFAC41"/>
<path d="M44.6332 23.0755L44.6777 23.1602L44.6502 23.1761L44.5894 23.2109L44.6332 23.0755Z" fill="#3F434F"/>
<path d="M44.6504 23.1761L44.6509 23.3436L44.6177 23.3628L44.6172 23.1953L44.6504 23.1761Z" fill="#3F434F"/>
<path d="M44.8155 23.2634L44.8156 23.2993L44.586 23.4318L44.5859 23.396L44.8155 23.2634Z" fill="#3F434F"/>
<path d="M45.0595 22.8295L45.0598 22.9488C45.0599 22.9865 45.0382 23.0303 45.0092 23.0525L45.0095 23.16C45.0298 23.1507 45.0451 23.1516 45.0451 23.1628L44.9556 23.2145C44.9556 23.2032 44.9708 23.1847 44.9911 23.1707L44.9908 23.0631C44.9776 23.0684 44.9662 23.0671 44.9573 23.0615C44.9467 23.0537 44.9399 23.039 44.9398 23.0181L44.9395 22.8988L45.0595 22.8295Z" fill="#3F434F"/>
<path d="M44.7833 23.0993L44.7837 23.2668L44.7505 23.286L44.75 23.1185L44.7833 23.0993Z" fill="#3F434F"/>
<path d="M44.7665 22.9986L44.8108 23.0834L44.7832 23.0993L44.7227 23.134L44.7665 22.9986Z" fill="#3F434F"/>
<path d="M45.4828 22.0313L45.4815 22.0542L44.4927 22.6251V22.6035L45.4828 22.0313Z" fill="#A4A9B3"/>
<path d="M45.4815 22.1129V22.1371L44.4927 22.7079V22.685L45.4815 22.1129Z" fill="#A4A9B3"/>
<path d="M45.4813 22.1957V22.2199L44.4912 22.7908V22.7666L45.4813 22.1957Z" fill="#A4A9B3"/>
<path d="M45.4828 21.9485V21.9714L44.4927 22.5436V22.5194L45.4828 21.9485Z" fill="#A4A9B3"/>
<path d="M45.4825 21.8657V21.8886L44.4937 22.4595V22.4365L45.4825 21.8657Z" fill="#A4A9B3"/>
<path d="M42.4848 21.437L42.4803 22.8556L41.1958 23.6021L41.2003 22.1834L42.4848 21.437Z" fill="#EFAC41"/>
<path d="M42.3356 21.7079V21.9322L42.3343 21.9552V22.1743L41.3442 22.7503V22.6675L41.3455 22.6089V22.4203L41.3468 22.3604V22.2839L42.3356 21.7079Z" fill="#E4E8F4"/>
<path d="M41.2051 22.1883V22.5824L41.1945 23.2428V23.6048L41.0454 23.5196V22.0925L41.2051 22.1883Z" fill="#F9BB4A"/>
<path d="M42.4724 21.4429L41.4606 22.0393H41.45L41.205 22.1883L41.0453 22.0925L41.0347 21.6239V20.7826L41.1944 20.6867L41.4074 20.8145L41.7589 21.0169L41.9186 21.1127L41.9719 21.1447L42.1316 21.2405L42.4724 21.4429Z" fill="#FED57A"/>
<path d="M41.9186 21.1127L41.3967 21.4109L41.0347 21.6239V21.4322L41.4074 21.2192L41.7589 21.0168L41.9186 21.1127Z" fill="#EFAC41"/>
<path d="M41.4863 22.9764L41.5308 23.0611L41.5032 23.077L41.4424 23.1118L41.4863 22.9764Z" fill="#3F434F"/>
<path d="M41.5035 23.077L41.5039 23.2445L41.4707 23.2637L41.4702 23.0962L41.5035 23.077Z" fill="#3F434F"/>
<path d="M41.6686 23.1643L41.6687 23.2002L41.4391 23.3327L41.439 23.2969L41.6686 23.1643Z" fill="#3F434F"/>
<path d="M41.9125 22.7303L41.9129 22.8497C41.913 22.8874 41.8912 22.9311 41.8623 22.9533L41.8626 23.0609C41.8829 23.0516 41.8981 23.0524 41.8982 23.0637L41.8087 23.1154C41.8086 23.1041 41.8239 23.0856 41.8441 23.0716L41.8438 22.964C41.8306 22.9693 41.8192 22.968 41.8103 22.9624C41.7998 22.9546 41.7929 22.9399 41.7928 22.919L41.7925 22.7996L41.9125 22.7303Z" fill="#3F434F"/>
<path d="M41.6363 23.0002L41.6368 23.1677L41.6035 23.1869L41.603 23.0194L41.6363 23.0002Z" fill="#3F434F"/>
<path d="M41.6196 22.8995L41.6638 22.9843L41.6363 23.0002L41.5757 23.0349L41.6196 22.8995Z" fill="#3F434F"/>
<path d="M42.3358 21.9322L42.3345 21.9551L41.3457 22.526V22.5043L42.3358 21.9322Z" fill="#A4A9B3"/>
<path d="M42.3345 22.0137V22.0379L41.3457 22.6088V22.5859L42.3345 22.0137Z" fill="#A4A9B3"/>
<path d="M42.3343 22.0966V22.1208L41.3442 22.6916V22.6674L42.3343 22.0966Z" fill="#A4A9B3"/>
<path d="M42.3358 21.8494V21.8723L41.3457 22.4445V22.4202L42.3358 21.8494Z" fill="#A4A9B3"/>
<path d="M42.3355 21.7665V21.7895L41.3467 22.3603V22.3374L42.3355 21.7665Z" fill="#A4A9B3"/>
<path d="M44.1347 22.3895L44.1302 23.8082L42.8457 24.5546L42.8502 23.136L44.1347 22.3895Z" fill="#EFAC41"/>
<path d="M43.9855 22.6605V22.8848L43.9843 22.9077V23.1269L42.9941 23.7029V23.6201L42.9954 23.5614V23.3728L42.9967 23.3129V23.2365L43.9855 22.6605Z" fill="#E4E8F4"/>
<path d="M42.8501 23.136L42.8456 24.5546L41.5527 23.8082L41.5572 22.3895L42.8501 23.136Z" fill="#F9BB4A"/>
<path d="M44.135 22.3904L42.8502 23.1369L42.2854 22.8099L42.1219 22.7174L42.1186 22.7157L41.5571 22.3904L42.8419 21.644L43.4067 21.9693L43.4083 21.971L43.5702 22.0634L44.135 22.3904Z" fill="#FED57A"/>
<path d="M43.5702 22.0634L42.2854 22.8099L42.1219 22.7174L42.1187 22.7157L43.4067 21.9693L43.4084 21.971L43.5702 22.0634Z" fill="#EFAC41"/>
<path d="M42.2854 22.8098L42.2839 23.3465L42.1187 23.2522L42.1202 22.7155L42.2854 22.8098Z" fill="#EFAC41"/>
<path d="M43.1362 23.929L43.1807 24.0136L43.1531 24.0295L43.0923 24.0644L43.1362 23.929Z" fill="#3F434F"/>
<path d="M43.1534 24.0295L43.1538 24.197L43.1206 24.2162L43.1201 24.0487L43.1534 24.0295Z" fill="#3F434F"/>
<path d="M43.3185 24.1169L43.3186 24.1527L43.089 24.2853L43.0889 24.2494L43.3185 24.1169Z" fill="#3F434F"/>
<path d="M43.5624 23.6829L43.5628 23.8023C43.5629 23.84 43.5411 23.8837 43.5122 23.9059L43.5125 24.0135C43.5328 24.0041 43.548 24.005 43.5481 24.0163L43.4586 24.0679C43.4585 24.0567 43.4738 24.0382 43.494 24.0241L43.4937 23.9166C43.4805 23.9218 43.4691 23.9206 43.4602 23.915C43.4497 23.9071 43.4428 23.8925 43.4427 23.8716L43.4424 23.7522L43.5624 23.6829Z" fill="#3F434F"/>
<path d="M43.2862 23.9528L43.2867 24.1203L43.2534 24.1395L43.2529 23.972L43.2862 23.9528Z" fill="#3F434F"/>
<path d="M43.2695 23.8521L43.3137 23.9369L43.2862 23.9528L43.2256 23.9875L43.2695 23.8521Z" fill="#3F434F"/>
<path d="M43.9857 22.8848L43.9844 22.9077L42.9956 23.4786V23.4569L43.9857 22.8848Z" fill="#A4A9B3"/>
<path d="M43.9844 22.9663V22.9905L42.9956 23.5614V23.5385L43.9844 22.9663Z" fill="#A4A9B3"/>
<path d="M43.9843 23.0491V23.0733L42.9941 23.6442V23.62L43.9843 23.0491Z" fill="#A4A9B3"/>
<path d="M43.9857 22.8019V22.8249L42.9956 23.397V23.3728L43.9857 22.8019Z" fill="#A4A9B3"/>
<path d="M43.9854 22.7191V22.7421L42.9966 23.3129V23.29L43.9854 22.7191Z" fill="#A4A9B3"/>
<path d="M42.6371 23.243L42.6326 24.6616L41.3481 25.4081L41.3526 23.9894L42.6371 23.243Z" fill="#EFAC41"/>
<path d="M42.488 23.514V23.7383L42.4867 23.7612V23.9804L41.4966 24.5563V24.4735L41.4979 24.4149V24.2263L41.4991 24.1664V24.0899L42.488 23.514Z" fill="#E4E8F4"/>
<path d="M41.3538 23.9882L41.3431 25.4047L41.0555 25.2344L41.0449 23.8179L41.3538 23.9882Z" fill="#F9BB4A"/>
<path d="M42.6318 23.2428V23.2534L41.6093 23.8392L41.3538 23.9882L41.0449 23.8072V22.6676L41.2046 22.5824L41.3431 22.4973V22.5079H41.3538L41.3644 22.5185H41.3751L41.4177 22.5398L41.439 22.5505L41.4922 22.5824L41.5135 22.5931L41.5561 22.625H41.5668L41.8224 22.7742L41.9076 22.8274L42.0673 22.9126L42.1205 22.9445L42.2271 23.0084L42.2803 23.0298L42.6318 23.2428Z" fill="#FED57A"/>
<path d="M42.0673 22.9126L41.8649 23.0297L41.8437 23.0404L41.6413 23.1575L41.5987 23.1895L41.5561 23.2108L41.5029 23.2428L41.4709 23.264L41.194 23.4238L41.0449 23.509V23.3279L41.194 23.2428L41.4496 23.0936L41.5241 23.051L41.5561 23.0297L41.5774 23.0191L41.6519 22.9765L41.7904 22.8913L41.9076 22.8274L42.0673 22.9126Z" fill="#EFAC41"/>
<path d="M41.6386 24.7824L41.6831 24.8671L41.6555 24.883L41.5947 24.9178L41.6386 24.7824Z" fill="#3F434F"/>
<path d="M41.6558 24.883L41.6563 25.0505L41.623 25.0697L41.6226 24.9022L41.6558 24.883Z" fill="#3F434F"/>
<path d="M41.8209 24.9703L41.821 25.0062L41.5914 25.1387L41.5913 25.1029L41.8209 24.9703Z" fill="#3F434F"/>
<path d="M42.0649 24.5364L42.0652 24.6557C42.0653 24.6934 42.0435 24.7372 42.0146 24.7594L42.0149 24.8669C42.0352 24.8576 42.0505 24.8585 42.0505 24.8697L41.961 24.9214C41.961 24.9101 41.9762 24.8916 41.9965 24.8776L41.9962 24.77C41.9829 24.7753 41.9715 24.774 41.9626 24.7684C41.9521 24.7606 41.9452 24.746 41.9452 24.725L41.9448 24.6057L42.0649 24.5364Z" fill="#3F434F"/>
<path d="M41.7886 24.8062L41.7891 24.9737L41.7558 24.9929L41.7554 24.8254L41.7886 24.8062Z" fill="#3F434F"/>
<path d="M41.7719 24.7055L41.8162 24.7903L41.7886 24.8062L41.728 24.8409L41.7719 24.7055Z" fill="#3F434F"/>
<path d="M42.4882 23.7382L42.4869 23.7612L41.498 24.332V24.3104L42.4882 23.7382Z" fill="#A4A9B3"/>
<path d="M42.4869 23.8198V23.844L41.498 24.4148V24.3919L42.4869 23.8198Z" fill="#A4A9B3"/>
<path d="M42.4867 23.9026V23.9268L41.4966 24.4977V24.4735L42.4867 23.9026Z" fill="#A4A9B3"/>
<path d="M42.4882 23.6554V23.6783L41.498 24.2505V24.2263L42.4882 23.6554Z" fill="#A4A9B3"/>
<path d="M42.4879 23.5726V23.5955L41.499 24.1664V24.1434L42.4879 23.5726Z" fill="#A4A9B3"/>
<path d="M29.863 26.145V24.6754L29.5791 24.7421V26.0448L29.863 26.145Z" fill="#576CFB"/>
<path d="M29.5789 26.0447L25.8047 28.2324V28.4829L29.8628 26.1449L29.5789 26.0447Z" fill="#4562EF"/>
<path d="M29.5789 24.7421L27.8254 25.1429L25.8047 27.0133V28.2325L29.5789 26.0448V24.7421Z" fill="#E4E8F4"/>
<path d="M45.0959 17.358V15.8884L44.812 15.9552V17.2578L45.0959 17.358Z" fill="#576CFB"/>
<path d="M44.8118 17.2578L41.0376 19.4455V19.6959L45.0957 17.358L44.8118 17.2578Z" fill="#4562EF"/>
<path d="M44.8118 15.9552L43.0583 16.356L41.0376 18.2264V19.4455L44.8118 17.2578V15.9552Z" fill="#E4E8F4"/>
<path d="M4.27498 36.8918L3.97624 36.7182L3.96631 31.6871L4.26505 31.8607L4.27498 36.8918Z" fill="#F34858"/>
<path d="M5.82564 30.0108C5.82564 30.4008 5.55011 30.8755 5.21102 31.0705L3.91398 31.8207C3.74442 31.9182 3.59183 31.9267 3.47738 31.8631L3.18066 31.6893C3.29087 31.7529 3.4477 31.7444 3.61726 31.6469L4.9143 30.8967C5.2534 30.7017 5.52468 30.227 5.52468 29.837C5.52468 29.642 5.45687 29.5064 5.34666 29.4428L5.64335 29.6166C5.75356 29.6802 5.82564 29.8158 5.82564 30.0108Z" fill="#F34858"/>
<path d="M5.79581 29.358C5.6432 29.2733 5.43551 29.286 5.20663 29.4174L3.90959 30.1634C3.45604 30.4262 3.08728 31.0663 3.08728 31.5919C3.08728 31.8504 3.18052 32.0327 3.32889 32.1174L3.03217 31.9437C2.88383 31.8589 2.79056 31.6766 2.79056 31.4181C2.78632 30.8925 3.15933 30.2524 3.61287 29.9896L4.90991 29.2436C5.13882 29.1122 5.34651 29.0995 5.49486 29.1843L5.79581 29.358Z" fill="#F34858"/>
<path d="M5.20691 29.4169C5.66428 29.1528 6.03352 29.3633 6.03501 29.8888C6.03649 30.4112 5.66966 31.0498 5.21229 31.3138L4.8659 31.5138L4.87583 36.545L4.27504 36.8918L4.26512 31.8607L3.916 32.0622C3.46134 32.3247 3.08938 32.1128 3.0879 31.5903C3.08641 31.0648 3.45596 30.4278 3.91063 30.1653L5.20691 29.4169ZM5.2116 31.0713C5.54989 30.876 5.82504 30.3994 5.82394 30.0107C5.82284 29.622 5.54588 29.461 5.20759 29.6563L3.9113 30.4047C3.57302 30.6001 3.29787 31.0797 3.29898 31.4685C3.30008 31.8572 3.57703 32.015 3.91532 31.8197L5.2116 31.0713Z" fill="#F9607F"/>
<path d="M41.6467 36.1024L41.6459 36.3909L27.7573 44.4621L27.7581 44.1736L41.6467 36.1024Z" fill="#525566"/>
<path d="M27.7583 44.1736L27.7575 44.4621L26.8838 43.9576L26.8846 43.6691L27.7583 44.1736Z" fill="#474B59"/>
<path d="M41.647 36.1024L27.7585 44.1735L26.8848 43.6691L40.7733 35.598L41.647 36.1024Z" fill="#5B5E71"/>
<path d="M44.6291 37.8245L44.6283 38.113L30.7397 46.1841L30.7406 45.8956L44.6291 37.8245Z" fill="#525566"/>
<path d="M30.7407 45.8956L30.7399 46.1841L29.8662 45.6797L29.867 45.3912L30.7407 45.8956Z" fill="#474B59"/>
<path d="M44.6295 37.8245L30.7409 45.8956L29.8672 45.3911L43.7557 37.32L44.6295 37.8245Z" fill="#5B5E71"/>
<path d="M47.6193 39.5508L47.6185 39.8393L33.73 47.9105L33.7308 47.622L47.6193 39.5508Z" fill="#525566"/>
<path d="M33.731 47.622L33.7302 47.9105L32.8564 47.4061L32.8573 47.1176L33.731 47.622Z" fill="#474B59"/>
<path d="M47.6197 39.5508L33.7311 47.622L32.8574 47.1175L46.746 39.0464L47.6197 39.5508Z" fill="#5B5E71"/>
<path d="M37.9614 36.5746L37.9623 36.8922L45.6473 41.3582L45.6464 41.0407L37.9614 36.5746Z" fill="#37617B"/>
<path d="M45.6465 41.0407L45.6474 41.3583L46.6091 40.803L46.6082 40.4855L45.6465 41.0407Z" fill="#416E84"/>
<path d="M37.9614 36.5747L45.6464 41.0407L46.6082 40.4855L38.9232 36.0194L37.9614 36.5747Z" fill="#4C7891"/>
<path d="M34.6787 38.4702L34.6796 38.7877L42.3646 43.2538L42.3637 42.9362L34.6787 38.4702Z" fill="#37617B"/>
<path d="M42.3638 42.9362L42.3647 43.2538L43.3264 42.6985L43.3255 42.381L42.3638 42.9362Z" fill="#416E84"/>
<path d="M34.6787 38.4702L42.3637 42.9362L43.3255 42.381L35.6404 37.9149L34.6787 38.4702Z" fill="#4C7891"/>
<path d="M31.3872 40.3704L31.3881 40.688L39.0731 45.154L39.0722 44.8365L31.3872 40.3704Z" fill="#37617B"/>
<path d="M39.0723 44.8365L39.0732 45.1541L40.0349 44.5988L40.034 44.2812L39.0723 44.8365Z" fill="#416E84"/>
<path d="M31.3872 40.3704L39.0722 44.8365L40.034 44.2812L32.3489 39.8152L31.3872 40.3704Z" fill="#4C7891"/>
<path d="M28.0957 42.2708L28.0966 42.5883L35.7816 47.0543L35.7807 46.7368L28.0957 42.2708Z" fill="#37617B"/>
<path d="M35.7808 46.7368L35.7817 47.0544L36.7434 46.4991L36.7425 46.1816L35.7808 46.7368Z" fill="#416E84"/>
<path d="M28.0957 42.2708L35.7807 46.7368L36.7424 46.1816L29.0574 41.7155L28.0957 42.2708Z" fill="#4C7891"/>
<path d="M37.5654 34.7371L37.5768 38.3141L43.4403 41.7212L43.429 38.1442L37.5654 34.7371Z" fill="#EFAC41"/>
<path d="M41.8589 37.7776L41.8626 38.9539L42.9276 39.5728L42.9239 38.3966L41.8589 37.7776Z" fill="#E4E8F4"/>
<path d="M43.4287 38.1443L43.44 41.7212L46.6998 39.8392L46.6885 36.2622L43.4287 38.1443Z" fill="#F9BB4A"/>
<path d="M37.5645 34.7394L43.4288 38.1465L44.8528 37.322L45.265 37.0888L45.2733 37.0847L46.689 36.2644L40.8247 32.8574L39.4007 33.6776L39.3965 33.6818L38.9885 33.915L37.5645 34.7394Z" fill="#FED57A"/>
<path d="M38.9883 33.9149L44.8526 37.322L45.2649 37.0888L45.2732 37.0847L39.4005 33.6776L39.3963 33.6818L38.9883 33.9149Z" fill="#EFAC41"/>
<path d="M44.853 37.322L44.8569 38.6753L45.2736 38.4373L45.2697 37.084L44.853 37.322Z" fill="#EFAC41"/>
<path d="M42.7074 40.1437L42.5952 40.3572L42.6647 40.3973L42.818 40.4851L42.7074 40.1437Z" fill="#3F434F"/>
<path d="M42.6648 40.3973L42.6636 40.8196L42.7474 40.868L42.7486 40.4457L42.6648 40.3973Z" fill="#3F434F"/>
<path d="M42.2483 40.6175L42.248 40.7079L42.8269 41.0421L42.8272 40.9517L42.2483 40.6175Z" fill="#3F434F"/>
<path d="M41.6332 39.5233L41.6323 39.8242C41.6321 39.9192 41.687 40.0296 41.7599 40.0856L41.7591 40.3568C41.708 40.3332 41.6694 40.3354 41.6693 40.3638L41.895 40.4941C41.8951 40.4657 41.8567 40.4191 41.8056 40.3836L41.8064 40.1124C41.8397 40.1257 41.8685 40.1225 41.8909 40.1084C41.9175 40.0887 41.9348 40.0517 41.935 39.999L41.9358 39.698L41.6332 39.5233Z" fill="#3F434F"/>
<path d="M42.3293 40.2036L42.3281 40.6259L42.412 40.6743L42.4132 40.252L42.3293 40.2036Z" fill="#3F434F"/>
<path d="M42.3719 39.9497L42.2603 40.1635L42.3297 40.2036L42.4825 40.2912L42.3719 39.9497Z" fill="#3F434F"/>
<path d="M33.1182 37.3048L33.1295 40.8818L38.9931 44.2889L38.9817 40.7119L33.1182 37.3048Z" fill="#EFAC41"/>
<path d="M37.4116 40.3453L37.4153 41.5216L38.4803 42.1405L38.4766 40.9642L37.4116 40.3453Z" fill="#E4E8F4"/>
<path d="M38.9814 40.7119L38.9928 44.2889L42.2526 42.4069L42.2412 38.8299L38.9814 40.7119Z" fill="#F9BB4A"/>
<path d="M33.1172 37.3071L38.9815 40.7141L40.4055 39.8897L40.8178 39.6565L40.8261 39.6524L42.2418 38.8321L36.3774 35.425L34.9534 36.2453L34.9492 36.2495L34.5412 36.4827L33.1172 37.3071Z" fill="#FED57A"/>
<path d="M34.541 36.4826L40.4054 39.8897L40.8176 39.6565L40.8259 39.6524L34.9532 36.2453L34.9491 36.2495L34.541 36.4826Z" fill="#EFAC41"/>
<path d="M40.4058 39.8897L40.4096 41.2429L40.8263 41.005L40.8225 39.6517L40.4058 39.8897Z" fill="#EFAC41"/>
<path d="M38.2601 42.7114L38.1479 42.9249L38.2174 42.965L38.3708 43.0528L38.2601 42.7114Z" fill="#3F434F"/>
<path d="M38.2175 42.965L38.2163 43.3873L38.3002 43.4357L38.3013 43.0134L38.2175 42.965Z" fill="#3F434F"/>
<path d="M37.801 43.1852L37.8008 43.2756L38.3796 43.6098L38.3799 43.5194L37.801 43.1852Z" fill="#3F434F"/>
<path d="M37.1859 42.091L37.1851 42.3919C37.1848 42.4869 37.2397 42.5973 37.3126 42.6533L37.3118 42.9245C37.2607 42.9009 37.2222 42.9031 37.2221 42.9315L37.4478 43.0618C37.4478 43.0334 37.4094 42.9868 37.3583 42.9513L37.3591 42.6801C37.3924 42.6934 37.4212 42.6902 37.4437 42.6761C37.4702 42.6563 37.4876 42.6194 37.4877 42.5666L37.4886 42.2657L37.1859 42.091Z" fill="#3F434F"/>
<path d="M37.8821 42.7713L37.8809 43.1936L37.9647 43.242L37.9659 42.8197L37.8821 42.7713Z" fill="#3F434F"/>
<path d="M37.9246 42.5174L37.813 42.7312L37.8825 42.7713L38.0352 42.8589L37.9246 42.5174Z" fill="#3F434F"/>
<path d="M28.6709 39.8724L28.6822 43.4494L34.5458 46.8565L34.5345 43.2796L28.6709 39.8724Z" fill="#EFAC41"/>
<path d="M32.9644 42.913L32.9681 44.0892L34.0331 44.7081L34.0294 43.5319L32.9644 42.913Z" fill="#E4E8F4"/>
<path d="M34.5342 43.2796L34.5455 46.8565L37.8053 44.9745L37.794 41.3975L34.5342 43.2796Z" fill="#F9BB4A"/>
<path d="M28.6699 39.8747L34.5343 43.2818L35.9583 42.4573L36.3705 42.2242L36.3788 42.22L37.7945 41.3997L31.9301 37.9927L30.5061 38.8129L30.502 38.8171L30.0939 39.0503L28.6699 39.8747Z" fill="#FED57A"/>
<path d="M30.0938 39.0503L35.9581 42.4573L36.3703 42.2241L36.3786 42.22L30.506 38.8129L30.5018 38.8171L30.0938 39.0503Z" fill="#EFAC41"/>
<path d="M35.9585 42.4573L35.9623 43.8106L36.379 43.5726L36.3752 42.2194L35.9585 42.4573Z" fill="#EFAC41"/>
<path d="M33.8129 45.279L33.7007 45.4925L33.7702 45.5326L33.9235 45.6205L33.8129 45.279Z" fill="#3F434F"/>
<path d="M33.7702 45.5326L33.769 45.9549L33.8529 46.0033L33.8541 45.581L33.7702 45.5326Z" fill="#3F434F"/>
<path d="M33.3538 45.7528L33.3535 45.8432L33.9324 46.1774L33.9326 46.087L33.3538 45.7528Z" fill="#3F434F"/>
<path d="M32.7386 44.6586L32.7378 44.9595C32.7375 45.0546 32.7924 45.1649 32.8653 45.2209L32.8646 45.4921C32.8134 45.4685 32.7749 45.4707 32.7748 45.4991L33.0005 45.6294C33.0006 45.601 32.9622 45.5544 32.9111 45.519L32.9118 45.2477C32.9452 45.261 32.9739 45.2578 32.9964 45.2437C33.0229 45.224 33.0403 45.1871 33.0404 45.1343L33.0413 44.8334L32.7386 44.6586Z" fill="#3F434F"/>
<path d="M33.4348 45.3389L33.4336 45.7613L33.5174 45.8097L33.5186 45.3873L33.4348 45.3389Z" fill="#3F434F"/>
<path d="M33.4773 45.085L33.3657 45.2988L33.4352 45.339L33.588 45.4265L33.4773 45.085Z" fill="#3F434F"/>
<path d="M34.542 32.244L34.5533 35.821L40.4169 39.2281L40.4056 35.6511L34.542 32.244Z" fill="#EFAC41"/>
<path d="M38.8354 35.2845L38.8392 36.4608L39.9042 37.0797L39.9005 35.9035L38.8354 35.2845Z" fill="#E4E8F4"/>
<path d="M40.4053 35.6511L40.4166 39.2281L43.6764 37.3461L43.6651 33.7691L40.4053 35.6511Z" fill="#F9BB4A"/>
<path d="M34.541 32.2463L40.4054 35.6534L41.8294 34.8289L42.2416 34.5957L42.2499 34.5916L43.6656 33.7713L37.8012 30.3643L36.3772 31.1845L36.3731 31.1887L35.965 31.4219L34.541 32.2463Z" fill="#FED57A"/>
<path d="M35.9648 31.4218L41.8292 34.8289L42.2414 34.5957L42.2497 34.5916L36.3771 31.1845L36.3729 31.1887L35.9648 31.4218Z" fill="#EFAC41"/>
<path d="M41.8296 34.8289L41.8334 36.1822L42.2501 35.9442L42.2463 34.5909L41.8296 34.8289Z" fill="#EFAC41"/>
<path d="M39.684 37.6506L39.5718 37.8641L39.6413 37.9042L39.7946 37.992L39.684 37.6506Z" fill="#3F434F"/>
<path d="M39.6413 37.9042L39.6401 38.3265L39.724 38.3749L39.7252 37.9526L39.6413 37.9042Z" fill="#3F434F"/>
<path d="M39.2249 38.1244L39.2246 38.2148L39.8035 38.549L39.8037 38.4586L39.2249 38.1244Z" fill="#3F434F"/>
<path d="M38.6097 37.0302L38.6089 37.3311C38.6086 37.4261 38.6635 37.5365 38.7364 37.5925L38.7357 37.8637C38.6845 37.8401 38.646 37.8423 38.6459 37.8707L38.8716 38.001C38.8717 37.9726 38.8333 37.926 38.7822 37.8905L38.7829 37.6193C38.8163 37.6326 38.845 37.6294 38.8675 37.6153C38.894 37.5955 38.9114 37.5586 38.9115 37.5058L38.9124 37.2049L38.6097 37.0302Z" fill="#3F434F"/>
<path d="M39.3059 37.7105L39.3047 38.1328L39.3885 38.1812L39.3897 37.7589L39.3059 37.7105Z" fill="#3F434F"/>
<path d="M39.3484 37.4566L39.2368 37.6704L39.3063 37.7105L39.4591 37.7981L39.3484 37.4566Z" fill="#3F434F"/>
<path d="M30.0947 34.8116L30.106 38.3886L35.9696 41.7957L35.9583 38.2188L30.0947 34.8116Z" fill="#EFAC41"/>
<path d="M34.3882 37.8522L34.3919 39.0284L35.4569 39.6474L35.4532 38.4711L34.3882 37.8522Z" fill="#E4E8F4"/>
<path d="M35.958 38.2188L35.9693 41.7957L39.2291 39.9137L39.2178 36.3367L35.958 38.2188Z" fill="#F9BB4A"/>
<path d="M30.0938 34.8139L35.9581 38.221L37.3821 37.3965L37.7943 37.1634L37.8026 37.1592L39.2183 36.339L33.354 32.9319L31.93 33.7522L31.9258 33.7563L31.5177 33.9895L30.0938 34.8139Z" fill="#FED57A"/>
<path d="M31.5176 33.9895L37.3819 37.3965L37.7942 37.1633L37.8025 37.1592L31.9298 33.7521L31.9256 33.7563L31.5176 33.9895Z" fill="#EFAC41"/>
<path d="M37.3823 37.3965L37.3862 38.7498L37.8029 38.5118L37.799 37.1586L37.3823 37.3965Z" fill="#EFAC41"/>
<path d="M35.2367 40.2182L35.1245 40.4317L35.194 40.4718L35.3473 40.5597L35.2367 40.2182Z" fill="#3F434F"/>
<path d="M35.1941 40.4718L35.1929 40.8941L35.2767 40.9425L35.2779 40.5202L35.1941 40.4718Z" fill="#3F434F"/>
<path d="M34.7776 40.692L34.7773 40.7824L35.3562 41.1166L35.3565 41.0262L34.7776 40.692Z" fill="#3F434F"/>
<path d="M34.1625 39.5978L34.1616 39.8987C34.1614 39.9938 34.2163 40.1041 34.2892 40.1601L34.2884 40.4313C34.2373 40.4077 34.1987 40.4099 34.1986 40.4383L34.4243 40.5686C34.4244 40.5402 34.386 40.4936 34.3349 40.4582L34.3357 40.1869C34.369 40.2002 34.3978 40.197 34.4202 40.1829C34.4468 40.1632 34.4641 40.1263 34.4643 40.0735L34.4651 39.7726L34.1625 39.5978Z" fill="#3F434F"/>
<path d="M34.8586 40.2781L34.8574 40.7005L34.9413 40.7489L34.9425 40.3265L34.8586 40.2781Z" fill="#3F434F"/>
<path d="M34.9012 40.0242L34.7896 40.2381L34.859 40.2782L35.0118 40.3657L34.9012 40.0242Z" fill="#3F434F"/>
<path d="M41.0923 26.2915L41.0963 27.662L42.3362 28.3824L42.3322 27.0119L41.7985 26.7009L41.638 26.6086L41.0923 26.2915Z" fill="#EFAC41"/>
<path d="M42.3306 27.0127L42.3356 28.3815L43.5831 27.6606L43.579 26.2931V26.291H43.577L43.0358 26.6047L42.9128 26.6765L42.8759 26.697L42.3306 27.0127Z" fill="#F9BB4A"/>
<path d="M41.0913 26.2928L42.3311 27.0132L42.8761 26.6976L43.0338 26.6083L43.037 26.6068L43.5788 26.2928L42.3391 25.5724L41.0913 26.2928Z" fill="#FED57A"/>
<path d="M41.6357 25.9772L42.8755 26.6976L43.0333 26.6083L43.0365 26.6067L41.7935 25.8864L41.7919 25.8879L41.6357 25.9772Z" fill="#E4E8F4"/>
<path d="M43.0375 26.933L42.877 27.0273L42.875 26.7009V26.6969L42.9111 26.6768L43.0355 26.6066V26.6086L43.0375 26.933Z" fill="#D4DAE8"/>
<path d="M42.5069 27.8L42.5475 27.8774L42.5223 27.8919L42.4668 27.9237L42.5069 27.8Z" fill="#3F434F"/>
<path d="M42.5221 27.8919L42.5225 28.0449L42.4921 28.0624L42.4917 27.9094L42.5221 27.8919Z" fill="#3F434F"/>
<path d="M42.673 27.9717L42.6731 28.0044L42.4635 28.1255L42.4634 28.0927L42.673 27.9717Z" fill="#3F434F"/>
<path d="M43.0559 27.492L43.0562 27.601C43.0563 27.6354 43.0364 27.6754 43.01 27.6956L43.0103 27.7939C43.0288 27.7853 43.0428 27.7861 43.0428 27.7964L42.9611 27.8436C42.961 27.8333 42.9749 27.8164 42.9934 27.8036L42.9932 27.7054C42.9811 27.7102 42.9707 27.709 42.9625 27.7039C42.9529 27.6967 42.9467 27.6834 42.9466 27.6643L42.9463 27.5553L43.0559 27.492Z" fill="#3F434F"/>
<path d="M42.6436 27.8218L42.6441 27.9747L42.6137 27.9923L42.6133 27.8393L42.6436 27.8218Z" fill="#3F434F"/>
<path d="M42.6284 27.7298L42.6689 27.8072L42.6437 27.8218L42.5884 27.8535L42.6284 27.7298Z" fill="#3F434F"/>
<path d="M42.8336 27.9484C42.8279 27.9453 42.8246 27.9388 42.8246 27.9307L42.8237 27.6034C42.8235 27.5891 42.8337 27.5716 42.8463 27.5642L43.1306 27.4001C43.1374 27.3962 43.1444 27.3957 43.15 27.3988C43.1555 27.4021 43.1588 27.4086 43.1588 27.4169L43.1598 27.7441C43.1598 27.7584 43.1499 27.776 43.1377 27.783L42.8534 27.9471C42.8495 27.9494 42.8455 27.9506 42.8418 27.9506C42.8388 27.9506 42.8361 27.9499 42.8336 27.9484ZM43.1366 27.4105L42.8523 27.5746C42.8435 27.5797 42.8357 27.5934 42.8357 27.6034L42.8366 27.9307C42.8367 27.9343 42.8377 27.9369 42.8395 27.938C42.8414 27.9388 42.8441 27.9386 42.8473 27.9367L43.1316 27.7726C43.1403 27.7676 43.1478 27.7543 43.1478 27.7441L43.1468 27.4169C43.1468 27.4131 43.1457 27.4103 43.144 27.4092C43.1434 27.4089 43.1427 27.4087 43.1419 27.4087C43.1405 27.4087 43.1386 27.4093 43.1366 27.4105Z" fill="#3F434F"/>
<path d="M42.41 28.1927C42.4044 28.1894 42.4013 28.183 42.4013 28.175L42.4004 27.8478C42.4002 27.8334 42.4104 27.8157 42.4229 27.8086L42.7072 27.6444C42.7141 27.6404 42.7209 27.6399 42.7266 27.6432C42.7323 27.6464 42.7354 27.653 42.7354 27.6611L42.7364 27.9885C42.7364 28.0031 42.7267 28.0202 42.7143 28.0274L42.43 28.1915C42.4262 28.1937 42.4221 28.1948 42.4184 28.1948C42.4154 28.1948 42.4125 28.1941 42.41 28.1927ZM42.7133 27.6548L42.429 27.819C42.4202 27.8241 42.4123 27.8377 42.4123 27.8478L42.4132 28.175C42.4132 28.1786 42.4143 28.1812 42.4161 28.1823C42.4179 28.1832 42.4209 28.1829 42.424 28.1811L42.7082 28.017C42.7168 28.012 42.7245 27.9987 42.7245 27.9885L42.7235 27.6611C42.7235 27.6574 42.7224 27.6547 42.7206 27.6536C42.7201 27.6533 42.7193 27.6531 42.7185 27.6531C42.717 27.6531 42.7153 27.6537 42.7133 27.6548Z" fill="#3F434F"/>
<path d="M44.3564 26.1625L44.3605 27.5331L45.6004 28.2534L45.5964 26.8829L45.0627 26.5719L44.9022 26.4796L44.3564 26.1625Z" fill="#EFAC41"/>
<path d="M45.5947 26.8837L45.5998 28.2526L46.8473 27.5316L46.8432 26.1641V26.162H46.8411L46.2999 26.4757L46.1769 26.5475L46.14 26.568L45.5947 26.8837Z" fill="#F9BB4A"/>
<path d="M44.3555 26.1638L45.5952 26.8842L46.1402 26.5686L46.298 26.4794L46.3012 26.4778L46.843 26.1638L45.6032 25.4434L44.3555 26.1638Z" fill="#FED57A"/>
<path d="M44.8999 25.8482L46.1397 26.5686L46.2975 26.4794L46.3006 26.4778L45.0577 25.7574L45.0561 25.759L44.8999 25.8482Z" fill="#E4E8F4"/>
<path d="M46.3017 26.804L46.1412 26.8983L46.1392 26.5719V26.5679L46.1753 26.5478L46.2997 26.4776V26.4796L46.3017 26.804Z" fill="#D4DAE8"/>
<path d="M45.771 27.6711L45.8116 27.7484L45.7865 27.7629L45.731 27.7948L45.771 27.6711Z" fill="#3F434F"/>
<path d="M45.7862 27.7629L45.7867 27.9159L45.7563 27.9334L45.7559 27.7805L45.7862 27.7629Z" fill="#3F434F"/>
<path d="M45.9372 27.8427L45.9372 27.8755L45.7276 27.9965L45.7275 27.9638L45.9372 27.8427Z" fill="#3F434F"/>
<path d="M46.32 27.363L46.3204 27.472C46.3204 27.5064 46.3006 27.5464 46.2742 27.5667L46.2744 27.6649C46.293 27.6564 46.3069 27.6572 46.3069 27.6674L46.2252 27.7146C46.2252 27.7043 46.2391 27.6875 46.2576 27.6746L46.2573 27.5764C46.2453 27.5812 46.2348 27.58 46.2267 27.5749C46.2171 27.5678 46.2108 27.5544 46.2108 27.5353L46.2104 27.4263L46.32 27.363Z" fill="#3F434F"/>
<path d="M45.9078 27.6928L45.9082 27.8458L45.8779 27.8633L45.8774 27.7103L45.9078 27.6928Z" fill="#3F434F"/>
<path d="M45.8926 27.6008L45.933 27.6783L45.9079 27.6928L45.8525 27.7245L45.8926 27.6008Z" fill="#3F434F"/>
<path d="M46.0978 27.8194C46.0921 27.8163 46.0888 27.8098 46.0888 27.8017L46.0879 27.4745C46.0877 27.4601 46.0979 27.4426 46.1104 27.4353L46.3947 27.2711C46.4016 27.2672 46.4085 27.2667 46.4141 27.2699C46.4197 27.2731 46.4229 27.2797 46.4229 27.2879L46.4239 27.6152C46.4239 27.6295 46.414 27.647 46.4019 27.654L46.1176 27.8182C46.1137 27.8204 46.1096 27.8216 46.1059 27.8216C46.103 27.8216 46.1002 27.8209 46.0978 27.8194ZM46.4008 27.2815L46.1165 27.4456C46.1077 27.4507 46.0998 27.4645 46.0998 27.4745L46.1007 27.8017C46.1008 27.8053 46.1019 27.808 46.1037 27.8091C46.1055 27.8098 46.1083 27.8096 46.1115 27.8078L46.3958 27.6437C46.4044 27.6387 46.412 27.6253 46.412 27.6152L46.411 27.2879C46.411 27.2842 46.4099 27.2813 46.4081 27.2803C46.4076 27.28 46.4069 27.2798 46.4061 27.2798C46.4046 27.2798 46.4028 27.2804 46.4008 27.2815Z" fill="#3F434F"/>
<path d="M45.6742 28.0637C45.6686 28.0605 45.6654 28.054 45.6654 28.0461L45.6646 27.7188C45.6644 27.7044 45.6745 27.6868 45.6871 27.6796L45.9714 27.5154C45.9782 27.5114 45.9851 27.5109 45.9908 27.5142C45.9965 27.5175 45.9996 27.524 45.9996 27.5322L46.0006 27.8595C46.0006 27.8741 45.9909 27.8913 45.9784 27.8984L45.6941 28.0625C45.6903 28.0648 45.6863 28.0659 45.6826 28.0659C45.6795 28.0659 45.6767 28.0652 45.6742 28.0637ZM45.9775 27.5258L45.6932 27.69C45.6843 27.6951 45.6765 27.7087 45.6765 27.7188L45.6774 28.0461C45.6774 28.0496 45.6785 28.0522 45.6802 28.0533C45.6821 28.0542 45.685 28.0539 45.6882 28.0521L45.9724 27.888C45.981 27.883 45.9886 27.8697 45.9886 27.8595L45.9876 27.5322C45.9876 27.5284 45.9866 27.5257 45.9848 27.5246C45.9842 27.5243 45.9834 27.5241 45.9826 27.5241C45.9812 27.5241 45.9794 27.5247 45.9775 27.5258Z" fill="#3F434F"/>
<path d="M42.8843 27.0139L42.8883 28.3844L44.1282 29.1048L44.1242 27.7343L43.5905 27.4233L43.43 27.331L42.8843 27.0139Z" fill="#EFAC41"/>
<path d="M44.1226 27.7351L44.1276 29.1039L45.3751 28.383L45.371 27.0155V27.0134H45.3689L44.8278 27.3271L44.7047 27.3989L44.6679 27.4194L44.1226 27.7351Z" fill="#F9BB4A"/>
<path d="M42.8833 27.0152L44.1231 27.7356L44.6681 27.42L44.8258 27.3308L44.829 27.3292L45.3708 27.0152L44.131 26.2948L42.8833 27.0152Z" fill="#FED57A"/>
<path d="M43.4277 26.6996L44.6675 27.42L44.8253 27.3307L44.8285 27.3292L43.5855 26.6088L43.5839 26.6104L43.4277 26.6996Z" fill="#E4E8F4"/>
<path d="M44.8295 27.6554L44.669 27.7497L44.667 27.4233V27.4193L44.7031 27.3992L44.8275 27.329V27.331L44.8295 27.6554Z" fill="#D4DAE8"/>
<path d="M44.2988 28.5225L44.3395 28.5998L44.3143 28.6143L44.2588 28.6461L44.2988 28.5225Z" fill="#3F434F"/>
<path d="M44.3141 28.6143L44.3145 28.7673L44.2841 28.7848L44.2837 28.6319L44.3141 28.6143Z" fill="#3F434F"/>
<path d="M44.465 28.6941L44.4651 28.7268L44.2555 28.8479L44.2554 28.8151L44.465 28.6941Z" fill="#3F434F"/>
<path d="M44.8479 28.2144L44.8482 28.3234C44.8483 28.3578 44.8284 28.3978 44.802 28.418L44.8023 28.5163C44.8208 28.5077 44.8347 28.5085 44.8348 28.5188L44.7531 28.566C44.753 28.5557 44.7669 28.5388 44.7854 28.526L44.7852 28.4278C44.7731 28.4326 44.7627 28.4314 44.7545 28.4263C44.7449 28.4192 44.7386 28.4058 44.7386 28.3867L44.7383 28.2777L44.8479 28.2144Z" fill="#3F434F"/>
<path d="M44.4356 28.5442L44.4361 28.6971L44.4057 28.7147L44.4053 28.5617L44.4356 28.5442Z" fill="#3F434F"/>
<path d="M44.4204 28.4522L44.4608 28.5296L44.4357 28.5442L44.3804 28.5759L44.4204 28.4522Z" fill="#3F434F"/>
<path d="M44.6256 28.6708C44.6199 28.6677 44.6166 28.6612 44.6166 28.6531L44.6157 28.3258C44.6155 28.3115 44.6257 28.294 44.6383 28.2866L44.9226 28.1225C44.9294 28.1186 44.9364 28.1181 44.9419 28.1213C44.9475 28.1245 44.9508 28.131 44.9508 28.1393L44.9517 28.4665C44.9517 28.4808 44.9418 28.4984 44.9297 28.5054L44.6454 28.6695C44.6415 28.6718 44.6375 28.673 44.6338 28.673C44.6308 28.673 44.6281 28.6723 44.6256 28.6708ZM44.9286 28.1329L44.6443 28.297C44.6355 28.3021 44.6277 28.3158 44.6277 28.3258L44.6286 28.6531C44.6287 28.6567 44.6297 28.6594 44.6315 28.6604C44.6334 28.6612 44.6361 28.661 44.6393 28.6592L44.9236 28.495C44.9323 28.49 44.9398 28.4767 44.9398 28.4665L44.9388 28.1393C44.9388 28.1356 44.9377 28.1327 44.936 28.1316C44.9354 28.1313 44.9347 28.1311 44.9339 28.1311C44.9324 28.1311 44.9306 28.1317 44.9286 28.1329Z" fill="#3F434F"/>
<path d="M44.202 28.9151C44.1964 28.9118 44.1933 28.9054 44.1933 28.8974L44.1924 28.5702C44.1922 28.5558 44.2024 28.5381 44.2149 28.531L44.4992 28.3668C44.5061 28.3628 44.5129 28.3623 44.5186 28.3656C44.5243 28.3688 44.5274 28.3754 44.5274 28.3835L44.5284 28.7109C44.5284 28.7255 44.5187 28.7426 44.5063 28.7498L44.222 28.9139C44.2182 28.9162 44.2141 28.9172 44.2104 28.9172C44.2074 28.9172 44.2045 28.9165 44.202 28.9151ZM44.5053 28.3772L44.221 28.5414C44.2122 28.5465 44.2043 28.5601 44.2043 28.5702L44.2052 28.8974C44.2052 28.901 44.2063 28.9036 44.2081 28.9047C44.2099 28.9056 44.2129 28.9053 44.216 28.9035L44.5002 28.7394C44.5088 28.7344 44.5165 28.7211 44.5165 28.7109L44.5155 28.3835C44.5155 28.3798 44.5144 28.3771 44.5126 28.376C44.512 28.3757 44.5113 28.3755 44.5105 28.3755C44.509 28.3755 44.5072 28.3761 44.5053 28.3772Z" fill="#3F434F"/>
<path d="M21.5681 27.1099L16.7596 24.3155L16.7529 23.2109L21.5614 26.0053L21.5681 27.1099Z" fill="#CAD0DD"/>
<path d="M23.614 24.8163L21.5627 26.006L16.7524 23.206L18.814 22.0265L23.614 24.8163Z" fill="#D4DAE8"/>
<path d="M23.6185 24.8177L23.6208 25.2295L21.5682 27.1099L21.5615 26.0053L23.6185 24.8177Z" fill="#BAC1CE"/>
<path d="M9.95286 20.3593L5.1444 17.5649L5.1377 16.4603L9.94616 19.2546L9.95286 20.3593Z" fill="#CAD0DD"/>
<path d="M11.9987 18.0657L9.94747 19.2554L5.13721 16.4554L7.19876 15.2759L11.9987 18.0657Z" fill="#D4DAE8"/>
<path d="M12.0032 18.067L12.0056 18.4788L9.95299 20.3592L9.94629 19.2546L12.0032 18.067Z" fill="#BAC1CE"/>
<path d="M35.8274 17.9124L31.0189 15.118L31.0122 14.0134L35.8207 16.8077L35.8274 17.9124Z" fill="#CAD0DD"/>
<path d="M37.8733 15.6188L35.822 16.8085L31.0117 14.0085L33.0733 12.829L37.8733 15.6188Z" fill="#D4DAE8"/>
<path d="M37.8778 15.6201L37.8801 16.0319L35.8275 17.9123L35.8208 16.8077L37.8778 15.6201Z" fill="#BAC1CE"/>
<path d="M24.2126 11.1618L19.4042 8.3674L19.3975 7.26276L24.2059 10.0571L24.2126 11.1618Z" fill="#CAD0DD"/>
<path d="M26.2585 8.86814L24.2072 10.0579L19.397 7.25788L21.4585 6.07837L26.2585 8.86814Z" fill="#D4DAE8"/>
<path d="M26.263 8.86951L26.2654 9.28128L24.2128 11.1617L24.2061 10.0571L26.263 8.86951Z" fill="#BAC1CE"/>
</svg>
