<svg width="39" height="50" viewBox="0 0 39 50" fill="none" xmlns="http://www.w3.org/2000/svg">
<path d="M21.1976 17.4968L21.0283 17.6096C21.0283 17.6096 20.471 18.2374 20.1888 18.5196C19.8996 18.8018 19.0955 19.6482 19.1096 19.9304C19.1237 20.2196 19.4552 20.4736 19.8079 20.7416C20.1536 21.0097 20.7179 21.2989 20.7179 21.2989C20.7179 21.2989 21.2822 21.4188 21.3527 21.447C21.4162 21.4752 22.044 21.447 22.0793 21.3906C22.1146 21.3342 22.3756 20.5441 22.3756 20.5229C22.3756 20.5018 22.2557 20.2902 22.1569 20.2902C22.0582 20.2902 21.9382 20.1773 21.9594 20.1491C21.9806 20.1209 22.1851 19.6482 22.171 19.2885C22.1569 18.9287 22.2698 18.5408 22.2698 18.5408L22.3967 18.1457L21.1976 17.4968Z" fill="#F2A983"/>
<path d="M11.4064 43.8366C11.3782 43.8366 11.35 43.8295 11.3218 43.8224C11.1948 43.7801 11.1243 43.6461 11.1666 43.5191L19.3493 21.1366C19.4128 20.9603 19.5962 20.7698 19.7726 20.6922L20.9999 20.1632C21.1269 20.1067 21.2751 20.1632 21.3315 20.2831C21.3879 20.403 21.3315 20.5441 21.2045 20.6005L19.9771 21.1296C19.9207 21.1507 19.836 21.2424 19.8149 21.2989L11.6322 43.6814C11.611 43.7801 11.5122 43.8366 11.4064 43.8366Z" fill="#E38E22"/>
<g opacity="0.5">
<path d="M11.4065 43.7589C11.3854 43.7589 11.3713 43.7589 11.3501 43.7519C11.2655 43.7237 11.2161 43.632 11.2443 43.5544L19.427 21.1719C19.4834 21.0167 19.6457 20.8403 19.8079 20.7768L21.0353 20.2478C21.12 20.2125 21.2187 20.2478 21.254 20.3254C21.2893 20.403 21.254 20.5017 21.1694 20.537L19.9419 21.066C19.8643 21.1013 19.7656 21.2001 19.7374 21.2777L11.5547 43.6602C11.5406 43.7166 11.4771 43.7589 11.4065 43.7589Z" fill="#E38E22"/>
</g>
<g opacity="0.5">
<path d="M11.4062 43.6813C11.3991 43.6813 11.385 43.6813 11.378 43.6743C11.3356 43.6602 11.3145 43.6179 11.3286 43.5755L19.5113 21.193C19.5607 21.059 19.7088 20.9038 19.8499 20.8403L21.0773 20.3113C21.1196 20.2901 21.169 20.3113 21.1901 20.3536C21.2113 20.3959 21.1901 20.4382 21.1478 20.4594L19.9204 20.9885C19.8216 21.0308 19.7088 21.1507 19.6735 21.2495L11.4908 43.632C11.4767 43.6602 11.4414 43.6813 11.4062 43.6813Z" fill="#E38E22"/>
</g>
<g opacity="0.5">
<path d="M11.4059 43.6249C11.3848 43.6179 11.3848 43.6108 11.3848 43.5967L19.5675 21.2142C19.6098 21.0943 19.7509 20.9532 19.8708 20.8968L21.0982 20.3677C21.1053 20.3607 21.1194 20.3677 21.1264 20.3748C21.1335 20.3818 21.1264 20.396 21.1123 20.403L19.8849 20.9321C19.772 20.9814 19.6451 21.1155 19.6028 21.2283L11.42 43.6108C11.42 43.6179 11.42 43.6249 11.4059 43.6249Z" fill="#E38E22"/>
</g>
<path d="M20.8867 20.1209C20.8867 20.1209 21.1266 19.9233 21.4299 20.1561C21.571 20.2619 21.5146 20.664 21.5146 20.664L20.3083 21.0873C20.3506 20.6852 20.0967 20.5088 20.0967 20.5088V20.4877L20.8867 20.1209Z" fill="#3B4447"/>
<path d="M25.5426 30.9347C25.5003 30.9347 25.458 30.9276 25.4227 30.8994L17.6562 26.6599C17.5363 26.5965 17.494 26.4483 17.5645 26.3355C17.635 26.2226 17.7902 26.1802 17.9101 26.2508L25.6767 30.4903C25.7966 30.5538 25.8389 30.7019 25.7684 30.8148C25.7119 30.8924 25.6273 30.9347 25.5426 30.9347Z" fill="#E38E22"/>
<g opacity="0.5">
<path d="M25.5427 30.8571C25.5145 30.8571 25.4863 30.8501 25.4581 30.8359L17.6915 26.5965C17.6139 26.5541 17.5857 26.4554 17.6281 26.3778C17.6704 26.3002 17.7762 26.279 17.8538 26.3214L25.6203 30.5608C25.6979 30.6032 25.7261 30.7019 25.6838 30.7795C25.6556 30.8289 25.5991 30.8571 25.5427 30.8571Z" fill="#E38E22"/>
</g>
<g opacity="0.5">
<path d="M25.5422 30.7795C25.528 30.7795 25.5139 30.7725 25.4998 30.7654L17.7333 26.5259C17.691 26.5048 17.6769 26.4554 17.7051 26.4201C17.7263 26.3849 17.7757 26.3707 17.818 26.3919L25.5845 30.6314C25.6268 30.6526 25.6409 30.7019 25.6127 30.7372C25.5986 30.7584 25.5704 30.7795 25.5422 30.7795Z" fill="#E38E22"/>
</g>
<g opacity="0.5">
<path d="M25.5433 30.716H25.5362L17.7697 26.4765C17.7627 26.4695 17.7556 26.4624 17.7627 26.4483C17.7697 26.4413 17.7839 26.4342 17.7909 26.4413L25.5574 30.6808C25.5645 30.6878 25.5715 30.6949 25.5645 30.709C25.5574 30.716 25.5504 30.716 25.5433 30.716Z" fill="#E38E22"/>
</g>
<path d="M22.7772 38.8705C22.7349 38.8705 22.6926 38.8635 22.6502 38.8353L14.8837 34.5958C14.7638 34.5323 14.7215 34.3842 14.792 34.2713C14.8626 34.1584 15.0178 34.1161 15.1377 34.1866L22.9042 38.4261C23.0241 38.4896 23.0664 38.6377 22.9959 38.7506C22.9465 38.8282 22.8619 38.8705 22.7772 38.8705Z" fill="#E38E22"/>
<g opacity="0.5">
<path d="M22.7781 38.793C22.7498 38.793 22.7216 38.7859 22.6934 38.7718L14.9269 34.5323C14.8493 34.49 14.8211 34.3912 14.8634 34.3137C14.9128 34.2361 15.0115 34.2149 15.0891 34.2572L22.8556 38.4967C22.9332 38.539 22.9614 38.6378 22.9191 38.7154C22.8909 38.7647 22.8345 38.793 22.7781 38.793Z" fill="#E38E22"/>
</g>
<g opacity="0.5">
<path d="M22.7783 38.7153C22.7642 38.7153 22.75 38.7083 22.7359 38.7012L14.9765 34.4617C14.9342 34.4406 14.9201 34.3912 14.9483 34.3559C14.9694 34.3206 15.0259 34.3065 15.0611 34.3277L22.8276 38.5672C22.87 38.5883 22.8841 38.6377 22.8559 38.673C22.8347 38.7012 22.8065 38.7153 22.7783 38.7153Z" fill="#E38E22"/>
</g>
<g opacity="0.5">
<path d="M22.7777 38.6518H22.7706L15.0041 34.4123C14.9971 34.4053 14.99 34.3982 14.9971 34.3841C15.0041 34.3771 15.0182 34.37 15.0253 34.3771L22.7918 38.6166C22.7988 38.6236 22.8059 38.6306 22.7988 38.6448C22.7918 38.6518 22.7847 38.6518 22.7777 38.6518Z" fill="#E38E22"/>
</g>
<path d="M29.7615 41.4875C29.7615 41.4875 30.1988 42.461 30.0013 43.2158C30.0013 43.2158 29.9661 43.3639 29.4088 43.639C28.8515 43.9071 28.4917 44.1117 28.139 44.5702C27.7863 45.0216 27.4054 45.7411 25.9876 45.9246C24.5697 46.108 23.7232 45.6353 23.6104 45.3391C23.6104 45.3391 23.6456 44.7677 24.6191 43.9847C25.5925 43.2087 26.5166 42.3975 26.5166 42.3975C26.5166 42.3975 26.8693 42.1506 27.2361 42.3975C27.6029 42.6444 27.5112 43.0888 28.0544 43.0747C28.5976 43.0606 29.1337 42.595 29.3523 42.2564C29.564 41.9178 29.7615 41.4875 29.7615 41.4875Z" fill="#673A1A"/>
<path d="M25.9874 45.9175C27.4052 45.7341 27.7791 45.0217 28.1388 44.5632C28.4915 44.1117 28.8443 43.9071 29.4086 43.632C29.9658 43.364 30.0011 43.2088 30.0011 43.2088C30.0082 43.1876 30.0082 43.1735 30.0152 43.1523C30.0293 43.3428 30.0505 43.5121 30.0011 43.6955C30.0011 43.6955 29.9658 43.8436 29.4086 44.1187C29.204 44.2175 29.0277 44.3092 28.8725 44.4009L28.6185 44.288C28.4492 44.415 28.294 44.5632 28.1459 44.7607C27.7932 45.2121 27.4123 45.9246 25.9944 46.108C24.5766 46.2914 23.7301 45.8188 23.6172 45.5225C23.6172 45.5225 23.6172 45.4731 23.6525 45.3814C23.8429 45.6848 24.6683 46.0868 25.9874 45.9175Z" fill="#000508"/>
<path d="M37.1183 34.0596C37.1183 34.0596 37.8661 34.7862 37.9225 35.5692C37.9225 35.5692 37.7038 36.0701 37.2806 36.324C36.8573 36.5779 35.9756 37.0999 35.7216 37.6572C35.4677 38.2145 35.3195 39.1597 34.3108 39.4913C33.3021 39.8299 32.3568 39.9921 31.9336 39.2655C31.9336 39.2655 32.0606 38.4543 32.4203 37.9958C32.773 37.5373 34.0004 36.4862 34.1768 36.1194C34.1768 36.1194 34.4519 36.0771 34.6423 36.197C34.8258 36.3169 35.1926 36.3663 35.5594 36.2323C35.9191 36.1124 37.1818 34.5605 37.1183 34.0596Z" fill="#673A1A"/>
<path d="M31.9334 39.2584C31.9405 39.2373 31.9405 39.2161 31.9476 39.1949C31.9405 39.2443 31.9334 39.2726 31.9334 39.2726C32.3567 39.9991 33.3019 39.8298 34.3106 39.4983C35.3194 39.1597 35.4675 38.2215 35.7215 37.6642C35.9754 37.107 36.8572 36.585 37.2804 36.331C37.7037 36.0771 37.9223 35.5762 37.9223 35.5762C37.9223 35.5621 37.9223 35.5551 37.9223 35.541C37.9788 35.6891 38.0211 35.8513 38.0352 36.0065C38.0352 36.0065 37.8165 36.5074 37.3933 36.7613C37.1887 36.8812 36.8854 37.0646 36.5962 37.2762C36.5045 37.241 36.4057 37.2057 36.2999 37.1634C36.053 37.3679 35.8414 37.5937 35.7356 37.8265C35.4816 38.3837 35.3335 39.329 34.3248 39.6676C33.316 40.0062 32.3708 40.1684 31.9476 39.4418C31.9334 39.4418 31.9264 39.3078 31.9334 39.2584Z" fill="#000508"/>
<path d="M26.4316 21.1648C26.6432 24.2615 27.9482 25.5454 29.5847 28.0355C31.2283 30.5256 33.4645 33.326 33.8877 36.5003C33.8877 36.5003 36.9985 36.846 37.6757 34.8215C37.6757 34.8215 36.1027 31.4637 35.4819 29.9118C34.8611 28.3599 32.879 26.5682 32.879 26.5682L31.313 22.0819C31.313 22.0678 26.354 20.0714 26.4316 21.1648Z" fill="#005D8B"/>
<path d="M27.9269 31.2874C27.9763 29.8765 28.8581 22.2441 28.8581 22.2441L35.115 22.0607C34.7411 24.3885 32.0253 31.2874 31.9266 32.148C31.8349 33.0085 32.1876 35.6327 31.5104 37.3115C30.8332 38.9904 30.0502 42.7149 30.0502 42.7149C27.9763 43.8365 26.248 42.6162 26.248 42.6162C27.7999 39.6041 27.8775 32.7052 27.9269 31.2874Z" fill="#0B6A98"/>
<path d="M22.4031 18.1527L21.9022 17.8776C21.7894 17.9623 21.6765 18.0893 21.6413 18.2797C21.5778 18.6959 21.7682 18.8793 21.5354 19.1403C21.3027 19.4013 21.211 19.4366 21.2533 19.7611C21.2956 20.0856 21.3097 20.2972 21.3097 20.5511C21.3097 20.7839 21.4155 21.2354 21.1475 21.4046C21.2462 21.4258 21.3238 21.447 21.345 21.454C21.4085 21.4822 22.0363 21.454 22.0716 21.3976C22.1068 21.3412 22.3678 20.5511 22.3678 20.53C22.3678 20.5088 22.2479 20.2972 22.1491 20.2972C22.0504 20.2972 21.9305 20.1843 21.9516 20.1561C21.9728 20.1279 22.1774 19.6553 22.1632 19.2955C22.1491 18.9357 22.262 18.5478 22.262 18.5478L22.4031 18.1527Z" fill="#D88F69"/>
<path d="M30.7279 23.1611C30.7279 23.1611 30.488 23.4151 30.2059 23.4997C29.9237 23.5773 28.8585 23.9159 28.6046 24.1064C28.3507 24.2968 27.8428 24.8964 27.8428 24.8964C27.8428 24.8964 27.7087 25.8769 27.8428 25.9334C27.9768 25.9898 28.266 25.8134 28.266 25.8134L28.4282 25.6018C28.4282 25.6018 28.6681 26.3919 28.8374 26.4342C29.0067 26.4765 29.2395 26.6247 29.3594 26.6882C29.4723 26.7516 30.3117 26.8222 30.4598 26.7657C30.608 26.7093 30.9465 26.2649 30.9465 26.2508C30.9465 26.2367 31.3345 24.6072 31.7366 24.3674L30.7279 23.1611Z" fill="#F2A983"/>
<path d="M30.452 26.7587C30.5226 26.7305 30.6425 26.6106 30.7483 26.4906C30.3815 26.406 29.6761 26.3778 29.3939 26.3496C29.013 26.3213 28.8649 26.0603 28.9072 25.9193C28.9495 25.7711 29.2881 25.623 29.3445 25.5736C29.401 25.5242 29.3093 25.3197 29.3022 25.1222C29.2952 24.9246 29.2035 24.9105 28.9566 24.9105C28.7097 24.9105 28.484 25.1715 28.484 25.1715L28.4346 25.5948C28.4346 25.5948 28.6744 26.3848 28.8437 26.4271C29.013 26.4695 29.2458 26.6176 29.3657 26.6811C29.4645 26.7446 30.3039 26.8222 30.452 26.7587Z" fill="#D88F69"/>
<path d="M20.9932 17.6026C20.9932 17.6026 21.8114 17.7295 22.3123 18.6254C22.3123 18.6254 26.3542 15.9519 27.2642 14.7739C28.1742 13.5888 28.5833 6.02686 28.5833 6.02686C28.5833 6.02686 26.9891 6.49947 26.58 7.74098C26.1708 8.98955 26.4812 9.37753 26.0015 10.8377C25.5218 12.2979 25.1268 12.9116 25.1268 12.9116C25.1268 12.9116 21.1977 17.264 20.9932 17.6026Z" fill="#FFCD00"/>
<path d="M27.6376 8.55221C27.6376 8.55221 26.7841 8.2348 26.7982 8.85555C26.8123 9.46926 26.8687 9.3211 26.7135 10.3157C26.5584 11.3033 26.5795 12.6154 26.0646 12.7071C25.5496 12.7988 25.2463 12.6647 25.4297 13.0739C25.6202 13.4759 25.9799 14.5129 24.5197 15.9096C23.7438 16.6503 22.6504 17.4333 21.7969 18.0117C21.9732 18.1598 22.1566 18.3573 22.3048 18.6325C22.3048 18.6325 26.3467 15.959 27.2567 14.781C27.7858 14.0897 28.1455 11.2398 28.3571 8.97546L27.6376 8.55221Z" fill="#D68F00"/>
<path d="M30.1701 6.1679C29.7398 6.00566 28.7028 5.89983 28.5759 6.01975C28.4489 6.13967 27.4966 7.18367 27.2074 8.70734C26.9182 10.231 26.7277 11.7053 26.8829 12.4672C27.0381 13.229 27.0874 14.9784 27.1721 16.227C27.2567 17.4755 26.3679 21.0519 26.3186 21.0872C26.2692 21.1154 26.5231 22.2229 29.6551 22.9495C32.7871 23.676 35.4606 22.3358 35.4606 22.3358C35.4606 22.3358 34.3108 19.3378 34.5718 17.9622C34.8257 16.5867 35.8204 14.4987 35.8204 14.4987L37.1395 10.1323C37.1395 10.1323 35.2843 7.8538 34.5718 7.18366C33.8664 6.50647 30.1701 6.1679 30.1701 6.1679Z" fill="#FFCD00"/>
<path d="M35.8204 14.4917L36.2577 13.0385L35.4748 12.7846C35.4748 12.7846 33.8664 12.3825 33.6619 13.2854C33.4573 14.1954 33.3726 14.5481 33.0975 14.7456C32.8224 14.9431 32.0182 14.4211 32.2581 15.8954C32.4979 17.3697 33.1822 18.7312 32.2158 19.3166C31.2494 19.9021 31.2635 20.3536 31.2987 20.7909C31.3199 21.1013 30.3323 22.2935 29.7539 22.9636C32.8436 23.6408 35.4606 22.3287 35.4606 22.3287C35.4606 22.3287 34.3108 19.3308 34.5718 17.9552C34.8328 16.5797 35.8204 14.4917 35.8204 14.4917Z" fill="#D68F00"/>
<path d="M30.6006 23.1752L31.7292 24.6495C31.7292 24.6495 36.7658 20.7486 37.4642 19.9656C38.1696 19.1897 38.1484 14.8655 38.1343 13.7792C38.1202 12.6929 37.7393 10.4709 37.1397 10.1252C36.5401 9.77956 34.438 10.6543 34.3674 12.2273C34.2969 13.8004 35.2562 17.3909 35.0658 18.7735L30.6006 23.1752Z" fill="#FFCD00"/>
<path d="M33.8326 5.17328C33.8326 5.17328 33.6985 6.12557 33.9666 6.64051C34.2276 7.15546 33.2753 7.68451 32.1114 8.15713C30.9475 8.6227 30.6935 8.37582 30.5172 8.17125C30.1433 7.74095 30.2279 6.47826 30.2279 6.47826L33.8326 5.17328Z" fill="#D88F69"/>
<path opacity="0.15" d="M30.002 7.62103C30.1078 7.05671 30.2277 6.47826 30.2277 6.47826L33.8323 5.17328C33.8323 5.17328 33.6983 6.12557 33.9663 6.64051C34.0651 6.83097 34.0016 7.16252 33.8182 7.52933L33.2398 7.98078C33.2398 7.98078 33.268 6.74632 32.5767 6.99321C31.9771 7.21189 30.9613 7.65631 30.002 7.62103Z" fill="#D88F69"/>
<path d="M30.5162 8.17128L29.3311 9.27875C29.3311 9.27875 29.451 7.29656 29.5568 6.41481L30.1634 6.13971C30.1705 6.13971 30.3398 7.74098 30.5162 8.17128Z" fill="#ECA600"/>
<path d="M33.4504 1.02552C32.6392 0.510571 31.3483 0.566991 30.4384 1.14542C29.5284 1.72386 29.2886 2.42927 29.211 2.73965C29.1334 3.05708 29.0276 3.32514 28.95 3.56498C28.8724 3.80482 29.1334 4.10813 29.1334 4.10813C28.8512 4.44673 29.0699 5.25088 29.1334 5.4484C29.0981 5.52599 29.084 5.58949 29.084 5.63181C29.0981 5.75173 29.1616 5.80816 29.2462 5.82932C29.3097 6.09032 29.3591 6.40069 29.3591 6.52767C29.3591 6.72518 29.3309 7.36709 30.135 7.3812C30.9392 7.39531 32.089 6.94385 32.8226 6.39364C33.5492 5.84342 34.311 4.73594 34.5297 3.6214C34.7484 2.51392 34.2616 1.54046 33.4504 1.02552Z" fill="#F2A983"/>
<path d="M28.9504 3.57198C29.028 3.33214 29.1338 3.05705 29.2114 2.74667C29.2114 2.73961 29.2185 2.73255 29.2185 2.71844C29.8322 2.78899 31.3276 3.04294 32.8372 3.80477C32.8584 3.81183 32.8795 3.82592 32.9007 3.83298C32.7385 4.01638 31.9272 4.6301 31.0596 4.77824C30.3965 4.8911 30.199 4.44669 29.1197 4.08693C29.0492 4.00934 28.8799 3.76949 28.9504 3.57198Z" fill="#D88F69"/>
<path d="M29.1267 5.44839C29.2395 5.19444 29.5146 4.79941 29.5852 4.53841C29.6839 4.20687 28.9785 3.86829 28.9785 3.86829C29.0349 4.00231 29.1267 4.10812 29.1267 4.10812C28.8445 4.44672 29.0702 5.25087 29.1267 5.44839Z" fill="#D88F69"/>
<path opacity="0.15" d="M33.4502 1.02552C32.639 0.510571 31.3481 0.566991 30.4381 1.14542C29.7115 1.60394 29.4153 2.14711 29.2812 2.50687C29.4012 2.76787 29.5705 2.97242 29.8032 3.0218C30.6004 3.18405 31.3481 2.95126 31.7502 3.06413C32.0535 3.14877 32.2087 3.69899 32.2439 4.19278C32.2792 4.68656 32.6037 4.85586 32.4979 5.40608C32.4062 5.88575 31.6937 6.59821 31.4962 7.1061C31.9759 6.92975 32.4415 6.67581 32.8083 6.40776C33.5348 5.85754 34.2967 4.75004 34.5153 3.6355C34.7481 2.51391 34.2614 1.54046 33.4502 1.02552Z" fill="#F2A983"/>
<path d="M32.548 4.26331C32.6397 4.48904 32.7384 4.77826 32.8866 4.85585C32.9783 4.90523 33.1546 4.76414 33.1969 4.71476C33.3027 4.59484 34.0646 3.76953 34.1069 4.79237C34.2974 4.4185 34.4455 4.02348 34.5231 3.62845C34.5513 3.46621 34.5725 3.30397 34.5795 3.14172C33.8671 3.48737 32.9853 3.61433 32.5127 3.65666C32.548 3.9106 32.4986 4.15045 32.548 4.26331Z" fill="#634024"/>
<path d="M29.6907 7.28248C29.7613 6.34429 29.5779 5.87167 29.5779 5.87167C29.5638 5.82934 29.3803 5.87872 29.2393 5.82935C29.3027 6.09035 29.3521 6.40072 29.3521 6.52769C29.3592 6.68288 29.338 7.09202 29.6907 7.28248Z" fill="#D88F69"/>
<path d="M33.1475 5.64591C33.2462 5.70234 33.4719 5.787 33.9163 5.34259C34.3608 4.89113 34.3537 4.47495 34.135 4.33387C33.9163 4.19279 33.7047 4.27743 33.5919 4.43967C33.472 4.60192 33.1475 5.64591 33.1475 5.64591Z" fill="#F2A983"/>
<path opacity="0.15" d="M33.1475 5.64591C33.2462 5.70234 33.4719 5.787 33.9163 5.34259C34.3608 4.89113 34.3537 4.47495 34.135 4.33387C33.9163 4.19279 33.7047 4.27743 33.5919 4.43967C33.472 4.60192 33.1475 5.64591 33.1475 5.64591Z" fill="#F2A983"/>
<path d="M34.3182 4.46082C34.3182 4.46082 33.4294 3.87534 32.8369 3.57907C30.8617 2.57739 28.9219 2.46454 28.9219 2.46454C28.9219 2.46454 29.6061 1.02549 30.0928 0.482329C30.5443 -0.0185083 31.8987 -0.265391 33.1614 0.425906C34.7909 1.31472 34.7626 2.18236 34.7626 2.90892C34.7626 3.36038 34.6145 3.76247 34.3182 4.46082Z" fill="#FFCD00"/>
<path d="M28.9222 2.45746C28.9222 2.45746 30.8621 2.57737 32.8372 3.57199C32.8584 3.57904 32.8796 3.59316 32.9007 3.60021C32.7385 3.78362 31.9273 4.39732 31.0596 4.54545C30.3683 4.65832 30.1849 4.1716 28.9646 3.80478C27.9911 3.50851 27.2998 3.6778 27.2998 3.6778C27.2998 3.6778 27.6596 3.27572 28.104 2.95829C28.5484 2.64086 28.9222 2.45746 28.9222 2.45746Z" fill="#FFDD4D"/>
<path d="M33.8743 6.13971C33.8743 6.13971 32.7034 7.74098 30.5166 8.17128L30.834 9.92067C30.834 9.92067 33.9308 7.875 34.5021 7.10611L33.8743 6.13971Z" fill="#ECA600"/>
<path d="M23.1228 45.5225L22.0576 44.937C21.9024 44.8664 21.7261 44.8382 21.5215 44.8523C20.5692 44.9299 19.4688 46.0163 19.0667 47.2789C18.7493 48.2665 18.9538 49.0706 19.5181 49.3316L20.4775 49.8678C20.6468 49.9736 20.8584 50.0159 21.1053 49.9947C22.0576 49.9171 23.158 48.8308 23.5672 47.5681C23.8776 46.5876 23.673 45.7905 23.1228 45.5225Z" fill="#2E373A"/>
<path d="M23.5607 47.5682C23.1515 48.8308 22.0511 49.9172 21.0988 49.9948C20.1465 50.0724 19.7021 49.113 20.1042 47.8504C20.5063 46.5877 21.6067 45.5014 22.566 45.4238C23.5183 45.3532 23.9698 46.3126 23.5607 47.5682Z" fill="#3B4447"/>
<path d="M23.0812 47.6105C22.792 48.5205 21.9949 49.3035 21.3107 49.3599C20.6264 49.4163 20.302 48.725 20.5912 47.8151C20.8804 46.9051 21.6775 46.1221 22.3617 46.0657C23.053 46.0092 23.3705 46.7005 23.0812 47.6105Z" fill="#ECB700"/>
<path d="M22.3326 47.674C22.2127 48.0408 21.8953 48.3512 21.6272 48.3723C21.3521 48.3935 21.2251 48.1184 21.338 47.7586C21.4579 47.3918 21.7753 47.0814 22.0434 47.0603C22.3185 47.0321 22.4525 47.3072 22.3326 47.674Z" fill="#FFD119"/>
<path d="M22.4664 47.7375C22.3465 48.1043 22.0291 48.4147 21.761 48.4358C21.4859 48.457 21.3589 48.1819 21.4718 47.8151C21.5917 47.4483 21.9091 47.1379 22.1772 47.1167C22.4523 47.0956 22.5793 47.3777 22.4664 47.7375Z" fill="#ECB700"/>
<path d="M22.2413 47.7587C22.1778 47.9562 22.0015 48.1326 21.8533 48.1396C21.7052 48.1537 21.6347 47.9985 21.6982 47.801C21.7617 47.6035 21.938 47.4271 22.0861 47.4201C22.2343 47.406 22.3048 47.5612 22.2413 47.7587Z" fill="#3B4447"/>
<path d="M22.7767 46.1432C23.0447 46.4042 23.1223 46.9051 22.9319 47.5047C22.6427 48.4146 21.8455 49.1977 21.1613 49.2541C21.0061 49.2682 20.865 49.24 20.7451 49.1765C20.8862 49.3105 21.0766 49.3811 21.3094 49.3599C21.9937 49.3035 22.7908 48.5205 23.08 47.6105C23.3057 46.9122 23.1647 46.3408 22.7767 46.1432Z" fill="#FFD119"/>
<path d="M19.2421 48.6899C19.2139 48.6899 19.1857 48.6828 19.1574 48.6757C19.0234 48.6334 18.9599 48.4994 19.0023 48.3724L27.185 25.9899C27.2484 25.8136 27.4318 25.6231 27.6082 25.5455L28.8356 25.0164C28.9626 24.96 29.1107 25.0165 29.1671 25.1364C29.2236 25.2563 29.1671 25.3974 29.0402 25.4468L27.8128 25.9758C27.7563 25.997 27.6717 26.0887 27.6505 26.1451L19.4678 48.5276C19.4467 48.6334 19.3479 48.6899 19.2421 48.6899Z" fill="#E38E22"/>
<g opacity="0.5">
<path d="M19.2425 48.6122C19.2213 48.6122 19.2072 48.6122 19.186 48.6052C19.1014 48.577 19.052 48.4853 19.0802 48.4077L27.2629 26.0252C27.3194 25.87 27.4816 25.7007 27.6439 25.6302L28.8713 25.1011C28.9559 25.0658 29.0547 25.1011 29.0899 25.1787C29.1252 25.2563 29.0899 25.3551 29.0053 25.3903L27.7779 25.9194C27.7003 25.9547 27.6015 26.0534 27.5733 26.131L19.3906 48.5135C19.3765 48.5699 19.313 48.6122 19.2425 48.6122Z" fill="#E38E22"/>
</g>
<g opacity="0.5">
<path d="M19.2421 48.5346C19.2351 48.5346 19.2209 48.5346 19.2139 48.5276C19.1716 48.5135 19.1504 48.4711 19.1645 48.4288L27.3472 26.0463C27.3966 25.9123 27.5447 25.7571 27.6858 25.6936L28.9132 25.1646C28.9555 25.1434 29.0049 25.1646 29.0261 25.2069C29.0472 25.2492 29.0261 25.2915 28.9838 25.3127L27.7564 25.8417C27.6576 25.8841 27.5447 26.004 27.5095 26.1027L19.3268 48.4852C19.3127 48.5135 19.2774 48.5346 19.2421 48.5346Z" fill="#E38E22"/>
</g>
<g opacity="0.5">
<path d="M19.2419 48.4782H19.2348C19.2207 48.4711 19.2207 48.4641 19.2207 48.45L27.4034 26.0675C27.4457 25.9476 27.5868 25.8065 27.7067 25.7501L28.9271 25.221C28.9341 25.2139 28.9482 25.221 28.9553 25.2281C28.9623 25.2351 28.9553 25.2492 28.9482 25.2563L27.7208 25.7853C27.608 25.8347 27.481 25.9687 27.4387 26.0816L19.256 48.4641C19.263 48.4712 19.2489 48.4782 19.2419 48.4782Z" fill="#E38E22"/>
</g>
<path d="M28.7236 24.9741C28.7236 24.9741 28.9635 24.7766 29.2668 25.0093C29.4079 25.1152 29.3514 25.5172 29.3514 25.5172L28.1452 25.9405C28.1875 25.5384 27.9336 25.362 27.9336 25.362V25.3409L28.7236 24.9741Z" fill="#3B4447"/>
<path d="M19.3633 48.7462L7.99219 47.2296L8.06273 47.0391L19.4339 48.5628L19.3633 48.7462Z" fill="#E38E22"/>
<path d="M8.06277 47.0391L7.99223 47.2296L0 42.8067L0.0634839 42.6233L8.06277 47.0391Z" fill="#FFB400"/>
<path d="M19.4339 48.5628L8.06277 47.0391L0.0634766 42.6233L11.4417 44.1399L19.4339 48.5628Z" fill="#FFCB4D"/>
<path d="M9.93848 46.9756L18.9324 48.1818L21.4648 41.2477L12.4145 40.0414L9.93848 46.9756Z" fill="#CCAC88"/>
<path d="M12.4151 40.0415L21.4091 41.2477L13.7625 37.0153L4.76855 35.809L12.4151 40.0415Z" fill="#D9B995"/>
<path d="M12.4148 40.0415L9.9388 46.9756L2.28516 42.7431L4.7682 35.809L12.4148 40.0415Z" fill="#B39372"/>
<path d="M9.77001 36.4792L8.77539 36.3452L16.422 40.5776L17.4236 40.7116L9.77001 36.4792Z" fill="#FFFFEB"/>
<path d="M16.5623 43.0041L17.3876 40.7045L16.4283 40.5776L15.5889 42.8701L16.5623 43.0041Z" fill="#CDCDB9"/>
<path d="M14.016 45.5436L14.0372 45.5013L14.009 45.4943L13.9949 45.5366C13.8679 45.5295 13.7197 45.6071 13.5928 45.7482C13.6139 45.7341 13.6281 45.727 13.6492 45.7341C13.6774 45.7412 13.6986 45.7764 13.6845 45.8187C13.7127 45.7764 13.748 45.7482 13.7832 45.7553C13.8115 45.7623 13.8256 45.7976 13.8185 45.8399C13.8467 45.7976 13.882 45.7694 13.9173 45.7764C13.9455 45.7835 13.9666 45.8187 13.9525 45.8611C13.9808 45.8187 14.016 45.7905 14.0513 45.7976C14.0795 45.8046 14.0936 45.8399 14.0866 45.8822C14.1148 45.8399 14.15 45.8117 14.1853 45.8187C14.1994 45.8187 14.2135 45.8329 14.2206 45.847C14.2065 45.6847 14.1359 45.5648 14.016 45.5436Z" fill="black"/>
<path d="M13.5293 46.637H13.5575L13.9032 45.8188L13.8749 45.8117L13.5293 46.637Z" fill="black"/>
<path d="M13.395 46.7711C13.3526 46.764 13.3385 46.7147 13.3667 46.6512L13.3385 46.6441C13.3033 46.7288 13.3244 46.8064 13.3809 46.8134C13.4373 46.8205 13.5149 46.757 13.5501 46.6723L13.5219 46.6653C13.4867 46.7358 13.4302 46.7781 13.395 46.7711Z" fill="black"/>
<path d="M12.7463 45.3109L12.5558 45.7623C12.4782 45.9387 12.5206 46.1009 12.6405 46.1221C12.7604 46.1362 12.9226 46.0092 13.0002 45.8328L13.1907 45.3814L12.7463 45.3109Z" fill="black"/>
<path d="M12.4784 46.5947L12.6477 46.1856L12.5984 46.1785L12.4291 46.5806L12.3797 46.5736L12.2104 46.6088L12.1963 46.6441L12.6407 46.7076L12.6548 46.6723L12.5278 46.5947H12.4784Z" fill="black"/>
<path d="M11.109 46.3618L11.0596 46.4887L11.7227 46.5804L11.772 46.4605L11.109 46.3618Z" fill="black"/>
<path d="M11.5752 46.376L11.6598 46.3901L12.0055 45.5648L12.0549 45.5718L12.1042 45.2191L11.8644 45.5436L11.9208 45.5507L11.5752 46.376Z" fill="black"/>
<path d="M11.2715 46.3336L11.3632 46.3477L11.7018 45.5224L11.7582 45.5295L11.8005 45.1768L11.5607 45.5012L11.6171 45.5083L11.2715 46.3336Z" fill="black"/>
<path d="M13.8612 46.9968L12.9795 46.8698L13.6496 45.2686L14.5314 45.3955L13.8612 46.9968ZM13.0218 46.8346L13.8542 46.9545L14.4891 45.4308L13.6567 45.3109L13.0218 46.8346Z" fill="black"/>
<path d="M12.8095 46.8415L11.9277 46.7145L12.5979 45.1133L13.4796 45.2402L12.8095 46.8415ZM11.9701 46.6793L12.8024 46.7992L13.4373 45.2755L12.6049 45.1556L11.9701 46.6793Z" fill="black"/>
<path d="M11.787 46.6934L10.9053 46.5665L11.5754 44.9652L12.4572 45.0922L11.787 46.6934ZM10.9476 46.5312L11.78 46.6511L12.4149 45.1274L11.5825 45.0075L10.9476 46.5312Z" fill="black"/>
<path d="M12.5635 39.9357L21.5574 41.1419L24.0969 34.2078L15.0465 33.0015L12.5635 39.9357Z" fill="#CCAC88"/>
<path d="M15.0462 33.0015L24.0401 34.2078L16.3865 29.9683L7.39258 28.7691L15.0462 33.0015Z" fill="#D9B995"/>
<path d="M15.0468 33.0015L12.5638 39.9357L4.91016 35.7032L7.39317 28.7691L15.0468 33.0015Z" fill="#B39372"/>
<path d="M12.4021 29.4393L11.4004 29.3052L19.054 33.5377L20.0557 33.6717L12.4021 29.4393Z" fill="#FFFFEB"/>
<path d="M19.1944 35.9643L20.0197 33.6646L19.0603 33.5377L18.2139 35.8373L19.1944 35.9643Z" fill="#CDCDB9"/>
<path d="M16.6479 38.5037L16.669 38.4614L16.6408 38.4543L16.6267 38.4967C16.4997 38.4826 16.3516 38.5672 16.2246 38.7083C16.2458 38.6942 16.2599 38.6871 16.281 38.6942C16.3092 38.7012 16.3234 38.7365 16.3163 38.7788C16.3445 38.7365 16.3798 38.7083 16.4151 38.7153C16.4503 38.7224 16.4574 38.7577 16.4503 38.8C16.4786 38.7577 16.5138 38.7294 16.5491 38.7365C16.5844 38.7436 16.5985 38.7788 16.5844 38.8211C16.6126 38.7788 16.6478 38.7506 16.6831 38.7577C16.7113 38.7647 16.7254 38.8 16.7184 38.8423C16.7466 38.8 16.7819 38.7718 16.8171 38.7788C16.8313 38.7788 16.8454 38.7929 16.8524 38.807C16.8312 38.6448 16.7678 38.5249 16.6479 38.5037Z" fill="black"/>
<path d="M16.1611 39.5971H16.1893L16.5279 38.7717H16.4997L16.1611 39.5971Z" fill="black"/>
<path d="M16.02 39.7312C15.9776 39.7241 15.9635 39.6747 15.9917 39.6112L15.9635 39.6042C15.9283 39.6888 15.9494 39.7664 16.0059 39.7735C16.0623 39.7805 16.1399 39.717 16.1751 39.6324L16.1469 39.6253C16.1187 39.6959 16.0623 39.7382 16.02 39.7312Z" fill="black"/>
<path d="M15.3791 38.2709L15.1886 38.7223C15.111 38.8987 15.1534 39.0609 15.2733 39.075C15.4003 39.0962 15.5555 38.9622 15.6331 38.7858L15.8235 38.3344L15.3791 38.2709Z" fill="black"/>
<path d="M15.1105 39.5477L15.2798 39.1456L15.2304 39.1385L15.0611 39.5406L15.0117 39.5336L14.8425 39.5688L14.8213 39.6041L15.2657 39.6676L15.2798 39.6323L15.1528 39.5547L15.1105 39.5477Z" fill="black"/>
<path d="M13.7417 39.322L13.6924 39.4419L14.3484 39.5406L14.3978 39.4207L13.7417 39.322Z" fill="black"/>
<path d="M14.2002 39.3361L14.2919 39.3502L14.6305 38.5249L14.6869 38.5319L14.7292 38.1792L14.4965 38.5037L14.5458 38.5107L14.2002 39.3361Z" fill="black"/>
<path d="M13.9043 39.2938L13.9889 39.3079L14.3346 38.4755L14.384 38.4896L14.4334 38.1369L14.1935 38.4614L14.2499 38.4684L13.9043 39.2938Z" fill="black"/>
<path d="M16.486 39.9568L15.6113 39.8298L16.2814 38.2286L17.1632 38.3555L16.486 39.9568ZM15.6537 39.7875L16.486 39.9074L17.1209 38.3838L16.2885 38.2639L15.6537 39.7875Z" fill="black"/>
<path d="M15.4433 39.8016L14.5615 39.6746L15.2317 38.0734L16.1134 38.2003L15.4433 39.8016ZM14.6038 39.6394L15.4362 39.7593L16.0711 38.2427L15.2387 38.1227L14.6038 39.6394Z" fill="black"/>
<path d="M14.4196 39.6535L13.5449 39.5265L14.2151 37.9252L15.0968 38.0522L14.4196 39.6535ZM13.5802 39.4912L14.4126 39.6111L15.0474 38.0875L14.2151 37.9676L13.5802 39.4912Z" fill="black"/>
<path d="M21.0774 20.1491L23.3629 19.4296C23.3629 19.4296 23.8637 19.6765 23.6098 20.0715L20.8164 20.9603L21.0774 20.1491Z" fill="#3B4447"/>
<path d="M19.7021 19.761C19.7021 19.761 20.4711 20.403 20.5063 20.6992C20.5416 20.9955 20.8872 21.3976 21.1412 21.3976C21.3951 21.3976 21.4375 20.403 21.2752 19.7963C21.113 19.2038 19.7021 19.6835 19.7021 19.761Z" fill="#F2A983"/>
</svg>
