<svg width="28" height="28" viewBox="0 0 28 28" fill="none" xmlns="http://www.w3.org/2000/svg">
<g clip-path="url(#clip0_2735_2254)">
<path d="M20.5185 18.3138C20.2747 18.069 19.9849 17.8749 19.6658 17.7424C19.3467 17.6099 19.0046 17.5417 18.6592 17.5417C18.3137 17.5417 17.9716 17.6099 17.6525 17.7424C17.3334 17.8749 17.0436 18.069 16.7998 18.3138L15.531 19.5825C14.1025 18.6759 12.779 17.6135 11.5848 16.415C10.3888 15.2185 9.32667 13.8953 8.41728 12.4688L9.68603 11.2C9.93075 10.9561 10.1249 10.6664 10.2574 10.3473C10.3899 10.0282 10.4581 9.68612 10.4581 9.34063C10.4581 8.99514 10.3899 8.65305 10.2574 8.33398C10.1249 8.01491 9.93075 7.72513 9.68603 7.48126L7.20978 5.01375C6.96935 4.76822 6.68201 4.57353 6.36485 4.44126C6.04768 4.30898 5.70716 4.24181 5.36353 4.24375C5.01745 4.24291 4.67462 4.3105 4.35476 4.44265C4.03491 4.57479 3.74434 4.76889 3.49978 5.01375L2.30978 6.195C1.74258 6.80485 1.31925 7.53406 1.07092 8.32902C0.82259 9.12398 0.755566 9.96449 0.874776 10.7888C1.15478 14.07 3.30728 18.0163 6.62353 21.3413C9.93978 24.6663 13.9298 26.81 17.211 27.125C17.4559 27.1381 17.7012 27.1381 17.946 27.125C18.6523 27.1547 19.3575 27.043 20.0201 26.7966C20.6827 26.5502 21.2895 26.174 21.8048 25.69L22.986 24.5C23.2309 24.2554 23.425 23.9649 23.5571 23.645C23.6893 23.3252 23.7569 22.9823 23.756 22.6363C23.758 22.2926 23.6908 21.9521 23.5585 21.6349C23.4262 21.3178 23.2316 21.0304 22.986 20.79L20.5185 18.3138ZM21.7523 23.2663L20.5623 24.4475C20.1223 24.8142 19.6086 25.0821 19.0561 25.2331C18.5036 25.384 17.9251 25.4145 17.3598 25.3225C14.516 25.0775 10.8935 23.065 7.90103 20.0725C4.90853 17.08 2.89603 13.4838 2.62478 10.64C2.53042 10.0747 2.55978 9.49562 2.71084 8.94273C2.8619 8.38985 3.13106 7.87631 3.49978 7.4375L4.73353 6.2475C4.81529 6.16641 4.91225 6.10225 5.01886 6.0587C5.12547 6.01516 5.23962 5.99309 5.35478 5.99375C5.46993 5.99309 5.58409 6.01516 5.69069 6.0587C5.7973 6.10225 5.89427 6.16641 5.97603 6.2475L8.45228 8.75C8.61524 8.91395 8.70672 9.13572 8.70672 9.36688C8.70672 9.59804 8.61524 9.81981 8.45228 9.98376L6.70228 11.7338C6.56534 11.87 6.47734 12.0478 6.45202 12.2393C6.42669 12.4308 6.46546 12.6253 6.56228 12.7925C7.60999 14.5761 8.88342 16.2172 10.351 17.675C11.8088 19.1426 13.4499 20.416 15.2335 21.4638C15.4007 21.5606 15.5952 21.5993 15.7867 21.574C15.9783 21.5487 16.156 21.4607 16.2923 21.3238L18.0423 19.5738C18.2062 19.4108 18.428 19.3193 18.6592 19.3193C18.8903 19.3193 19.1121 19.4108 19.276 19.5738L21.7523 22.05C21.8334 22.1318 21.8975 22.2287 21.9411 22.3353C21.9846 22.4419 22.0067 22.5561 22.006 22.6713C22.0005 22.8947 21.9098 23.1076 21.7523 23.2663Z" fill="white"/>
<path d="M23.275 4.71625C22.059 3.4956 20.6134 2.52773 19.0215 1.86846C17.4296 1.20918 15.723 0.871538 14 0.874996C13.7679 0.874996 13.5454 0.967183 13.3813 1.13128C13.2172 1.29537 13.125 1.51793 13.125 1.75C13.125 1.98206 13.2172 2.20462 13.3813 2.36871C13.5454 2.53281 13.7679 2.625 14 2.625C15.5019 2.62494 16.989 2.92232 18.3754 3.49998C19.7618 4.07764 21.02 4.92413 22.0776 5.99061C23.1351 7.0571 23.971 8.32245 24.5369 9.71366C25.1029 11.1049 25.3877 12.5944 25.375 14.0962C25.375 14.3283 25.4672 14.5509 25.6313 14.715C25.7954 14.8791 26.0179 14.9712 26.25 14.9712C26.4821 14.9712 26.7046 14.8791 26.8687 14.715C27.0328 14.5509 27.125 14.3283 27.125 14.0962C27.1418 12.3549 26.8097 10.6279 26.1485 9.01693C25.4873 7.40596 24.5103 5.94366 23.275 4.71625Z" fill="white"/>
<path d="M18.296 9.72125C18.7926 10.2148 19.1854 10.8027 19.4514 11.4504C19.7173 12.0981 19.8511 12.7924 19.8447 13.4925C19.8447 13.7246 19.9369 13.9471 20.101 14.1112C20.2651 14.2753 20.4877 14.3675 20.7197 14.3675C20.9518 14.3675 21.1744 14.2753 21.3384 14.1112C21.5025 13.9471 21.5947 13.7246 21.5947 13.4925C21.6063 12.5659 21.4338 11.6462 21.0872 10.7868C20.7406 9.92743 20.2268 9.1454 19.5757 8.48609C18.9245 7.82678 18.1489 7.30333 17.2939 6.94609C16.4388 6.58884 15.5214 6.40493 14.5947 6.405C14.3627 6.405 14.1401 6.49719 13.976 6.66128C13.8119 6.82537 13.7197 7.04793 13.7197 7.28C13.7197 7.51206 13.8119 7.73462 13.976 7.89872C14.1401 8.06281 14.3627 8.155 14.5947 8.155C15.2843 8.16019 15.9661 8.30119 16.6012 8.56993C17.2362 8.83867 17.8121 9.22989 18.296 9.72125Z" fill="white"/>
</g>
<defs>
<clipPath id="clip0_2735_2254">
<rect width="28" height="28" fill="white"/>
</clipPath>
</defs>
</svg>
