<svg width="43" height="43" viewBox="0 0 43 43" fill="none" xmlns="http://www.w3.org/2000/svg">
<g clip-path="url(#clip0_2767_2462)">
<path opacity="0.971" fill-rule="evenodd" clip-rule="evenodd" d="M19.5464 -0.0419922C20.7742 -0.0419922 22.0019 -0.0419922 23.2296 -0.0419922C31.623 1.00781 37.6083 5.36078 41.1856 13.0169C42.0475 15.1251 42.5917 17.3016 42.818 19.5464C42.818 20.7742 42.818 22.0019 42.818 23.2296C41.7682 31.623 37.4152 37.6083 29.7591 41.1856C27.6509 42.0475 25.4744 42.5917 23.2296 42.818C22.0019 42.818 20.7742 42.818 19.5464 42.818C11.153 41.7682 5.16767 37.4152 1.59037 29.7591C0.728477 27.6509 0.184356 25.4744 -0.0419922 23.2296C-0.0419922 22.0019 -0.0419922 20.7742 -0.0419922 19.5464C1.00781 11.153 5.36078 5.16767 13.0169 1.59037C15.1251 0.728477 17.3016 0.184356 19.5464 -0.0419922ZM20.3835 3.30645C27.7679 3.23732 33.3625 6.33462 37.1675 12.5984C40.3297 18.7148 40.218 24.7699 36.8327 30.7636C32.538 37.1867 26.5248 40.0189 18.793 39.2603C12.99 38.2513 8.59522 35.2238 5.6085 30.1777C2.44633 24.0612 2.55795 18.0061 5.94334 12.0124C9.32978 6.76744 14.1432 3.86546 20.3835 3.30645Z" fill="#F68B21"/>
<path opacity="0.976" fill-rule="evenodd" clip-rule="evenodd" d="M21.2211 9.83595C22.1256 9.8336 22.7255 10.2522 23.0208 11.0916C23.0487 14.2726 23.0767 17.4536 23.1046 20.6347C25.1694 22.1973 27.2343 23.7598 29.2992 25.3225C29.866 26.0554 29.8939 26.8088 29.3829 27.5827C28.6602 28.2395 27.8649 28.3372 26.9971 27.8757C24.7928 26.2293 22.5883 24.5831 20.3839 22.9367C20.1384 22.7472 19.957 22.51 19.8398 22.2252C19.7016 18.5189 19.6737 14.8077 19.7561 11.0916C19.9783 10.3526 20.4667 9.93406 21.2211 9.83595Z" fill="#F68B21"/>
</g>
<defs>
<clipPath id="clip0_2767_2462">
<rect width="42.86" height="42.86" fill="white"/>
</clipPath>
</defs>
</svg>
