<svg width="43" height="43" viewBox="0 0 43 43" fill="none" xmlns="http://www.w3.org/2000/svg">
<g clip-path="url(#clip0_2773_2562)">
<path opacity="0.932" fill-rule="evenodd" clip-rule="evenodd" d="M42.8177 5.31584C42.8177 5.39955 42.8177 5.48326 42.8177 5.56697C42.634 7.49881 42.0062 9.28466 40.9342 10.9245C40.5222 11.5531 40.0898 12.1669 39.6367 12.7661C40.5766 12.9638 41.3718 13.4103 42.0224 14.1055C42.5075 15.108 42.2703 15.9033 41.3109 16.4912C39.8684 17.1649 38.3476 17.4857 36.7486 17.4539C35.1497 17.4857 33.6289 17.1649 32.1864 16.4912C31.2271 15.9039 30.9899 15.1087 31.4749 14.1055C32.1266 13.4097 32.9219 12.9633 33.8606 12.7661C32.4731 11.0515 31.4825 9.12611 30.8889 6.99006C30.2966 3.19181 31.8732 0.889756 35.6185 0.0839042C38.0099 -0.27848 40.033 0.405159 41.6876 2.13482C42.3914 3.08878 42.7681 4.14913 42.8177 5.31584ZM36.7068 1.38142C38.0241 1.42517 39.1961 1.85768 40.2226 2.67894C40.9877 3.45273 41.3505 4.3875 41.3109 5.48326C41.2419 6.98792 40.8094 8.38309 40.0134 9.66881C39.0535 11.1872 37.9652 12.6102 36.7486 13.9381C35.5321 12.6102 34.4438 11.1872 33.4839 9.66881C32.6879 8.38309 32.2554 6.98792 32.1864 5.48326C32.1907 3.73029 32.9998 2.51649 34.614 1.84183C35.301 1.58467 35.9987 1.43119 36.7068 1.38142ZM36.2045 4.06017C37.3473 3.91252 38.1426 4.35898 38.5903 5.39955C38.7963 6.82693 38.1824 7.66404 36.7486 7.91088C35.5892 7.7559 34.9334 7.10017 34.7814 5.94367C34.9242 5.0552 35.3986 4.42736 36.2045 4.06017ZM34.4466 14.1055C34.6439 14.0918 34.8392 14.1057 35.0326 14.1473C35.5041 14.7868 36.0761 15.3031 36.7486 15.696C36.9429 15.6618 37.1243 15.5919 37.2928 15.4867C37.6834 15.0403 38.074 14.5938 38.4647 14.1473C39.0457 14.125 39.6037 14.2366 40.1389 14.4822C41.0238 14.8426 40.9959 15.1774 40.0552 15.4867C37.851 16.2095 35.6467 16.2095 33.4421 15.4867C32.5014 15.1774 32.4735 14.8426 33.3583 14.4822C33.7334 14.362 34.0961 14.2364 34.4466 14.1055Z" fill="#F68B21"/>
<path opacity="0.931" fill-rule="evenodd" clip-rule="evenodd" d="M36.0375 2.63666C38.4405 2.45902 39.8079 3.56122 40.1393 5.94324C39.9275 7.99665 38.7974 9.12676 36.749 9.33353C34.3037 8.98245 33.2155 7.58724 33.4843 5.14798C33.8851 3.8402 34.7362 3.00309 36.0375 2.63666ZM36.2049 4.05974C35.399 4.42693 34.9246 5.05476 34.7818 5.94324C34.9337 7.09974 35.5895 7.75547 36.749 7.91044C38.1828 7.66361 38.7966 6.8265 38.5906 5.39912C38.1429 4.35855 37.3477 3.91209 36.2049 4.05974Z" fill="#F68B21"/>
<path opacity="0.935" fill-rule="evenodd" clip-rule="evenodd" d="M27.9174 7.99458C28.1535 7.97344 28.3766 8.0153 28.5871 8.12014C29.2149 8.69214 29.8427 9.26422 30.4706 9.83622C30.5264 10.0874 30.5264 10.3385 30.4706 10.5896C29.8081 11.2524 29.0965 11.8524 28.336 12.3894C27.6674 12.4182 27.3744 12.0973 27.457 11.4267C27.5509 11.2489 27.6765 11.0955 27.8337 10.9663C24.6805 10.9105 21.5275 10.9105 18.3744 10.9663C17.4325 11.2519 16.9024 11.8798 16.7838 12.8498C18.3306 13.381 19.0142 14.4693 18.8348 16.1145C18.6654 16.8425 18.2887 17.4424 17.7047 17.9143C17.3509 18.077 17.0161 18.2584 16.7001 18.4584C16.9338 20.0733 17.8546 21.0081 19.4626 21.2628C23.2015 21.3046 26.9407 21.3186 30.6799 21.3046C30.9744 20.159 31.6999 19.4475 32.8563 19.17C34.9132 18.9975 36.0572 19.9323 36.2885 21.9743C36.2533 23.3561 35.5836 24.2769 34.2794 24.7368C34.2281 26.6635 34.1584 28.5888 34.0702 30.5128C33.3097 33.2876 31.4821 34.6828 28.5871 34.6984C28.1263 34.7575 27.7218 34.646 27.3733 34.3635C27.1833 34.0108 27.2252 33.6899 27.4988 33.4008C28.2745 33.3025 29.0559 33.2188 29.8427 33.1497C31.1786 32.7962 32.0854 31.9731 32.5634 30.6802C32.6496 30.3225 32.7054 29.9598 32.7308 29.592C32.7726 27.9739 32.7866 26.3554 32.7726 24.7368C31.7308 24.4765 31.0332 23.8347 30.6799 22.8114C26.969 22.7417 23.2578 22.6998 19.5463 22.6858C16.9318 22.3839 15.5088 20.919 15.277 18.291C14.1616 18.0266 13.4779 17.3289 13.2261 16.1982C13.0218 14.4859 13.7194 13.3139 15.3189 12.6824C15.5535 10.9688 16.5162 9.92244 18.2069 9.54323C21.4438 9.51535 24.6805 9.48739 27.9174 9.45952C27.25 8.96027 27.25 8.47198 27.9174 7.99458ZM15.7793 14.1055C16.7499 14.0997 17.308 14.574 17.4535 15.5286C17.3814 16.4099 16.9071 16.9121 16.0304 17.0354C14.7449 16.7523 14.3403 15.9989 14.8166 14.7752C15.0803 14.4561 15.4012 14.233 15.7793 14.1055ZM33.1075 20.5512C33.9268 20.4656 34.4989 20.8004 34.8236 21.5557C34.9491 22.8811 34.3492 23.4811 33.0238 23.3555C32.0667 22.9058 31.8017 22.1943 32.2285 21.2209C32.4675 20.9103 32.7605 20.6871 33.1075 20.5512Z" fill="#F68B21"/>
<path opacity="0.948" fill-rule="evenodd" clip-rule="evenodd" d="M1.46508 24.0668C6.48781 24.0528 11.5105 24.0668 16.533 24.1086C17.2205 24.2102 17.6809 24.5869 17.9143 25.2387C17.9961 25.6818 18.0379 26.1282 18.0398 26.5781C19.0727 26.5641 20.1051 26.5781 21.1371 26.62C21.6547 26.7469 22.0872 27.012 22.4347 27.4152C23.682 28.7667 24.9098 30.134 26.118 31.517C26.2965 31.8294 26.4081 32.1643 26.4528 32.5216C26.5086 34.7539 26.5086 36.9861 26.4528 39.2184C26.3586 39.8708 26.0099 40.3312 25.4064 40.5997C24.8805 40.6867 24.3503 40.7565 23.8159 40.809C22.9466 42.7017 21.5515 43.2179 19.6304 42.3576C19.0774 41.9501 18.6867 41.4199 18.4584 40.7671C16.533 40.7113 14.6077 40.7113 12.6823 40.7671C12.0986 42.3151 10.9825 42.9569 9.33391 42.6924C8.36015 42.4443 7.70441 41.8444 7.3667 40.8927C6.74696 42.3539 5.64477 42.9539 4.06012 42.6924C3.03589 42.4216 2.3662 41.7798 2.05105 40.7671C1.10311 40.8172 0.447375 40.4125 0.0838477 39.5533C0.0280404 34.7818 0.0280404 30.0102 0.0838477 25.2387C0.33129 24.5859 0.7917 24.1953 1.46508 24.0668ZM1.6325 25.4899C2.88816 25.4899 4.14383 25.4899 5.39949 25.4899C5.36346 26.6946 5.40532 27.8945 5.52506 29.0894C6.00751 29.7786 6.60744 29.9042 7.32484 29.4661C7.89511 29.0215 8.45318 28.5611 8.99906 28.0849C9.64087 28.6011 10.2826 29.1173 10.9244 29.6335C11.7753 29.8988 12.3194 29.6058 12.5568 28.7546C12.5986 27.6667 12.6126 26.5784 12.5986 25.4899C13.8546 25.4759 15.1103 25.4899 16.3656 25.5317C16.4662 25.6073 16.536 25.7049 16.5749 25.8247C16.6168 29.0335 16.6307 32.2424 16.6168 35.4515C11.5383 35.4515 6.45983 35.4515 1.38137 35.4515C1.36741 32.2424 1.38137 29.0335 1.42322 25.8247C1.47866 25.7005 1.54841 25.5889 1.6325 25.4899ZM6.82258 25.4899C8.27357 25.4899 9.72459 25.4899 11.1755 25.4899C11.1894 26.3275 11.1755 27.1646 11.1337 28.0012C10.642 27.5372 10.1257 27.1046 9.58504 26.7037C9.19436 26.5362 8.80377 26.5362 8.41309 26.7037C7.87238 27.1046 7.35616 27.5372 6.86443 28.0012C6.8226 27.1646 6.80864 26.3275 6.82258 25.4899ZM20.886 28.0849C20.0764 28.071 19.2671 28.0849 18.4584 28.1267C18.2721 28.2295 18.1465 28.383 18.0817 28.5872C18.0401 28.3938 18.0262 28.1985 18.0398 28.0012C19.0035 27.9737 19.9523 28.0016 20.886 28.0849ZM19.4629 29.508C19.7712 29.4942 20.078 29.5081 20.3838 29.5498C21.3324 30.5822 22.2812 31.6147 23.2299 32.6471C21.9746 32.689 20.7189 32.703 19.4629 32.689C19.4629 31.6286 19.4629 30.5683 19.4629 29.508ZM24.8204 32.2704C24.9516 32.3693 25.0214 32.5088 25.0297 32.689C25.0716 33.6094 25.0855 34.5302 25.0716 35.4515C24.3308 35.311 23.7867 35.5621 23.4392 36.2049C23.3834 36.8467 23.3834 37.4884 23.4392 38.1302C23.5131 38.348 23.6387 38.5294 23.8159 38.6743C24.2197 38.8266 24.6383 38.9242 25.0716 38.9673C25.0264 39.0718 24.9705 39.1695 24.9041 39.2603C24.5414 39.3161 24.1786 39.3161 23.8159 39.2603C23.0208 37.4319 21.6814 36.8739 19.7978 37.5861C19.1684 37.9928 18.7219 38.5509 18.4584 39.2603C18.3216 39.3017 18.1821 39.3155 18.0398 39.3022C18.0259 37.4045 18.0398 35.507 18.0817 33.6098C18.1794 33.8191 18.3328 33.9725 18.5421 34.0702C20.4953 34.1261 22.4487 34.1261 24.4019 34.0702C24.647 33.9647 24.8004 33.7833 24.8623 33.5261C24.9115 33.1052 24.8976 32.6866 24.8204 32.2704ZM1.38137 36.7908C6.45983 36.7908 11.5383 36.7908 16.6168 36.7908C16.6168 37.6279 16.6168 38.465 16.6168 39.3022C15.305 39.3161 13.9935 39.3022 12.6823 39.2603C12.0812 37.7409 10.965 37.0991 9.33391 37.3349C8.37224 37.5996 7.7165 38.1996 7.3667 39.1347C6.67542 37.5684 5.48952 36.9964 3.80898 37.4187C2.93465 37.7762 2.37658 38.404 2.13477 39.3022C1.93748 39.3158 1.74214 39.3019 1.54879 39.2603C1.49099 39.171 1.44913 39.0733 1.42322 38.9673C1.38138 38.2424 1.36744 37.5169 1.38137 36.7908ZM24.8204 36.8745C24.9041 36.8745 24.9879 36.8745 25.0716 36.8745C25.0716 37.0698 25.0716 37.2652 25.0716 37.4605C24.9879 37.4605 24.9041 37.4605 24.8204 37.4605C24.8204 37.2652 24.8204 37.0698 24.8204 36.8745ZM4.31125 38.7162C5.51033 38.6457 6.08235 39.2038 6.02732 40.3904C5.58771 41.309 4.90407 41.5462 3.97641 41.1019C3.16399 40.1794 3.2756 39.3841 4.31125 38.7162ZM9.58504 38.7162C10.7418 38.6315 11.3138 39.1617 11.3011 40.3067C10.8965 41.2831 10.2129 41.5482 9.2502 41.1019C8.39651 40.1714 8.50818 39.3762 9.58504 38.7162ZM20.7186 38.7162C21.8753 38.6315 22.4473 39.1617 22.4347 40.3067C22.03 41.2831 21.3464 41.5482 20.3838 41.1019C19.5454 40.1747 19.657 39.3794 20.7186 38.7162Z" fill="#F68B21"/>
<path opacity="0.897" fill-rule="evenodd" clip-rule="evenodd" d="M18.4585 34.2796C18.9059 34.2657 19.3523 34.2797 19.7979 34.3215C20.3522 34.8375 20.2963 35.2839 19.6305 35.6608C19.162 35.7522 18.7155 35.6963 18.2911 35.4934C18.0382 35.0452 18.0941 34.6407 18.4585 34.2796Z" fill="#F68B21"/>
</g>
<defs>
<clipPath id="clip0_2773_2562">
<rect width="42.86" height="42.86" fill="white"/>
</clipPath>
</defs>
</svg>
