<svg width="43" height="43" viewBox="0 0 43 43" fill="none" xmlns="http://www.w3.org/2000/svg">
<g clip-path="url(#clip0_2773_2541)">
<path opacity="0.953" fill-rule="evenodd" clip-rule="evenodd" d="M16.5325 -0.0419922C19.7694 -0.0419922 23.0062 -0.0419922 26.243 -0.0419922C26.716 0.278365 26.8695 0.724824 26.7034 1.29738C25.9919 2.45538 25.2803 3.61339 24.5688 4.77139C25.5494 5.40745 25.9819 6.31431 25.8663 7.49199C25.8113 7.93629 25.6579 8.3409 25.4059 8.7058C29.8281 11.0902 31.7116 14.7874 31.0564 19.7975C30.0129 24.0498 27.3482 26.6309 23.062 27.5408C18.8314 28.0685 15.4969 26.6035 13.0585 23.1459C11.0614 19.7189 11.0055 16.2589 12.8911 12.7658C13.9887 10.9703 15.4815 9.617 17.3696 8.7058C16.676 7.55197 16.7179 6.42187 17.4952 5.31551C17.6947 5.08339 17.9319 4.90202 18.2068 4.77139C17.4952 3.61339 16.7837 2.45538 16.0721 1.29738C15.906 0.724824 16.0596 0.278365 16.5325 -0.0419922ZM18.6253 1.88336C20.4526 1.78601 22.2943 1.77207 24.1502 1.8415C23.648 2.67861 23.1457 3.51572 22.6434 4.35283C21.8063 4.40864 20.9692 4.40864 20.1321 4.35283C19.6413 3.51531 19.139 2.69216 18.6253 1.88336ZM19.4624 6.23633C20.7463 6.22238 22.0298 6.23634 23.3131 6.27818C23.8793 6.45428 24.0886 6.83098 23.941 7.40828C23.7846 7.74485 23.5195 7.92622 23.1457 7.9524C21.8576 8.03069 20.574 8.00278 19.295 7.86869C18.7746 7.54313 18.663 7.11062 18.9602 6.57117C19.11 6.41918 19.2774 6.30756 19.4624 6.23633ZM20.4669 9.8359C24.4638 9.66354 27.2681 11.3935 28.8799 15.026C29.9387 18.3382 29.2551 21.2262 26.829 23.6901C24.2169 25.9003 21.315 26.3746 18.123 25.1131C15.5329 23.8552 13.9842 21.8043 13.4771 18.9604C13.1437 15.596 14.3575 12.9592 17.1185 11.0497C18.1675 10.4352 19.2836 10.0306 20.4669 9.8359Z" fill="#F68B21"/>
<path opacity="0.95" fill-rule="evenodd" clip-rule="evenodd" d="M20.4678 12.4312C21.0817 12.4312 21.6956 12.4312 22.3095 12.4312C22.3095 12.7381 22.3095 13.045 22.3095 13.352C23.5483 13.3652 24.3993 13.9512 24.8626 15.1099C24.9554 15.4101 24.9972 15.7171 24.9882 16.0307C24.3718 16.0584 23.7579 16.0305 23.1466 15.947C23.0592 15.6223 22.8639 15.3851 22.5606 15.2355C21.7793 15.1796 20.998 15.1796 20.2167 15.2355C19.5217 15.6704 19.4659 16.1727 20.0493 16.7423C20.906 16.8499 21.771 16.9057 22.6443 16.9097C24.3914 17.319 25.1587 18.4212 24.9463 20.2163C24.573 21.5525 23.694 22.25 22.3095 22.309C22.3095 22.616 22.3095 22.9229 22.3095 23.2299C21.6956 23.2299 21.0817 23.2299 20.4678 23.2299C20.4678 22.9229 20.4678 22.616 20.4678 22.309C18.7812 22.1571 17.8883 21.2363 17.7891 19.5466C18.4029 19.5466 19.0169 19.5466 19.6307 19.5466C19.6622 19.9866 19.8854 20.2796 20.3004 20.4255C21.0259 20.4814 21.7514 20.4814 22.4769 20.4255C23.2946 19.9735 23.3504 19.4434 22.6443 18.835C21.7004 18.731 20.7517 18.6752 19.7981 18.6676C18.2793 18.1284 17.6236 17.054 17.8309 15.4447C18.2078 14.1044 19.0867 13.4068 20.4678 13.352C20.4678 13.045 20.4678 12.7381 20.4678 12.4312Z" fill="#F68B21"/>
<path opacity="0.963" fill-rule="evenodd" clip-rule="evenodd" d="M10.4218 42.818C7.99422 42.818 5.5666 42.818 3.13899 42.818C2.94587 42.6943 2.7924 42.5269 2.67858 42.3157C2.62277 37.2931 2.62277 32.2704 2.67858 27.2477C2.77624 27.0385 2.92971 26.885 3.13899 26.7873C4.3528 26.7734 5.5666 26.7595 6.78041 26.7455C8.1101 26.7341 9.43556 26.7759 10.7567 26.871C11.5955 27.2074 12.1396 27.8074 12.389 28.6708C12.5062 28.61 12.6317 28.5681 12.7657 28.5453C15.1655 28.4894 17.5651 28.4894 19.9649 28.5453C20.5762 29.0728 21.1622 29.6308 21.7228 30.2195C23.6524 30.2229 25.5777 30.2787 27.4989 30.3869C29.0628 30.989 29.6767 32.1191 29.3405 33.7772C29.5301 33.8732 29.7254 33.8872 29.9265 33.8191C31.243 32.4466 32.6103 31.1351 34.0283 29.8846C36.2733 28.7033 38.2963 28.9963 40.0974 30.7636C40.1532 31.0426 40.1532 31.3217 40.0974 31.6007C37.4665 34.6225 34.7739 37.5942 32.0193 40.5159C30.9907 41.3334 29.8188 41.8078 28.5034 41.939C23.3133 41.9948 18.1232 41.9948 12.9332 41.939C12.6274 41.8743 12.3344 41.7766 12.0542 41.646C11.6346 42.2204 11.0905 42.611 10.4218 42.818ZM4.47836 28.5871C6.41129 28.547 8.33664 28.5889 10.2544 28.7127C10.4788 28.8963 10.6044 29.1335 10.6311 29.4242C10.687 32.9959 10.687 36.5675 10.6311 40.1392C10.6049 40.513 10.4236 40.7781 10.087 40.9345C8.21766 40.9763 6.34811 40.9903 4.47836 40.9763C4.47836 36.8466 4.47836 32.7168 4.47836 28.5871ZM13.1843 30.345C15.1935 30.3311 17.2026 30.345 19.2115 30.3869C19.7721 30.9756 20.3581 31.5336 20.9694 32.0611C22.8948 32.089 24.8201 32.117 26.7455 32.1448C27.4035 32.2449 27.6686 32.6216 27.5407 33.2749C27.4099 33.5452 27.2006 33.7266 26.9129 33.8191C24.4576 33.8609 22.002 33.8749 19.5463 33.8609C19.5463 34.4748 19.5463 35.0887 19.5463 35.7025C23.2577 35.7165 26.9688 35.7025 30.6799 35.6607C32.1308 34.2655 33.5819 32.8704 35.0329 31.4751C35.9359 30.9371 36.8568 30.8953 37.7953 31.3496C35.4669 33.9432 33.123 36.5243 30.7636 39.0928C29.9474 39.7091 29.0266 40.044 28.0011 40.0974C23.118 40.1532 18.2348 40.1532 13.3517 40.0974C12.978 40.0712 12.7128 39.8899 12.5565 39.5533C12.5006 36.6792 12.5006 33.8051 12.5565 30.931C12.7044 30.6571 12.9137 30.4618 13.1843 30.345Z" fill="#F68B21"/>
<path opacity="0.94" fill-rule="evenodd" clip-rule="evenodd" d="M6.15234 37.4604C6.76622 37.4604 7.38011 37.4604 7.99398 37.4604C7.99398 38.0743 7.99398 38.6882 7.99398 39.3021C7.38011 39.3021 6.76622 39.3021 6.15234 39.3021C6.15234 38.6882 6.15234 38.0743 6.15234 37.4604Z" fill="#F68B21"/>
</g>
<defs>
<clipPath id="clip0_2773_2541">
<rect width="42.86" height="42.86" fill="white"/>
</clipPath>
</defs>
</svg>
