<svg width="43" height="43" viewBox="0 0 43 43" fill="none" xmlns="http://www.w3.org/2000/svg">
<g clip-path="url(#clip0_2773_2532)">
<path opacity="0.981" fill-rule="evenodd" clip-rule="evenodd" d="M42.818 20.0489C42.818 21.9184 42.818 23.788 42.818 25.6575C42.1522 28.4019 40.4222 30.0064 37.6279 30.4709C36.735 30.5268 35.8421 30.5268 34.9492 30.4709C34.4566 30.3585 34.1358 30.0655 33.9865 29.592C33.9586 25.0716 33.9307 20.5512 33.9028 16.0308C33.5396 11.0455 31.1538 7.40412 26.7455 5.10651C22.0717 3.13221 17.6908 3.63448 13.6029 6.61331C10.682 9.06478 9.10544 12.2039 8.87322 16.0308C8.84535 20.5512 8.81739 25.0716 8.78951 29.592C8.69701 29.9859 8.45986 30.251 8.07797 30.3872C6.24442 30.7536 4.48649 30.5304 2.80418 29.7175C1.28667 28.7608 0.337947 27.4074 -0.0419922 25.6575C-0.0419922 23.788 -0.0419922 21.9184 -0.0419922 20.0489C0.767326 16.8409 2.8322 15.2225 6.15262 15.1937C6.6977 10.0686 9.12536 6.12017 13.4355 3.34858C18.5505 0.490877 23.7127 0.407166 28.922 3.09745C33.4698 5.84983 36.037 9.88188 36.6234 15.1937C39.9223 15.2512 41.9872 16.8696 42.818 20.0489Z" fill="#F68B21"/>
<path opacity="0.929" fill-rule="evenodd" clip-rule="evenodd" d="M5.56641 31.9355C6.1044 31.9893 6.63457 32.0172 7.15691 32.0193C7.96911 35.0842 9.89443 37.0514 12.933 37.9209C13.8489 38.0609 14.7697 38.1585 15.6954 38.2139C15.5838 38.6883 15.5838 39.1626 15.6954 39.637C11.8817 39.9348 8.90999 38.5117 6.78021 35.3677C6.15037 34.3012 5.74577 33.1571 5.56641 31.9355Z" fill="#F68B21"/>
<path opacity="0.973" fill-rule="evenodd" clip-rule="evenodd" d="M19.1276 36.205C20.6347 36.191 22.1415 36.205 23.648 36.2468C25.2127 36.7526 25.8963 37.8269 25.6989 39.4697C25.3855 40.6666 24.6182 41.3781 23.3969 41.6043C22.0575 41.6601 20.7181 41.6601 19.3788 41.6043C17.6344 41.1971 16.867 40.095 17.0767 38.2977C17.3858 37.2215 18.0694 36.5238 19.1276 36.205Z" fill="#F68B21"/>
</g>
<defs>
<clipPath id="clip0_2773_2532">
<rect width="42.86" height="42.86" fill="white"/>
</clipPath>
</defs>
</svg>
