<svg width="16" height="16" viewBox="0 0 16 16" fill="none" xmlns="http://www.w3.org/2000/svg">
<path fill-rule="evenodd" clip-rule="evenodd" d="M16.0002 7.64255L11.7864 4.25123V6.75719H6.76794L6.34611 5.6276L5.83027 4.24614L5.7592 4.05534L5.05079 2.15487L4.833 1.57227L4.46389 0.582604L4.24609 0H9.23477L15.9154 7.41358L15.9406 7.48227L16.0002 7.64255Z" fill="white"/>
<path fill-rule="evenodd" clip-rule="evenodd" d="M5.7589 11.9447L5.82997 11.7539L5.7589 11.9447L5.5411 12.5273L4.75474 14.6364L4.61719 15.0027L4.83269 14.4277L5.04819 13.8451L5.7589 11.9447Z" fill="#F68B21"/>
<path fill-rule="evenodd" clip-rule="evenodd" d="M5.6329 7.09302L5.56183 6.89712L4.61957 4.37844L4.5485 4.18254L3.88136 2.39402L3.67732 1.84958L2.98725 0L2.29718 1.84958L2.09314 2.39402L1.42599 4.18254L1.35263 4.37844L0.412666 6.89712L0.339303 7.09302L0 7.99873L0.339303 8.90444L0.412666 9.10542L0.87577 10.3419L1.35263 11.619L1.42599 11.82L2.09314 13.606L2.29718 14.1504L2.64336 15.0816L2.98725 16L3.33114 15.0816L3.67732 14.1504L3.88136 13.606L4.54621 11.82L4.62186 11.619L5.09872 10.3419L5.55953 9.10542L5.63519 8.90444L5.9722 7.99873L5.6329 7.09302Z" fill="#F68B21"/>
<path fill-rule="evenodd" clip-rule="evenodd" d="M6.91197 8.85864L6.83861 9.05454L6.76754 9.2428L6.3457 10.3724L6.76754 9.2428L6.83632 9.05454L6.91197 8.85864Z" fill="#F68B21"/>
<path fill-rule="evenodd" clip-rule="evenodd" d="M16.0002 8.35745L15.9406 8.51773L15.7411 9.05454L15.2482 10.3724L14.6613 11.9447L14.4435 12.5273L13.6572 14.6364L13.366 15.4174L13.1482 16H4.24609L4.46389 15.4174L4.61749 15.0027L4.833 14.4277L5.0485 13.8451L5.7592 11.9447L5.83027 11.7539L5.83715 11.736L6.34611 10.3724L6.76794 9.24281L6.83672 9.05454L6.91238 8.85865L6.83901 9.05454L6.76794 9.24281H11.7864V11.7513L16.0002 8.35745Z" fill="#F68B21"/>
<path fill-rule="evenodd" clip-rule="evenodd" d="M6.91201 8.85864L6.83865 9.05454L6.76758 9.2428L6.83636 9.05454L6.91201 8.85864Z" fill="white"/>
<path fill-rule="evenodd" clip-rule="evenodd" d="M15.915 7.41358L9.23438 0H13.1478L13.3656 0.582604L13.6568 1.36365L14.4431 3.47273L14.6609 4.05534L15.2478 5.6276L15.7408 6.94546L15.915 7.41358Z" fill="white"/>
</svg>
